<?xml version="1.0" encoding="utf-8"?>
<!-- Generator: Adobe Illustrator 22.0.1, SVG Export Plug-In . SVG Version: 6.00 Build 0)  -->
<svg version="1.1" id="Слой_1" xmlns="http://www.w3.org/2000/svg" xmlns:xlink="http://www.w3.org/1999/xlink" x="0px" y="0px"
	 viewBox="0 0 1920 1080" style="enable-background:new 0 0 1920 1080;" xml:space="preserve">
<style type="text/css">
	.st0{opacity:0.3;}
	.st1{fill:#52C1E9;}
	.st2{opacity:0.3;fill:#52C1E9;}
	.st3{fill:url(#SVGID_1_);}
	.st4{fill:url(#SVGID_2_);}
</style>
<g>
	<g class="st0">
		<path class="st1" d="M1523.3,178.2c7.5,0,13.6,4.9,13.6,11s-6.1,11-13.6,11h-13.6c-7.5,0-13.6-4.9-13.6-11c0-6,6.1-11,13.6-11
			H1523.3 M1523.3,177h-13.6c-8.3,0-15.1,5.5-15.1,12.2v0c0,6.7,6.8,12.2,15.1,12.2h13.6c8.3,0,15.1-5.5,15.1-12.2v0
			C1538.4,182.5,1531.6,177,1523.3,177L1523.3,177z"/>
	</g>
	<g class="st0">
		<path class="st1" d="M1467.2,178.2c7.5,0,13.6,4.9,13.6,11s-6.1,11-13.6,11h-13.6c-7.5,0-13.6-4.9-13.6-11c0-6,6.1-11,13.6-11
			H1467.2 M1467.2,177h-13.6c-8.3,0-15.1,5.5-15.1,12.2v0c0,6.7,6.8,12.2,15.1,12.2h13.6c8.3,0,15.1-5.5,15.1-12.2v0
			C1482.3,182.5,1475.5,177,1467.2,177L1467.2,177z"/>
	</g>
	<g class="st0">
		<path class="st1" d="M1411.1,178.2c7.5,0,13.6,4.9,13.6,11s-6.1,11-13.6,11h-29c-7.5,0-13.6-4.9-13.6-11c0-6,6.1-11,13.6-11
			H1411.1 M1411.1,177h-29c-8.3,0-15.1,5.5-15.1,12.2v0c0,6.7,6.8,12.2,15.1,12.2h29c8.3,0,15.1-5.5,15.1-12.2v0
			C1426.2,182.5,1419.4,177,1411.1,177L1411.1,177z"/>
	</g>
	<g class="st0">
		<path class="st1" d="M1339.7,178.2c7.5,0,13.6,4.9,13.6,11s-6.1,11-13.6,11h-46.5c-7.5,0-13.6-4.9-13.6-11c0-6,6.1-11,13.6-11
			H1339.7 M1339.7,177h-46.5c-8.3,0-15.1,5.5-15.1,12.2v0c0,6.7,6.8,12.2,15.1,12.2h46.5c8.3,0,15.1-5.5,15.1-12.2v0
			C1354.8,182.5,1348,177,1339.7,177L1339.7,177z"/>
	</g>
	<g class="st0">
		<path class="st1" d="M1250.8,178.2c7.5,0,13.6,4.9,13.6,11s-6.1,11-13.6,11h-56.2c-7.5,0-13.6-4.9-13.6-11c0-6,6.1-11,13.6-11
			H1250.8 M1250.8,177h-56.2c-8.3,0-15.1,5.5-15.1,12.2v0c0,6.7,6.8,12.2,15.1,12.2h56.2c8.3,0,15.1-5.5,15.1-12.2v0
			C1265.9,182.5,1259.1,177,1250.8,177L1250.8,177z"/>
	</g>
</g>
<g>
	<g class="st0">
		<path class="st1" d="M1524.4,244.7c7.5,0,13.6,4.9,13.6,11c0,6-6.1,11-13.6,11h-13.6c-7.5,0-13.6-4.9-13.6-11c0-6,6.1-11,13.6-11
			H1524.4 M1524.4,243.5h-13.6c-8.3,0-15.1,5.5-15.1,12.2v0c0,6.7,6.8,12.2,15.1,12.2h13.6c8.3,0,15.1-5.5,15.1-12.2v0
			C1539.5,249,1532.7,243.5,1524.4,243.5L1524.4,243.5z"/>
	</g>
	<g class="st0">
		<path class="st1" d="M1468.4,244.7c7.5,0,13.6,4.9,13.6,11c0,6-6.1,11-13.6,11h-13.6c-7.5,0-13.6-4.9-13.6-11c0-6,6.1-11,13.6-11
			H1468.4 M1468.4,243.5h-13.6c-8.3,0-15.1,5.5-15.1,12.2v0c0,6.7,6.8,12.2,15.1,12.2h13.6c8.3,0,15.1-5.5,15.1-12.2v0
			C1483.4,249,1476.7,243.5,1468.4,243.5L1468.4,243.5z"/>
	</g>
	<g class="st0">
		<path class="st1" d="M1412.3,244.7c7.5,0,13.6,4.9,13.6,11c0,6-6.1,11-13.6,11h-29c-7.5,0-13.6-4.9-13.6-11c0-6,6.1-11,13.6-11
			H1412.3 M1412.3,243.5h-29c-8.3,0-15.1,5.5-15.1,12.2v0c0,6.7,6.8,12.2,15.1,12.2h29c8.3,0,15.1-5.5,15.1-12.2v0
			C1427.4,249,1420.6,243.5,1412.3,243.5L1412.3,243.5z"/>
	</g>
	<g class="st0">
		<path class="st1" d="M1340.9,244.7c7.5,0,13.6,4.9,13.6,11c0,6-6.1,11-13.6,11h-46.5c-7.5,0-13.6-4.9-13.6-11c0-6,6.1-11,13.6-11
			H1340.9 M1340.9,243.5h-46.5c-8.3,0-15.1,5.5-15.1,12.2v0c0,6.7,6.8,12.2,15.1,12.2h46.5c8.3,0,15.1-5.5,15.1-12.2v0
			C1356,249,1349.2,243.5,1340.9,243.5L1340.9,243.5z"/>
	</g>
	<g class="st0">
		<path class="st1" d="M1252,244.7c7.5,0,13.6,4.9,13.6,11c0,6-6.1,11-13.6,11h-56.2c-7.5,0-13.6-4.9-13.6-11c0-6,6.1-11,13.6-11
			H1252 M1252,243.5h-56.2c-8.3,0-15.1,5.5-15.1,12.2v0c0,6.7,6.8,12.2,15.1,12.2h56.2c8.3,0,15.1-5.5,15.1-12.2v0
			C1267.1,249,1260.3,243.5,1252,243.5L1252,243.5z"/>
	</g>
</g>
<g>
	<g class="st0">
		<path class="st1" d="M1524.8,311.3c7.5,0,13.6,4.9,13.6,11c0,6-6.1,11-13.6,11h-13.6c-7.5,0-13.6-4.9-13.6-11c0-6,6.1-11,13.6-11
			H1524.8 M1524.8,310h-13.6c-8.3,0-15.1,5.5-15.1,12.2s6.8,12.2,15.1,12.2h13.6c8.3,0,15.1-5.5,15.1-12.2S1533.1,310,1524.8,310
			L1524.8,310z"/>
	</g>
	<g class="st0">
		<path class="st1" d="M1468.7,311.3c7.5,0,13.6,4.9,13.6,11c0,6-6.1,11-13.6,11h-13.6c-7.5,0-13.6-4.9-13.6-11c0-6,6.1-11,13.6-11
			H1468.7 M1468.7,310h-13.6c-8.3,0-15.1,5.5-15.1,12.2s6.8,12.2,15.1,12.2h13.6c8.3,0,15.1-5.5,15.1-12.2S1477,310,1468.7,310
			L1468.7,310z"/>
	</g>
	<g class="st0">
		<path class="st1" d="M1412.7,311.3c7.5,0,13.6,4.9,13.6,11c0,6-6.1,11-13.6,11h-29c-7.5,0-13.6-4.9-13.6-11c0-6,6.1-11,13.6-11
			H1412.7 M1412.7,310h-29c-8.3,0-15.1,5.5-15.1,12.2s6.8,12.2,15.1,12.2h29c8.3,0,15.1-5.5,15.1-12.2S1421,310,1412.7,310
			L1412.7,310z"/>
	</g>
	<g class="st0">
		<path class="st1" d="M1341.2,311.3c7.5,0,13.6,4.9,13.6,11c0,6-6.1,11-13.6,11h-46.5c-7.5,0-13.6-4.9-13.6-11c0-6,6.1-11,13.6-11
			H1341.2 M1341.2,310h-46.5c-8.3,0-15.1,5.5-15.1,12.2s6.8,12.2,15.1,12.2h46.5c8.3,0,15.1-5.5,15.1-12.2S1349.5,310,1341.2,310
			L1341.2,310z"/>
	</g>
	<g class="st0">
		<path class="st1" d="M1252.3,311.3c7.5,0,13.6,4.9,13.6,11c0,6-6.1,11-13.6,11h-56.2c-7.5,0-13.6-4.9-13.6-11c0-6,6.1-11,13.6-11
			H1252.3 M1252.3,310h-56.2c-8.3,0-15.1,5.5-15.1,12.2s6.8,12.2,15.1,12.2h56.2c8.3,0,15.1-5.5,15.1-12.2S1260.6,310,1252.3,310
			L1252.3,310z"/>
	</g>
</g>
<g>
	<g class="st0">
		<path class="st1" d="M1525.9,377.8c7.5,0,13.6,4.9,13.6,11c0,6-6.1,11-13.6,11h-13.6c-7.5,0-13.6-4.9-13.6-11c0-6,6.1-11,13.6-11
			H1525.9 M1525.9,376.6h-13.6c-8.3,0-15.1,5.5-15.1,12.2s6.8,12.2,15.1,12.2h13.6c8.3,0,15.1-5.5,15.1-12.2
			S1534.2,376.6,1525.9,376.6L1525.9,376.6z"/>
	</g>
	<g class="st0">
		<path class="st1" d="M1469.9,377.8c7.5,0,13.6,4.9,13.6,11c0,6-6.1,11-13.6,11h-13.6c-7.5,0-13.6-4.9-13.6-11c0-6,6.1-11,13.6-11
			H1469.9 M1469.9,376.6h-13.6c-8.3,0-15.1,5.5-15.1,12.2s6.8,12.2,15.1,12.2h13.6c8.3,0,15.1-5.5,15.1-12.2
			S1478.2,376.6,1469.9,376.6L1469.9,376.6z"/>
	</g>
	<g class="st0">
		<path class="st1" d="M1413.8,377.8c7.5,0,13.6,4.9,13.6,11c0,6-6.1,11-13.6,11h-29c-7.5,0-13.6-4.9-13.6-11c0-6,6.1-11,13.6-11
			H1413.8 M1413.8,376.6h-29c-8.3,0-15.1,5.5-15.1,12.2s6.8,12.2,15.1,12.2h29c8.3,0,15.1-5.5,15.1-12.2S1422.1,376.6,1413.8,376.6
			L1413.8,376.6z"/>
	</g>
	<g class="st0">
		<path class="st1" d="M1342.4,377.8c7.5,0,13.6,4.9,13.6,11c0,6-6.1,11-13.6,11H1296c-7.5,0-13.6-4.9-13.6-11c0-6,6.1-11,13.6-11
			H1342.4 M1342.4,376.6H1296c-8.3,0-15.1,5.5-15.1,12.2s6.8,12.2,15.1,12.2h46.5c8.3,0,15.1-5.5,15.1-12.2
			S1350.7,376.6,1342.4,376.6L1342.4,376.6z"/>
	</g>
	<g class="st0">
		<path class="st1" d="M1253.5,377.8c7.5,0,13.6,4.9,13.6,11c0,6-6.1,11-13.6,11h-56.2c-7.5,0-13.6-4.9-13.6-11c0-6,6.1-11,13.6-11
			H1253.5 M1253.5,376.6h-56.2c-8.3,0-15.1,5.5-15.1,12.2s6.8,12.2,15.1,12.2h56.2c8.3,0,15.1-5.5,15.1-12.2
			S1261.8,376.6,1253.5,376.6L1253.5,376.6z"/>
	</g>
</g>
<g class="st0">
	<polygon class="st1" points="1181,521.8 1182.3,527.3 1010.3,612.4 1009.7,609.6 997.5,612.5 998.2,615.7 771.2,632.9 770,627.8 
		757.8,630.8 759.4,637.3 687.6,689.2 687.2,687.6 676.4,690.2 623.5,666 621.3,657.1 609.1,660.1 610.5,665.9 435.7,749.3 
		434.9,746.1 422.7,749.1 425.3,759.7 367.6,869.6 358.2,871.9 361.1,884.1 373.3,881.1 370.7,870.4 428.5,760.6 437.9,758.3 
		436.5,752.5 611.3,669.1 612.1,672.3 623.4,669.5 675.7,693.4 678,702.7 690.2,699.8 688.4,692.6 760.2,640.7 760.7,643 772.9,640 
		772,636.1 999,618.9 1000.4,624.7 1012.6,621.8 1011.1,615.6 1183.1,530.5 1183.9,534 1196.1,531 1193.2,518.8 	"/>
	<polygon class="st1" points="1147.5,700.4 1148.4,700.2 1128.3,761.8 1119.8,763.8 1120.3,766.1 999.9,758.4 998.5,752.3 
		986.3,755.3 987.9,762 889.9,828.4 889.3,826.2 877.1,829.2 878.1,833.1 816.1,843.2 814.8,837.6 802.6,840.6 804.2,847.4 
		720.6,891.4 719.7,887.7 707.5,890.7 707.8,891.8 537.3,843.5 535.3,835.5 523.1,838.4 525.9,850 496.9,901.6 486.1,904.2 
		489,916.4 501.2,913.4 499,904.4 529.8,849.7 538.3,847.7 538.1,847.1 708.6,895.4 710.5,902.9 722.7,899.9 721.4,894.7 805,850.6 
		805.5,852.8 817.7,849.8 816.9,846.3 878.8,836.2 880.1,841.4 892.3,838.4 890.7,831.8 988.7,765.4 989.2,767.5 1001.4,764.5 
		1000.7,761.7 1121.1,769.4 1122.7,776 1134.9,773.1 1132,760.9 1131.9,760.9 1152.1,699.3 1159.7,697.5 1156.8,685.3 1144.6,688.2 
			"/>
</g>
<path class="st2" d="M1196.7,635c-1.1,0.3-2,0.8-2.8,1.5l-89.2-92c1.3-1.5,1.9-3.6,1.4-5.7c-0.8-3.5-4.3-5.6-7.8-4.7
	s-5.6,4.3-4.7,7.8c0.6,2.7,2.9,4.6,5.5,4.9l-15.3,88.7c-0.9-0.2-1.9-0.2-2.9,0c-3.5,0.8-5.6,4.3-4.7,7.8c0.6,2.4,2.5,4.2,4.7,4.7
	l-22.5,75.7c-1.1-0.4-2.4-0.5-3.7-0.2c-0.4,0.1-0.7,0.2-1.1,0.4L968,578.2c2-1.5,3-4.1,2.4-6.6c-0.8-3.5-4.3-5.6-7.8-4.7
	c-3.5,0.8-5.6,4.3-4.7,7.8c0.8,3.5,4.3,5.6,7.8,4.7c0.1,0,0.2-0.1,0.3-0.1l66,246.9c-1.2,0.3-2.2,0.9-3,1.7l-83.7-71.8
	c1.1-1.5,1.5-3.4,1.1-5.3c-0.8-3.5-4.3-5.6-7.8-4.7c-0.3,0.1-0.5,0.1-0.8,0.2L851.5,583c1.7-1.5,2.5-3.9,1.9-6.3
	c-0.8-3.5-4.3-5.6-7.8-4.7s-5.6,4.3-4.7,7.8c0.7,2.8,3.1,4.7,5.8,4.9l1.1,135c-0.6,0-1.1,0-1.7,0.2c-3.5,0.8-5.6,4.3-4.7,7.8
	c0.7,3.1,3.6,5.1,6.6,4.9l2,137.9c-0.5,0-1,0-1.6,0.2L787,706.3c2.5-1.4,3.9-4.3,3.2-7.2c-0.8-3.5-4.3-5.6-7.8-4.7
	c-3.5,0.8-5.6,4.3-4.7,7.8c0.6,2.7,2.9,4.5,5.4,4.9l-19.9,111.5c-0.4,0-0.8,0-1.2,0.1l-33.5-211.8c0.2,0,0.5-0.1,0.7-0.1
	c3.5-0.8,5.6-4.3,4.7-7.8s-4.3-5.6-7.8-4.7c-3.5,0.8-5.6,4.3-4.7,7.8c0.6,2.3,2.3,4,4.4,4.7L709,746.5c-0.4,0-0.8,0.1-1.2,0.2
	c-0.5,0.1-1,0.3-1.4,0.5l-76.6-148.7c2.4-1.4,3.6-4.2,3-7c-0.8-3.5-4.3-5.6-7.8-4.7c-3.5,0.8-5.6,4.3-4.7,7.8
	c0.7,2.8,3.1,4.7,5.8,4.9l-1.9,216.3c-0.4,0-0.8,0.1-1.2,0.2c-1.3,0.3-2.3,1-3.2,1.8L564.7,772c1.1-1.5,1.5-3.4,1.1-5.3
	c-0.8-3.5-4.3-5.6-7.8-4.7c-3.5,0.8-5.6,4.3-4.7,7.8c0.6,2.5,2.6,4.3,5,4.8L541,897.8c-0.7-0.1-1.3,0-2,0.2
	c-0.2,0.1-0.5,0.1-0.7,0.2L420.6,626c2.6-1.3,4.1-4.3,3.3-7.3c-0.8-3.5-4.3-5.6-7.8-4.7c-3.5,0.8-5.6,4.3-4.7,7.8
	c0.7,3,3.4,5,6.4,4.9l20.7,246.4c-1.4,0.3-2.6,1.1-3.4,2.1l-156-116.2c0.9-1.4,1.3-3.2,0.9-5c-0.8-3.5-4.3-5.6-7.8-4.7
	s-5.6,4.3-4.7,7.8c0.8,3.5,4.3,5.6,7.8,4.7c0.1,0,0.3-0.1,0.4-0.1L318,975.8c-0.2,0.1-0.4,0.2-0.6,0.3l-77.9-176.4
	c2-1.5,3-4.1,2.3-6.6c-0.8-3.5-4.3-5.6-7.8-4.7c-3.5,0.8-5.6,4.3-4.7,7.8s4.3,5.6,7.8,4.7c0.6-0.2,1.2-0.4,1.7-0.7l77.9,176.4
	c-2,1.5-3,4.1-2.3,6.6c0.8,3.5,4.3,5.6,7.8,4.7s5.6-4.3,4.7-7.8c-0.8-3.5-4.3-5.6-7.8-4.7c-0.1,0-0.3,0.1-0.4,0.1l-42.4-214.1
	c0.9-0.4,1.7-1,2.3-1.7l156,116.2c-0.9,1.4-1.3,3.2-0.8,5c0.8,3.5,4.3,5.6,7.8,4.7c3.5-0.8,5.6-4.3,4.7-7.8c-0.8-3.2-3.8-5.3-7-4.9
	l-20.7-246.4c0.2,0,0.4-0.1,0.6-0.1c0.2-0.1,0.5-0.1,0.7-0.2l117.7,272.2c-2.6,1.3-4.1,4.3-3.3,7.3c0.8,3.5,4.3,5.6,7.8,4.7
	s5.6-4.3,4.7-7.8c-0.6-2.5-2.6-4.3-5-4.8L559,774.6c0.7,0.1,1.3,0,2-0.2c1.3-0.3,2.3-1,3.2-1.8l55.1,45.7c-1.1,1.5-1.5,3.4-1.1,5.3
	c0.8,3.5,4.3,5.6,7.8,4.7c3.5-0.8,5.6-4.3,4.7-7.8c-0.7-2.8-3.1-4.7-5.8-4.9l1.9-216.3c0.4,0,0.8-0.1,1.2-0.2
	c0.4-0.1,0.7-0.2,1.1-0.4l76.7,148.8c-2.1,1.5-3.3,4.2-2.6,6.8c0.8,3.5,4.3,5.6,7.8,4.7c3.5-0.8,5.6-4.3,4.7-7.8
	c-0.7-2.8-3.1-4.7-5.8-4.9l16.8-139.7c0.4,0.1,0.7,0.1,1.1,0.1l33.5,211.9c-3.2,1-5.1,4.3-4.3,7.6c0.8,3.5,4.3,5.6,7.8,4.7
	c3.5-0.8,5.6-4.3,4.7-7.8c-0.6-2.7-2.9-4.5-5.4-4.9L784,707.1c0.5,0,1-0.1,1.5-0.2c0.3-0.1,0.5-0.2,0.8-0.3l61.3,164.2
	c-3.1,1.1-4.8,4.3-4.1,7.6c0.8,3.5,4.3,5.6,7.8,4.7c3.5-0.8,5.6-4.3,4.7-7.8c-0.6-2.6-2.8-4.5-5.3-4.9l-2-138.1c0.1,0,0.3,0,0.4-0.1
	c3.5-0.8,5.6-4.3,4.7-7.8c-0.6-2.6-2.8-4.5-5.3-4.8l-1.1-135.1c0.4,0,0.8-0.1,1.1-0.2c0.8-0.2,1.5-0.5,2.2-1l86.2,163.2
	c-2.5,1.3-3.9,4.3-3.2,7.2c0.8,3.5,4.3,5.6,7.8,4.7c1.3-0.3,2.4-1,3.2-1.9l83.6,71.8c-1.2,1.5-1.7,3.5-1.2,5.5
	c0.8,3.5,4.3,5.6,7.8,4.7c3.5-0.8,5.6-4.3,4.7-7.8c-0.8-3.2-3.8-5.3-7-4.9L966.6,579c0.2-0.1,0.5-0.2,0.7-0.3l85.5,145.6
	c-2.4,1.4-3.6,4.2-3,7c0.8,3.5,4.3,5.6,7.8,4.7s5.6-4.3,4.7-7.8c-0.5-1.9-1.7-3.4-3.4-4.2l22.6-75.9c0.7,0.1,1.5,0,2.2-0.1
	c3.5-0.8,5.6-4.3,4.7-7.8c-0.5-2.2-2.1-3.8-4.1-4.5l15.3-88.9c0.5,0,1-0.1,1.5-0.2c1.1-0.3,2-0.8,2.8-1.5l89.2,92
	c-1.3,1.5-1.9,3.6-1.4,5.7c0.8,3.5,4.3,5.6,7.8,4.7c3.5-0.8,5.6-4.3,4.7-7.8C1203.6,636.3,1200.1,634.2,1196.7,635z"/>
<path class="st2" d="M1280.1,623.9c-1.1,0.3-2.1,0.7-2.9,1.3l-81.9-61.6c1.4-1.2,2.1-2.8,1.7-4.3c-0.6-2.5-3.9-3.8-7.3-3
	c-3.5,0.8-5.8,3.5-5.2,6c0.5,1.9,2.5,3.1,5.1,3.2l-20.8,66c-0.9-0.1-1.9,0-2.9,0.2c-3.5,0.8-5.8,3.5-5.2,6c0.4,1.7,2.2,2.9,4.4,3.2
	l-27.1,56.9c-1.1-0.2-2.3-0.2-3.6,0.1c-0.4,0.1-0.7,0.2-1.1,0.3l-74.8-101.2c2-1.2,3.2-3.2,2.8-5c-0.6-2.5-3.9-3.8-7.3-3
	c-3.5,0.8-5.8,3.5-5.2,6c0.6,2.5,3.9,3.8,7.3,3c0.1,0,0.2-0.1,0.3-0.1l49,176.6c-1.2,0.3-2.2,0.8-3,1.4l-77.7-47.2
	c1.1-1.1,1.7-2.6,1.4-3.9c-0.6-2.5-3.9-3.8-7.3-3c-0.3,0.1-0.5,0.1-0.8,0.2l-74.4-114.1c1.8-1.2,2.7-3,2.3-4.7
	c-0.6-2.5-3.9-3.8-7.3-3c-3.5,0.8-5.8,3.5-5.2,6c0.5,2,2.7,3.3,5.4,3.2l-7.7,98.8c-0.6,0-1.1,0.1-1.7,0.2c-3.5,0.8-5.8,3.5-5.2,6
	c0.5,2.2,3.2,3.5,6.2,3.2l-6.9,100.9c-0.5,0-1,0.1-1.5,0.2l-49.8-116.4c2.6-1.2,4.1-3.4,3.6-5.5c-0.6-2.5-3.9-3.8-7.3-3
	s-5.8,3.5-5.2,6c0.5,1.9,2.5,3.1,5,3.2l-26.8,83c-0.4,0-0.8,0.1-1.2,0.2l-19.3-152.9c0.2,0,0.5-0.1,0.7-0.1c3.5-0.8,5.8-3.5,5.2-6
	c-0.6-2.5-3.9-3.8-7.3-3c-3.5,0.8-5.8,3.5-5.2,6c0.4,1.7,2,2.8,4,3.1l-25.6,103.5c-0.4,0-0.8,0.1-1.2,0.2c-0.5,0.1-1,0.3-1.4,0.5
	l-65.8-104c2.4-1.2,3.9-3.3,3.4-5.4c-0.6-2.5-3.9-3.8-7.3-3s-5.8,3.5-5.2,6c0.5,2,2.7,3.3,5.4,3.2l-15.9,158.5
	c-0.4,0-0.8,0.1-1.2,0.2c-1.3,0.3-2.4,0.9-3.2,1.6l-51.2-29.9c1.2-1.2,1.7-2.6,1.4-4c-0.6-2.5-3.9-3.8-7.3-3s-5.8,3.5-5.2,6
	c0.4,1.8,2.3,3,4.6,3.2l-24.9,91.4c-0.6,0-1.3,0.1-2,0.2c-0.2,0.1-0.5,0.1-0.7,0.2l-98.3-191.8c2.6-1.1,4.3-3.4,3.8-5.5
	c-0.6-2.5-3.9-3.8-7.3-3c-3.5,0.8-5.8,3.5-5.2,6c0.5,2.1,3.1,3.4,6,3.2l4.4,179.2c-1.4,0.3-2.6,1-3.5,1.8l-146-75
	c1-1.1,1.5-2.5,1.2-3.7c-0.6-2.5-3.9-3.8-7.3-3c-3.5,0.8-5.8,3.5-5.2,6c0.6,2.5,3.9,3.8,7.3,3c0.1,0,0.3-0.1,0.4-0.1l27.9,154.1
	c-0.2,0.1-0.4,0.2-0.6,0.3l-65.2-124.2c2-1.2,3.2-3.2,2.7-5c-0.6-2.5-3.9-3.8-7.3-3c-3.5,0.8-5.8,3.5-5.2,6c0.6,2.5,3.9,3.8,7.3,3
	c0.6-0.2,1.2-0.4,1.7-0.6L391.9,931c-2,1.2-3.2,3.2-2.7,5c0.6,2.5,3.9,3.8,7.3,3s5.8-3.5,5.2-6c-0.6-2.5-3.9-3.8-7.3-3
	c-0.1,0-0.3,0.1-0.4,0.1L366,776c0.9-0.4,1.7-0.8,2.3-1.4l146.1,75c-1,1.1-1.4,2.4-1.1,3.7c0.6,2.5,3.9,3.8,7.3,3
	c3.5-0.8,5.8-3.5,5.2-6c-0.6-2.3-3.4-3.6-6.6-3.1l-4.4-179.1c0.2,0,0.4-0.1,0.6-0.1c0.2-0.1,0.5-0.1,0.7-0.2l98.3,191.8
	c-2.6,1.1-4.3,3.4-3.8,5.5c0.6,2.5,3.9,3.8,7.3,3c3.5-0.8,5.8-3.5,5.2-6c-0.4-1.8-2.3-3-4.6-3.2l24.9-91.4c0.6,0,1.3-0.1,2-0.2
	c1.3-0.3,2.4-0.9,3.2-1.6l51.2,29.9c-1.2,1.2-1.7,2.6-1.4,4c0.6,2.5,3.9,3.8,7.3,3c3.5-0.8,5.8-3.5,5.2-6c-0.5-2-2.7-3.3-5.4-3.2
	l15.9-158.5c0.4,0,0.8-0.1,1.2-0.2c0.4-0.1,0.7-0.2,1.1-0.3l65.8,104c-2.2,1.2-3.5,3.3-3,5.2c0.6,2.5,3.9,3.8,7.3,3
	c3.5-0.8,5.8-3.5,5.2-6c-0.5-2-2.7-3.2-5.4-3.2l25.6-103.4c0.3,0,0.7,0,1.1,0l19.3,153c-3.2,1-5.3,3.5-4.7,5.9
	c0.6,2.5,3.9,3.8,7.3,3c3.5-0.8,5.8-3.5,5.2-6c-0.5-1.9-2.5-3.1-5-3.2l26.8-83c0.5,0,1-0.1,1.5-0.2c0.3-0.1,0.5-0.1,0.8-0.2
	l49.7,116.3c-3.1,1-5.1,3.5-4.5,5.8c0.6,2.5,3.9,3.8,7.3,3c3.5-0.8,5.8-3.5,5.2-6c-0.5-1.9-2.5-3.1-4.9-3.2l6.9-101
	c0.1,0,0.2,0,0.4-0.1c3.5-0.8,5.8-3.5,5.2-6c-0.5-1.9-2.4-3.1-4.9-3.2l7.7-98.9c0.4,0,0.8-0.1,1.1-0.2c0.8-0.2,1.5-0.5,2.2-0.9
	l74.3,113.9c-2.6,1.2-4.2,3.4-3.7,5.5c0.6,2.5,3.9,3.8,7.3,3c1.3-0.3,2.4-0.9,3.3-1.6l77.7,47.2c-1.3,1.2-1.9,2.7-1.5,4.1
	c0.6,2.5,3.9,3.8,7.3,3s5.8-3.5,5.2-6c-0.6-2.3-3.4-3.6-6.6-3.1l-49-176.7c0.2-0.1,0.5-0.2,0.7-0.3l74.7,101.1
	c-2.4,1.2-3.9,3.3-3.4,5.4c0.6,2.5,3.9,3.8,7.3,3c3.5-0.8,5.8-3.5,5.2-6c-0.3-1.4-1.5-2.4-3-2.9l27.1-57.1c0.7,0,1.5-0.1,2.2-0.2
	c3.5-0.8,5.8-3.5,5.2-6c-0.4-1.6-1.8-2.7-3.7-3.1l20.8-66.1c0.5,0,1-0.1,1.5-0.2c1.1-0.3,2.1-0.7,2.9-1.3l81.9,61.6
	c-1.4,1.2-2.1,2.8-1.7,4.3c0.6,2.5,3.9,3.8,7.3,3c3.5-0.8,5.8-3.5,5.2-6C1286.9,624.4,1283.6,623.1,1280.1,623.9z"/>
<polygon class="st2" points="923,389.7 909.5,385.1 909.5,389.2 900.7,389.2 900.7,247 894,247 894,389.2 852.8,389.2 852.8,217.9 
	846,217.9 846,389.2 804.8,389.2 804.8,140.5 798.1,140.5 798.1,389.2 756.9,389.2 756.9,101.8 750.1,101.8 750.1,389.2 
	708.9,389.2 708.9,324.4 702.1,324.4 702.1,389.2 661,389.2 661,181.2 654.2,181.2 654.2,389.2 613,389.2 613,205.4 606.2,205.4 
	606.2,389.2 565.1,389.2 565.1,165.7 558.3,165.7 558.3,389.2 517.1,389.2 517.1,176.3 510.3,176.3 510.3,389.2 469.1,389.2 
	469.1,114.4 462.4,114.4 462.4,389.2 453.2,389.2 453.2,92.8 536.8,144.5 537.2,144.8 592.6,128.8 628.9,153.2 654.5,144.8 
	702,194.2 748.4,69.1 795.9,112.1 843.8,166.1 891.4,189.5 915.9,192.9 916.2,191.4 892.1,188 845.1,165 797.5,111.2 747.5,66 
	701.3,190.9 655.2,143 629.2,151.4 593,127.1 537.6,143.1 453.2,90.9 453.2,81 456.6,81 452,67.5 447.4,81 451.2,81 451.2,89.7 
	431,77.2 429.8,78.4 451.2,91.6 451.2,391.2 909.5,391.2 909.5,394.3 "/>
<g>
	<linearGradient id="SVGID_1_" gradientUnits="userSpaceOnUse" x1="613.1306" y1="529.3527" x2="33.1306" y2="517.3527">
		<stop  offset="0" style="stop-color:#52C1E9;stop-opacity:0"/>
		<stop  offset="1" style="stop-color:#52C1E9"/>
	</linearGradient>
	<polygon class="st3" points="788,1021.5 170.5,1021.5 170.5,881.9 98.2,809.6 48.5,780.6 48.5,499.1 104.5,443.1 104.5,34.5 
		925,34.5 925,43.5 113.5,43.5 113.5,446.9 57.5,502.9 57.5,775.4 103.8,802.4 104.2,802.8 179.5,878.1 179.5,1012.5 788,1012.5 	
		"/>
</g>
<g>
	<linearGradient id="SVGID_2_" gradientUnits="userSpaceOnUse" x1="1219" y1="526" x2="1955" y2="526">
		<stop  offset="0" style="stop-color:#52C1E9;stop-opacity:0"/>
		<stop  offset="1" style="stop-color:#52C1E9"/>
	</linearGradient>
	<polygon class="st4" points="1871.5,1021 1229,1021 1229,1012 1862.5,1012 1862.5,743.9 1828,709.4 1828,571.5 1857,509.5 1857,40 
		1734.4,40 1696.4,78 1439.6,78 1404.6,43 1154.5,43 1154.5,34 1408.4,34 1443.4,69 1692.6,69 1730.6,31 1866,31 1866,511.5 
		1837,573.5 1837,705.6 1871.5,740.1 	"/>
</g>
<g>
	
		<image style="overflow:visible;opacity:0.95;" width="326" height="242" xlink:href="57466774.png"  transform="matrix(0.24 0 0 0.24 69.96 45.96)">
	</image>
	<g>
		<path class="st1" d="M119,83H99c-4.4,0-8-3.6-8-8v0c0-4.4,3.6-8,8-8h20c4.4,0,8,3.6,8,8v0C127,79.4,123.4,83,119,83z"/>
	</g>
</g>
<g>
	
		<image style="overflow:visible;opacity:0.95;" width="326" height="243" xlink:href="5746677C.png"  transform="matrix(0.24 0 0 0.24 69.96 90.84)">
	</image>
	<g>
		<path class="st1" d="M119,128H99c-4.4,0-8-3.6-8-8v0c0-4.4,3.6-8,8-8h20c4.4,0,8,3.6,8,8v0C127,124.4,123.4,128,119,128z"/>
	</g>
</g>
<g>
	
		<image style="overflow:visible;opacity:0.95;" width="326" height="243" xlink:href="5746677D.png"  transform="matrix(0.24 0 0 0.24 69.96 135.88)">
	</image>
	<g>
		<path class="st1" d="M119,173H99c-4.4,0-8-3.6-8-8v0c0-4.4,3.6-8,8-8h20c4.4,0,8,3.6,8,8v0C127,169.4,123.4,173,119,173z"/>
	</g>
</g>
<g>
	
		<image style="overflow:visible;opacity:0.95;" width="326" height="242" xlink:href="5746677F.png"  transform="matrix(0.24 0 0 0.24 1826.96 789.96)">
	</image>
	<g>
		<path class="st1" d="M1876,827h-20c-4.4,0-8-3.6-8-8l0,0c0-4.4,3.6-8,8-8h20c4.4,0,8,3.6,8,8l0,0C1884,823.4,1880.4,827,1876,827z
			"/>
	</g>
</g>
<g>
	
		<image style="overflow:visible;opacity:0.95;" width="325" height="243" xlink:href="5746677B.png"  transform="matrix(0.24 0 0 0.24 1827 833.64)">
	</image>
	<g>
		<path class="st1" d="M1876,870.8h-20c-4.4,0-8-3.6-8-8l0,0c0-4.4,3.6-8,8-8h20c4.4,0,8,3.6,8,8l0,0
			C1884,867.2,1880.4,870.8,1876,870.8z"/>
	</g>
</g>
<g>
	
		<image style="overflow:visible;opacity:0.95;" width="325" height="243" xlink:href="57466768.png"  transform="matrix(0.24 0 0 0.24 1827 877.32)">
	</image>
	<g>
		<path class="st1" d="M1876,914.5h-20c-4.4,0-8-3.6-8-8l0,0c0-4.4,3.6-8,8-8h20c4.4,0,8,3.6,8,8l0,0
			C1884,910.9,1880.4,914.5,1876,914.5z"/>
	</g>
</g>
<g>
	
		<image style="overflow:visible;opacity:0.95;" width="325" height="242" xlink:href="57466769.png"  transform="matrix(0.24 0 0 0.24 1827 921.24)">
	</image>
	<g>
		<path class="st1" d="M1876,958.3h-20c-4.4,0-8-3.6-8-8l0,0c0-4.4,3.6-8,8-8h20c4.4,0,8,3.6,8,8l0,0
			C1884,954.7,1880.4,958.3,1876,958.3z"/>
	</g>
</g>
<g>
	
		<image style="overflow:visible;opacity:0.95;" width="326" height="243" xlink:href="5746676A.png"  transform="matrix(0.24 0 0 0.24 1826.96 964.88)">
	</image>
	<g>
		<path class="st1" d="M1876,1002h-20c-4.4,0-8-3.6-8-8l0,0c0-4.4,3.6-8,8-8h20c4.4,0,8,3.6,8,8l0,0
			C1884,998.4,1880.4,1002,1876,1002z"/>
	</g>
</g>
<g class="st0">
	<path class="st1" d="M1790.1,343l-32.2,32.2h-53.5c-0.7-4.3-4.4-7.5-8.9-7.5c-5,0-9,4-9,9s4,9,9,9c4.5,0,8.1-3.2,8.9-7.5h54.8
		l32.2-32.2h66.3v-3H1790.1z"/>
	<polygon class="st1" points="1825.6,452.9 1807.9,452.9 1807.9,470.5 1825.6,470.5 1825.6,463.2 1857.6,463.2 1857.6,460.2 
		1825.6,460.2 	"/>
	<polygon class="st1" points="1806.9,422.8 1755.6,422.8 1755.6,415.4 1737.9,415.4 1737.9,433.1 1755.6,433.1 1755.6,425.8 
		1809.9,425.8 1809.9,383.4 1857.6,383.4 1857.6,380.4 1806.9,380.4 	"/>
	<polygon class="st1" points="1691.5,539.4 1675.9,539.4 1675.9,557 1693.6,557 1693.6,541.5 1740.9,494.2 1860.6,494.2 
		1860.6,491.2 1739.7,491.2 	"/>
	<path class="st1" d="M1790.4,527.9h-24.1c-0.7-4.3-4.4-7.5-8.9-7.5c-5,0-9,4-9,9c0,5,4,9,9,9c4.5,0,8.1-3.2,8.9-7.5h21.1v22.3h51.1
		v-3h-48.1V527.9z"/>
	<path class="st1" d="M1724.3,604h-41.8c-0.7-4.3-4.4-7.5-8.9-7.5c-5,0-9,4-9,9s4,9,9,9c4.5,0,8.1-3.2,8.9-7.5h44.8v-26.5h104.3v-3
		h-107.3V604z"/>
	<polygon class="st1" points="1768.4,632.7 1747.3,632.7 1747.3,625.4 1729.6,625.4 1729.6,643 1747.3,643 1747.3,635.7 
		1767.2,635.7 1790.1,658.6 1831.6,658.6 1831.6,655.6 1791.3,655.6 	"/>
	<path class="st1" d="M1789.7,685.2c1-1.5,1.7-3.3,1.7-5.2c0-5-4-9-9-9s-9,4-9,9c0,5,4,9,9,9c1.9,0,3.7-0.6,5.2-1.7l14.7,14.7h29.7
		v-3h-28.5L1789.7,685.2z"/>
	<polygon class="st1" points="1738.4,710.2 1716.8,710.2 1716.8,702.9 1699.1,702.9 1699.1,720.5 1716.8,720.5 1716.8,713.2 
		1737.2,713.2 1753.3,729.4 1848.6,729.4 1848.6,726.4 1754.6,726.4 	"/>
	<path class="st1" d="M1766.1,750h-66.5c-0.7-4.3-4.4-7.5-8.9-7.5c-5,0-9,4-9,9s4,9,9,9c4.5,0,8.1-3.2,8.9-7.5h63.5v20.3h103.4v-3
		h-100.4V750z"/>
</g>
<g class="st0">
	<path class="st1" d="M124.5,744.3l32.2-32.2h53.5c0.7,4.3,4.4,7.5,8.9,7.5c5,0,9-4,9-9s-4-9-9-9c-4.5,0-8.1,3.2-8.9,7.5h-54.8
		l-32.2,32.2H57v3H124.5z"/>
	<polygon class="st1" points="88.9,662.4 106.6,662.4 106.6,644.8 88.9,644.8 88.9,652.1 57,652.1 57,655.1 88.9,655.1 	"/>
	<polygon class="st1" points="107.6,676.6 158.9,676.6 158.9,683.9 176.6,683.9 176.6,666.2 158.9,666.2 158.9,673.6 104.6,673.6 
		104.6,715.9 57,715.9 57,718.9 107.6,718.9 	"/>
	<polygon class="st1" points="226.1,566.9 241.6,566.9 241.6,549.3 223.9,549.3 223.9,564.8 176.6,612.1 57,612.1 57,615.1 
		177.9,615.1 	"/>
	<path class="st1" d="M105.1,587.4h24.1c0.7,4.3,4.4,7.5,8.9,7.5c5,0,9-4,9-9c0-5-4-9-9-9c-4.5,0-8.1,3.2-8.9,7.5h-21.1v-22.3H57v3
		h48.1V587.4z"/>
	<path class="st1" d="M164.3,511.3h41.8c0.7,4.3,4.4,7.5,8.9,7.5c5,0,9-4,9-9s-4-9-9-9c-4.5,0-8.1,3.2-8.9,7.5h-44.8v26.5H57v3
		h107.3V511.3z"/>
	<polygon class="st1" points="161.1,482.6 182.3,482.6 182.3,489.9 199.9,489.9 199.9,472.3 182.3,472.3 182.3,479.6 162.4,479.6 
		139.5,456.7 98,456.7 98,459.7 138.2,459.7 	"/>
	<path class="st1" d="M107.3,507.8c-1,1.5-1.7,3.3-1.7,5.2c0,5,4,9,9,9s9-4,9-9c0-5-4-9-9-9c-1.9,0-3.7,0.6-5.2,1.7L94.7,491H65v3
		h28.5L107.3,507.8z"/>
</g>
<g class="st0">
	<path class="st1" d="M1479.8,776.4L1479.8,776.4l-2.7,1.5l-0.4-1.6l3.4-1.8h1.8v15.5h-2V776.4z"/>
	<path class="st1" d="M1492,776.4L1492,776.4l-2.7,1.5l-0.4-1.6l3.4-1.8h1.8v15.5h-2V776.4z"/>
	<path class="st1" d="M1510,782c0,5.3-2,8.2-5.4,8.2c-3,0-5.1-2.8-5.1-8c0-5.2,2.2-8.1,5.4-8.1C1508.1,774.1,1510,777,1510,782z
		 M1501.6,782.2c0,4,1.2,6.3,3.1,6.3c2.1,0,3.2-2.5,3.2-6.5c0-3.8-1-6.3-3.2-6.3C1502.9,775.8,1501.6,778,1501.6,782.2z"/>
	<path class="st1" d="M1516.5,776.4L1516.5,776.4l-2.7,1.5l-0.4-1.6l3.4-1.8h1.8v15.5h-2V776.4z"/>
	<path class="st1" d="M1534.5,782c0,5.3-2,8.2-5.4,8.2c-3,0-5.1-2.8-5.1-8c0-5.2,2.2-8.1,5.4-8.1
		C1532.6,774.1,1534.5,777,1534.5,782z M1526.1,782.2c0,4,1.2,6.3,3.2,6.3c2.1,0,3.2-2.5,3.2-6.5c0-3.8-1-6.3-3.2-6.3
		C1527.4,775.8,1526.1,778,1526.1,782.2z"/>
	<path class="st1" d="M1541,776.4L1541,776.4l-2.7,1.5l-0.4-1.6l3.4-1.8h1.8v15.5h-2V776.4z"/>
	<path class="st1" d="M1559,782c0,5.3-2,8.2-5.4,8.2c-3,0-5.1-2.8-5.1-8c0-5.2,2.2-8.1,5.4-8.1C1557.1,774.1,1559,777,1559,782z
		 M1550.5,782.2c0,4,1.2,6.3,3.2,6.3c2.1,0,3.2-2.5,3.2-6.5c0-3.8-1-6.3-3.2-6.3C1551.9,775.8,1550.5,778,1550.5,782.2z"/>
	<path class="st1" d="M1565.4,776.4L1565.4,776.4l-2.7,1.5l-0.4-1.6l3.4-1.8h1.8v15.5h-2V776.4z"/>
	<path class="st1" d="M1583.4,782c0,5.3-2,8.2-5.4,8.2c-3,0-5.1-2.8-5.1-8c0-5.2,2.2-8.1,5.4-8.1
		C1581.6,774.1,1583.4,777,1583.4,782z M1575,782.2c0,4,1.2,6.3,3.1,6.3c2.1,0,3.2-2.5,3.2-6.5c0-3.8-1-6.3-3.2-6.3
		C1576.4,775.8,1575,778,1575,782.2z"/>
	<path class="st1" d="M1589.9,776.4L1589.9,776.4l-2.7,1.5l-0.4-1.6l3.4-1.8h1.8v15.5h-2V776.4z"/>
	<path class="st1" d="M1607.9,782c0,5.3-2,8.2-5.4,8.2c-3,0-5.1-2.8-5.1-8c0-5.2,2.2-8.1,5.4-8.1
		C1606.1,774.1,1607.9,777,1607.9,782z M1599.5,782.2c0,4,1.2,6.3,3.2,6.3c2.1,0,3.2-2.5,3.2-6.5c0-3.8-1-6.3-3.2-6.3
		C1600.8,775.8,1599.5,778,1599.5,782.2z"/>
	<path class="st1" d="M1614.4,776.4L1614.4,776.4l-2.7,1.5l-0.4-1.6l3.4-1.8h1.8v15.5h-2V776.4z"/>
	<path class="st1" d="M1632.4,782c0,5.3-2,8.2-5.4,8.2c-3,0-5.1-2.8-5.1-8c0-5.2,2.2-8.1,5.4-8.1
		C1630.5,774.1,1632.4,777,1632.4,782z M1624,782.2c0,4,1.2,6.3,3.2,6.3c2.1,0,3.2-2.5,3.2-6.5c0-3.8-1-6.3-3.2-6.3
		C1625.3,775.8,1624,778,1624,782.2z"/>
	<path class="st1" d="M1638.9,776.4L1638.9,776.4l-2.7,1.5l-0.4-1.6l3.4-1.8h1.8v15.5h-2V776.4z"/>
	<path class="st1" d="M1656.9,782c0,5.3-2,8.2-5.4,8.2c-3,0-5.1-2.8-5.1-8c0-5.2,2.2-8.1,5.4-8.1C1655,774.1,1656.9,777,1656.9,782z
		 M1648.4,782.2c0,4,1.2,6.3,3.1,6.3c2.1,0,3.2-2.5,3.2-6.5c0-3.8-1-6.3-3.2-6.3C1649.8,775.8,1648.4,778,1648.4,782.2z"/>
	<path class="st1" d="M1663.4,776.4L1663.4,776.4l-2.7,1.5l-0.4-1.6l3.4-1.8h1.8v15.5h-2V776.4z"/>
	<path class="st1" d="M1681.4,782c0,5.3-2,8.2-5.4,8.2c-3,0-5.1-2.8-5.1-8c0-5.2,2.2-8.1,5.4-8.1
		C1679.5,774.1,1681.4,777,1681.4,782z M1672.9,782.2c0,4,1.2,6.3,3.2,6.3c2.1,0,3.2-2.5,3.2-6.5c0-3.8-1-6.3-3.2-6.3
		C1674.3,775.8,1672.9,778,1672.9,782.2z"/>
	<path class="st1" d="M1687.8,776.4L1687.8,776.4l-2.7,1.5l-0.4-1.6l3.4-1.8h1.8v15.5h-2V776.4z"/>
	<path class="st1" d="M1705.8,782c0,5.3-2,8.2-5.4,8.2c-3,0-5.1-2.8-5.1-8c0-5.2,2.2-8.1,5.4-8.1C1704,774.1,1705.8,777,1705.8,782z
		 M1697.4,782.2c0,4,1.2,6.3,3.2,6.3c2.1,0,3.2-2.5,3.2-6.5c0-3.8-1-6.3-3.2-6.3C1698.7,775.8,1697.4,778,1697.4,782.2z"/>
	<path class="st1" d="M1485.5,810.6c0,5.3-2,8.2-5.4,8.2c-3,0-5.1-2.8-5.1-8c0-5.2,2.2-8.1,5.4-8.1
		C1483.7,802.8,1485.5,805.7,1485.5,810.6z M1477.1,810.9c0,4,1.2,6.3,3.2,6.3c2.1,0,3.2-2.5,3.2-6.5c0-3.8-1-6.3-3.2-6.3
		C1478.4,804.4,1477.1,806.6,1477.1,810.9z"/>
	<path class="st1" d="M1497.8,810.6c0,5.3-2,8.2-5.4,8.2c-3,0-5.1-2.8-5.1-8c0-5.2,2.2-8.1,5.4-8.1
		C1495.9,802.8,1497.8,805.7,1497.8,810.6z M1489.3,810.9c0,4,1.2,6.3,3.2,6.3c2.1,0,3.2-2.5,3.2-6.5c0-3.8-1-6.3-3.1-6.3
		C1490.7,804.4,1489.3,806.6,1489.3,810.9z"/>
	<path class="st1" d="M1504.3,805L1504.3,805l-2.7,1.5l-0.4-1.6l3.4-1.8h1.8v15.5h-2V805z"/>
	<path class="st1" d="M1522.2,810.6c0,5.3-2,8.2-5.4,8.2c-3,0-5.1-2.8-5.1-8c0-5.2,2.2-8.1,5.4-8.1
		C1520.4,802.8,1522.2,805.7,1522.2,810.6z M1513.8,810.9c0,4,1.2,6.3,3.2,6.3c2.1,0,3.2-2.5,3.2-6.5c0-3.8-1-6.3-3.2-6.3
		C1515.2,804.4,1513.8,806.6,1513.8,810.9z"/>
	<path class="st1" d="M1528.7,805L1528.7,805l-2.7,1.5l-0.4-1.6l3.4-1.8h1.8v15.5h-2V805z"/>
	<path class="st1" d="M1546.7,810.6c0,5.3-2,8.2-5.4,8.2c-3,0-5.1-2.8-5.1-8c0-5.2,2.2-8.1,5.4-8.1
		C1544.9,802.8,1546.7,805.7,1546.7,810.6z M1538.3,810.9c0,4,1.2,6.3,3.1,6.3c2.1,0,3.2-2.5,3.2-6.5c0-3.8-1-6.3-3.2-6.3
		C1539.6,804.4,1538.3,806.6,1538.3,810.9z"/>
	<path class="st1" d="M1559,810.6c0,5.3-2,8.2-5.4,8.2c-3,0-5.1-2.8-5.1-8c0-5.2,2.2-8.1,5.4-8.1
		C1557.1,802.8,1559,805.7,1559,810.6z M1550.5,810.9c0,4,1.2,6.3,3.2,6.3c2.1,0,3.2-2.5,3.2-6.5c0-3.8-1-6.3-3.2-6.3
		C1551.9,804.4,1550.5,806.6,1550.5,810.9z"/>
	<path class="st1" d="M1565.4,805L1565.4,805l-2.7,1.5l-0.4-1.6l3.4-1.8h1.8v15.5h-2V805z"/>
	<path class="st1" d="M1583.4,810.6c0,5.3-2,8.2-5.4,8.2c-3,0-5.1-2.8-5.1-8c0-5.2,2.2-8.1,5.4-8.1
		C1581.6,802.8,1583.4,805.7,1583.4,810.6z M1575,810.9c0,4,1.2,6.3,3.1,6.3c2.1,0,3.2-2.5,3.2-6.5c0-3.8-1-6.3-3.2-6.3
		C1576.4,804.4,1575,806.6,1575,810.9z"/>
	<path class="st1" d="M1595.7,810.6c0,5.3-2,8.2-5.4,8.2c-3,0-5.1-2.8-5.1-8c0-5.2,2.2-8.1,5.4-8.1
		C1593.8,802.8,1595.7,805.7,1595.7,810.6z M1587.3,810.9c0,4,1.2,6.3,3.2,6.3c2.1,0,3.2-2.5,3.2-6.5c0-3.8-1-6.3-3.2-6.3
		C1588.6,804.4,1587.3,806.6,1587.3,810.9z"/>
	<path class="st1" d="M1602.2,805L1602.2,805l-2.7,1.5l-0.4-1.6l3.4-1.8h1.8v15.5h-2V805z"/>
	<path class="st1" d="M1620.2,810.6c0,5.3-2,8.2-5.4,8.2c-3,0-5.1-2.8-5.1-8c0-5.2,2.2-8.1,5.4-8.1
		C1618.3,802.8,1620.2,805.7,1620.2,810.6z M1611.7,810.9c0,4,1.2,6.3,3.1,6.3c2.1,0,3.2-2.5,3.2-6.5c0-3.8-1-6.3-3.2-6.3
		C1613.1,804.4,1611.7,806.6,1611.7,810.9z"/>
	<path class="st1" d="M1626.6,805L1626.6,805l-2.7,1.5l-0.4-1.6l3.4-1.8h1.8v15.5h-2V805z"/>
	<path class="st1" d="M1644.6,810.6c0,5.3-2,8.2-5.4,8.2c-3,0-5.1-2.8-5.1-8c0-5.2,2.2-8.1,5.4-8.1
		C1642.8,802.8,1644.6,805.7,1644.6,810.6z M1636.2,810.9c0,4,1.2,6.3,3.2,6.3c2.1,0,3.2-2.5,3.2-6.5c0-3.8-1-6.3-3.2-6.3
		C1637.5,804.4,1636.2,806.6,1636.2,810.9z"/>
	<path class="st1" d="M1651.1,805L1651.1,805l-2.7,1.5l-0.4-1.6l3.4-1.8h1.8v15.5h-2V805z"/>
	<path class="st1" d="M1669.1,810.6c0,5.3-2,8.2-5.4,8.2c-3,0-5.1-2.8-5.1-8c0-5.2,2.2-8.1,5.4-8.1
		C1667.3,802.8,1669.1,805.7,1669.1,810.6z M1660.7,810.9c0,4,1.2,6.3,3.2,6.3c2.1,0,3.2-2.5,3.2-6.5c0-3.8-1-6.3-3.2-6.3
		C1662,804.4,1660.7,806.6,1660.7,810.9z"/>
	<path class="st1" d="M1675.6,805L1675.6,805l-2.7,1.5l-0.4-1.6l3.4-1.8h1.8v15.5h-2V805z"/>
	<path class="st1" d="M1693.6,810.6c0,5.3-2,8.2-5.4,8.2c-3,0-5.1-2.8-5.1-8c0-5.2,2.2-8.1,5.4-8.1
		C1691.7,802.8,1693.6,805.7,1693.6,810.6z M1685.2,810.9c0,4,1.2,6.3,3.1,6.3c2.1,0,3.2-2.5,3.2-6.5c0-3.8-1-6.3-3.2-6.3
		C1686.5,804.4,1685.2,806.6,1685.2,810.9z"/>
	<path class="st1" d="M1705.8,810.6c0,5.3-2,8.2-5.4,8.2c-3,0-5.1-2.8-5.1-8c0-5.2,2.2-8.1,5.4-8.1
		C1704,802.8,1705.8,805.7,1705.8,810.6z M1697.4,810.9c0,4,1.2,6.3,3.2,6.3c2.1,0,3.2-2.5,3.2-6.5c0-3.8-1-6.3-3.2-6.3
		C1698.7,804.4,1697.4,806.6,1697.4,810.9z"/>
	<path class="st1" d="M1485.5,839.2c0,5.3-2,8.2-5.4,8.2c-3,0-5.1-2.8-5.1-8c0-5.2,2.2-8.1,5.4-8.1
		C1483.7,831.4,1485.5,834.3,1485.5,839.2z M1477.1,839.5c0,4,1.2,6.3,3.2,6.3c2.1,0,3.2-2.5,3.2-6.5c0-3.8-1-6.3-3.2-6.3
		C1478.4,833,1477.1,835.3,1477.1,839.5z"/>
	<path class="st1" d="M1497.8,839.2c0,5.3-2,8.2-5.4,8.2c-3,0-5.1-2.8-5.1-8c0-5.2,2.2-8.1,5.4-8.1
		C1495.9,831.4,1497.8,834.3,1497.8,839.2z M1489.3,839.5c0,4,1.2,6.3,3.2,6.3c2.1,0,3.2-2.5,3.2-6.5c0-3.8-1-6.3-3.1-6.3
		C1490.7,833,1489.3,835.3,1489.3,839.5z"/>
	<path class="st1" d="M1504.3,833.6L1504.3,833.6l-2.7,1.5l-0.4-1.6l3.4-1.8h1.8v15.5h-2V833.6z"/>
	<path class="st1" d="M1522.2,839.2c0,5.3-2,8.2-5.4,8.2c-3,0-5.1-2.8-5.1-8c0-5.2,2.2-8.1,5.4-8.1
		C1520.4,831.4,1522.2,834.3,1522.2,839.2z M1513.8,839.5c0,4,1.2,6.3,3.2,6.3c2.1,0,3.2-2.5,3.2-6.5c0-3.8-1-6.3-3.2-6.3
		C1515.2,833,1513.8,835.3,1513.8,839.5z"/>
	<path class="st1" d="M1528.7,833.6L1528.7,833.6l-2.7,1.5l-0.4-1.6l3.4-1.8h1.8v15.5h-2V833.6z"/>
	<path class="st1" d="M1546.7,839.2c0,5.3-2,8.2-5.4,8.2c-3,0-5.1-2.8-5.1-8c0-5.2,2.2-8.1,5.4-8.1
		C1544.9,831.4,1546.7,834.3,1546.7,839.2z M1538.3,839.5c0,4,1.2,6.3,3.1,6.3c2.1,0,3.2-2.5,3.2-6.5c0-3.8-1-6.3-3.2-6.3
		C1539.6,833,1538.3,835.3,1538.3,839.5z"/>
	<path class="st1" d="M1553.2,833.6L1553.2,833.6l-2.7,1.5l-0.4-1.6l3.4-1.8h1.8v15.5h-2V833.6z"/>
	<path class="st1" d="M1571.2,839.2c0,5.3-2,8.2-5.4,8.2c-3,0-5.1-2.8-5.1-8c0-5.2,2.2-8.1,5.4-8.1
		C1569.3,831.4,1571.2,834.3,1571.2,839.2z M1562.8,839.5c0,4,1.2,6.3,3.2,6.3c2.1,0,3.2-2.5,3.2-6.5c0-3.8-1-6.3-3.2-6.3
		C1564.1,833,1562.8,835.3,1562.8,839.5z"/>
	<path class="st1" d="M1577.7,833.6L1577.7,833.6l-2.7,1.5l-0.4-1.6l3.4-1.8h1.8v15.5h-2V833.6z"/>
	<path class="st1" d="M1595.7,839.2c0,5.3-2,8.2-5.4,8.2c-3,0-5.1-2.8-5.1-8c0-5.2,2.2-8.1,5.4-8.1
		C1593.8,831.4,1595.7,834.3,1595.7,839.2z M1587.3,839.5c0,4,1.2,6.3,3.2,6.3c2.1,0,3.2-2.5,3.2-6.5c0-3.8-1-6.3-3.2-6.3
		C1588.6,833,1587.3,835.3,1587.3,839.5z"/>
	<path class="st1" d="M1607.9,839.2c0,5.3-2,8.2-5.4,8.2c-3,0-5.1-2.8-5.1-8c0-5.2,2.2-8.1,5.4-8.1
		C1606.1,831.4,1607.9,834.3,1607.9,839.2z M1599.5,839.5c0,4,1.2,6.3,3.2,6.3c2.1,0,3.2-2.5,3.2-6.5c0-3.8-1-6.3-3.2-6.3
		C1600.8,833,1599.5,835.3,1599.5,839.5z"/>
	<path class="st1" d="M1614.4,833.6L1614.4,833.6l-2.7,1.5l-0.4-1.6l3.4-1.8h1.8v15.5h-2V833.6z"/>
	<path class="st1" d="M1632.4,839.2c0,5.3-2,8.2-5.4,8.2c-3,0-5.1-2.8-5.1-8c0-5.2,2.2-8.1,5.4-8.1
		C1630.5,831.4,1632.4,834.3,1632.4,839.2z M1624,839.5c0,4,1.2,6.3,3.2,6.3c2.1,0,3.2-2.5,3.2-6.5c0-3.8-1-6.3-3.2-6.3
		C1625.3,833,1624,835.3,1624,839.5z"/>
	<path class="st1" d="M1638.9,833.6L1638.9,833.6l-2.7,1.5l-0.4-1.6l3.4-1.8h1.8v15.5h-2V833.6z"/>
	<path class="st1" d="M1656.9,839.2c0,5.3-2,8.2-5.4,8.2c-3,0-5.1-2.8-5.1-8c0-5.2,2.2-8.1,5.4-8.1
		C1655,831.4,1656.9,834.3,1656.9,839.2z M1648.4,839.5c0,4,1.2,6.3,3.1,6.3c2.1,0,3.2-2.5,3.2-6.5c0-3.8-1-6.3-3.2-6.3
		C1649.8,833,1648.4,835.3,1648.4,839.5z"/>
	<path class="st1" d="M1663.4,833.6L1663.4,833.6l-2.7,1.5l-0.4-1.6l3.4-1.8h1.8v15.5h-2V833.6z"/>
	<path class="st1" d="M1681.4,839.2c0,5.3-2,8.2-5.4,8.2c-3,0-5.1-2.8-5.1-8c0-5.2,2.2-8.1,5.4-8.1
		C1679.5,831.4,1681.4,834.3,1681.4,839.2z M1672.9,839.5c0,4,1.2,6.3,3.2,6.3c2.1,0,3.2-2.5,3.2-6.5c0-3.8-1-6.3-3.2-6.3
		C1674.3,833,1672.9,835.3,1672.9,839.5z"/>
	<path class="st1" d="M1687.8,833.6L1687.8,833.6l-2.7,1.5l-0.4-1.6l3.4-1.8h1.8v15.5h-2V833.6z"/>
	<path class="st1" d="M1705.8,839.2c0,5.3-2,8.2-5.4,8.2c-3,0-5.1-2.8-5.1-8c0-5.2,2.2-8.1,5.4-8.1
		C1704,831.4,1705.8,834.3,1705.8,839.2z M1697.4,839.5c0,4,1.2,6.3,3.2,6.3c2.1,0,3.2-2.5,3.2-6.5c0-3.8-1-6.3-3.2-6.3
		C1698.7,833,1697.4,835.3,1697.4,839.5z"/>
	<path class="st1" d="M1485.5,867.9c0,5.3-2,8.2-5.4,8.2c-3,0-5.1-2.8-5.1-8c0-5.2,2.2-8.1,5.4-8.1
		C1483.7,860,1485.5,862.9,1485.5,867.9z M1477.1,868.1c0,4,1.2,6.3,3.2,6.3c2.1,0,3.2-2.5,3.2-6.5c0-3.8-1-6.3-3.2-6.3
		C1478.4,861.6,1477.1,863.9,1477.1,868.1z"/>
	<path class="st1" d="M1492,862.2L1492,862.2l-2.7,1.5l-0.4-1.6l3.4-1.8h1.8v15.5h-2V862.2z"/>
	<path class="st1" d="M1504.3,862.2L1504.3,862.2l-2.7,1.5l-0.4-1.6l3.4-1.8h1.8v15.5h-2V862.2z"/>
	<path class="st1" d="M1516.5,862.2L1516.5,862.2l-2.7,1.5l-0.4-1.6l3.4-1.8h1.8v15.5h-2V862.2z"/>
	<path class="st1" d="M1528.7,862.2L1528.7,862.2l-2.7,1.5l-0.4-1.6l3.4-1.8h1.8v15.5h-2V862.2z"/>
	<path class="st1" d="M1541,862.2L1541,862.2l-2.7,1.5l-0.4-1.6l3.4-1.8h1.8v15.5h-2V862.2z"/>
	<path class="st1" d="M1559,867.9c0,5.3-2,8.2-5.4,8.2c-3,0-5.1-2.8-5.1-8c0-5.2,2.2-8.1,5.4-8.1C1557.1,860,1559,862.9,1559,867.9z
		 M1550.5,868.1c0,4,1.2,6.3,3.2,6.3c2.1,0,3.2-2.5,3.2-6.5c0-3.8-1-6.3-3.2-6.3C1551.9,861.6,1550.5,863.9,1550.5,868.1z"/>
	<path class="st1" d="M1571.2,867.9c0,5.3-2,8.2-5.4,8.2c-3,0-5.1-2.8-5.1-8c0-5.2,2.2-8.1,5.4-8.1
		C1569.3,860,1571.2,862.9,1571.2,867.9z M1562.8,868.1c0,4,1.2,6.3,3.2,6.3c2.1,0,3.2-2.5,3.2-6.5c0-3.8-1-6.3-3.2-6.3
		C1564.1,861.6,1562.8,863.9,1562.8,868.1z"/>
	<path class="st1" d="M1577.7,862.2L1577.7,862.2l-2.7,1.5l-0.4-1.6l3.4-1.8h1.8v15.5h-2V862.2z"/>
	<path class="st1" d="M1595.7,867.9c0,5.3-2,8.2-5.4,8.2c-3,0-5.1-2.8-5.1-8c0-5.2,2.2-8.1,5.4-8.1
		C1593.8,860,1595.7,862.9,1595.7,867.9z M1587.3,868.1c0,4,1.2,6.3,3.2,6.3c2.1,0,3.2-2.5,3.2-6.5c0-3.8-1-6.3-3.2-6.3
		C1588.6,861.6,1587.3,863.9,1587.3,868.1z"/>
	<path class="st1" d="M1602.2,862.2L1602.2,862.2l-2.7,1.5l-0.4-1.6l3.4-1.8h1.8v15.5h-2V862.2z"/>
	<path class="st1" d="M1620.2,867.9c0,5.3-2,8.2-5.4,8.2c-3,0-5.1-2.8-5.1-8c0-5.2,2.2-8.1,5.4-8.1
		C1618.3,860,1620.2,862.9,1620.2,867.9z M1611.7,868.1c0,4,1.2,6.3,3.1,6.3c2.1,0,3.2-2.5,3.2-6.5c0-3.8-1-6.3-3.2-6.3
		C1613.1,861.6,1611.7,863.9,1611.7,868.1z"/>
	<path class="st1" d="M1626.6,862.2L1626.6,862.2l-2.7,1.5l-0.4-1.6l3.4-1.8h1.8v15.5h-2V862.2z"/>
	<path class="st1" d="M1644.6,867.9c0,5.3-2,8.2-5.4,8.2c-3,0-5.1-2.8-5.1-8c0-5.2,2.2-8.1,5.4-8.1
		C1642.8,860,1644.6,862.9,1644.6,867.9z M1636.2,868.1c0,4,1.2,6.3,3.2,6.3c2.1,0,3.2-2.5,3.2-6.5c0-3.8-1-6.3-3.2-6.3
		C1637.5,861.6,1636.2,863.9,1636.2,868.1z"/>
	<path class="st1" d="M1656.9,867.9c0,5.3-2,8.2-5.4,8.2c-3,0-5.1-2.8-5.1-8c0-5.2,2.2-8.1,5.4-8.1
		C1655,860,1656.9,862.9,1656.9,867.9z M1648.4,868.1c0,4,1.2,6.3,3.1,6.3c2.1,0,3.2-2.5,3.2-6.5c0-3.8-1-6.3-3.2-6.3
		C1649.8,861.6,1648.4,863.9,1648.4,868.1z"/>
	<path class="st1" d="M1663.4,862.2L1663.4,862.2l-2.7,1.5l-0.4-1.6l3.4-1.8h1.8v15.5h-2V862.2z"/>
	<path class="st1" d="M1675.6,862.2L1675.6,862.2l-2.7,1.5l-0.4-1.6l3.4-1.8h1.8v15.5h-2V862.2z"/>
	<path class="st1" d="M1693.6,867.9c0,5.3-2,8.2-5.4,8.2c-3,0-5.1-2.8-5.1-8c0-5.2,2.2-8.1,5.4-8.1
		C1691.7,860,1693.6,862.9,1693.6,867.9z M1685.2,868.1c0,4,1.2,6.3,3.1,6.3c2.1,0,3.2-2.5,3.2-6.5c0-3.8-1-6.3-3.2-6.3
		C1686.5,861.6,1685.2,863.9,1685.2,868.1z"/>
	<path class="st1" d="M1705.8,867.9c0,5.3-2,8.2-5.4,8.2c-3,0-5.1-2.8-5.1-8c0-5.2,2.2-8.1,5.4-8.1
		C1704,860,1705.8,862.9,1705.8,867.9z M1697.4,868.1c0,4,1.2,6.3,3.2,6.3c2.1,0,3.2-2.5,3.2-6.5c0-3.8-1-6.3-3.2-6.3
		C1698.7,861.6,1697.4,863.9,1697.4,868.1z"/>
	<path class="st1" d="M1479.8,890.9L1479.8,890.9l-2.7,1.5l-0.4-1.6l3.4-1.8h1.8v15.5h-2V890.9z"/>
	<path class="st1" d="M1497.8,896.5c0,5.3-2,8.2-5.4,8.2c-3,0-5.1-2.8-5.1-8c0-5.2,2.2-8.1,5.4-8.1
		C1495.9,888.7,1497.8,891.6,1497.8,896.5z M1489.3,896.7c0,4,1.2,6.3,3.2,6.3c2.1,0,3.2-2.5,3.2-6.5c0-3.8-1-6.3-3.1-6.3
		C1490.7,890.3,1489.3,892.5,1489.3,896.7z"/>
	<path class="st1" d="M1504.3,890.9L1504.3,890.9l-2.7,1.5l-0.4-1.6l3.4-1.8h1.8v15.5h-2V890.9z"/>
	<path class="st1" d="M1522.2,896.5c0,5.3-2,8.2-5.4,8.2c-3,0-5.1-2.8-5.1-8c0-5.2,2.2-8.1,5.4-8.1
		C1520.4,888.7,1522.2,891.6,1522.2,896.5z M1513.8,896.7c0,4,1.2,6.3,3.2,6.3c2.1,0,3.2-2.5,3.2-6.5c0-3.8-1-6.3-3.2-6.3
		C1515.2,890.3,1513.8,892.5,1513.8,896.7z"/>
	<path class="st1" d="M1528.7,890.9L1528.7,890.9l-2.7,1.5l-0.4-1.6l3.4-1.8h1.8v15.5h-2V890.9z"/>
	<path class="st1" d="M1546.7,896.5c0,5.3-2,8.2-5.4,8.2c-3,0-5.1-2.8-5.1-8c0-5.2,2.2-8.1,5.4-8.1
		C1544.9,888.7,1546.7,891.6,1546.7,896.5z M1538.3,896.7c0,4,1.2,6.3,3.1,6.3c2.1,0,3.2-2.5,3.2-6.5c0-3.8-1-6.3-3.2-6.3
		C1539.6,890.3,1538.3,892.5,1538.3,896.7z"/>
	<path class="st1" d="M1553.2,890.9L1553.2,890.9l-2.7,1.5l-0.4-1.6l3.4-1.8h1.8v15.5h-2V890.9z"/>
	<path class="st1" d="M1571.2,896.5c0,5.3-2,8.2-5.4,8.2c-3,0-5.1-2.8-5.1-8c0-5.2,2.2-8.1,5.4-8.1
		C1569.3,888.7,1571.2,891.6,1571.2,896.5z M1562.8,896.7c0,4,1.2,6.3,3.2,6.3c2.1,0,3.2-2.5,3.2-6.5c0-3.8-1-6.3-3.2-6.3
		C1564.1,890.3,1562.8,892.5,1562.8,896.7z"/>
	<path class="st1" d="M1577.7,890.9L1577.7,890.9l-2.7,1.5l-0.4-1.6l3.4-1.8h1.8v15.5h-2V890.9z"/>
	<path class="st1" d="M1595.7,896.5c0,5.3-2,8.2-5.4,8.2c-3,0-5.1-2.8-5.1-8c0-5.2,2.2-8.1,5.4-8.1
		C1593.8,888.7,1595.7,891.6,1595.7,896.5z M1587.3,896.7c0,4,1.2,6.3,3.2,6.3c2.1,0,3.2-2.5,3.2-6.5c0-3.8-1-6.3-3.2-6.3
		C1588.6,890.3,1587.3,892.5,1587.3,896.7z"/>
	<path class="st1" d="M1602.2,890.9L1602.2,890.9l-2.7,1.5l-0.4-1.6l3.4-1.8h1.8v15.5h-2V890.9z"/>
	<path class="st1" d="M1620.2,896.5c0,5.3-2,8.2-5.4,8.2c-3,0-5.1-2.8-5.1-8c0-5.2,2.2-8.1,5.4-8.1
		C1618.3,888.7,1620.2,891.6,1620.2,896.5z M1611.7,896.7c0,4,1.2,6.3,3.1,6.3c2.1,0,3.2-2.5,3.2-6.5c0-3.8-1-6.3-3.2-6.3
		C1613.1,890.3,1611.7,892.5,1611.7,896.7z"/>
	<path class="st1" d="M1626.6,890.9L1626.6,890.9l-2.7,1.5l-0.4-1.6l3.4-1.8h1.8v15.5h-2V890.9z"/>
	<path class="st1" d="M1644.6,896.5c0,5.3-2,8.2-5.4,8.2c-3,0-5.1-2.8-5.1-8c0-5.2,2.2-8.1,5.4-8.1
		C1642.8,888.7,1644.6,891.6,1644.6,896.5z M1636.2,896.7c0,4,1.2,6.3,3.2,6.3c2.1,0,3.2-2.5,3.2-6.5c0-3.8-1-6.3-3.2-6.3
		C1637.5,890.3,1636.2,892.5,1636.2,896.7z"/>
	<path class="st1" d="M1651.1,890.9L1651.1,890.9l-2.7,1.5l-0.4-1.6l3.4-1.8h1.8v15.5h-2V890.9z"/>
	<path class="st1" d="M1663.4,890.9L1663.4,890.9l-2.7,1.5l-0.4-1.6l3.4-1.8h1.8v15.5h-2V890.9z"/>
	<path class="st1" d="M1675.6,890.9L1675.6,890.9l-2.7,1.5l-0.4-1.6l3.4-1.8h1.8v15.5h-2V890.9z"/>
	<path class="st1" d="M1687.8,890.9L1687.8,890.9l-2.7,1.5l-0.4-1.6l3.4-1.8h1.8v15.5h-2V890.9z"/>
	<path class="st1" d="M1700.1,890.9L1700.1,890.9l-2.7,1.5l-0.4-1.6l3.4-1.8h1.8v15.5h-2V890.9z"/>
	<path class="st1" d="M1479.8,919.5L1479.8,919.5l-2.7,1.5l-0.4-1.6l3.4-1.8h1.8v15.5h-2V919.5z"/>
	<path class="st1" d="M1492,919.5L1492,919.5l-2.7,1.5l-0.4-1.6l3.4-1.8h1.8v15.5h-2V919.5z"/>
	<path class="st1" d="M1504.3,919.5L1504.3,919.5l-2.7,1.5l-0.4-1.6l3.4-1.8h1.8v15.5h-2V919.5z"/>
	<path class="st1" d="M1516.5,919.5L1516.5,919.5l-2.7,1.5l-0.4-1.6l3.4-1.8h1.8v15.5h-2V919.5z"/>
	<path class="st1" d="M1534.5,925.1c0,5.3-2,8.2-5.4,8.2c-3,0-5.1-2.8-5.1-8c0-5.2,2.2-8.1,5.4-8.1
		C1532.6,917.3,1534.5,920.2,1534.5,925.1z M1526.1,925.4c0,4,1.2,6.3,3.2,6.3c2.1,0,3.2-2.5,3.2-6.5c0-3.8-1-6.3-3.2-6.3
		C1527.4,918.9,1526.1,921.1,1526.1,925.4z"/>
	<path class="st1" d="M1546.7,925.1c0,5.3-2,8.2-5.4,8.2c-3,0-5.1-2.8-5.1-8c0-5.2,2.2-8.1,5.4-8.1
		C1544.9,917.3,1546.7,920.2,1546.7,925.1z M1538.3,925.4c0,4,1.2,6.3,3.1,6.3c2.1,0,3.2-2.5,3.2-6.5c0-3.8-1-6.3-3.2-6.3
		C1539.6,918.9,1538.3,921.1,1538.3,925.4z"/>
	<path class="st1" d="M1553.2,919.5L1553.2,919.5l-2.7,1.5l-0.4-1.6l3.4-1.8h1.8v15.5h-2V919.5z"/>
	<path class="st1" d="M1571.2,925.1c0,5.3-2,8.2-5.4,8.2c-3,0-5.1-2.8-5.1-8c0-5.2,2.2-8.1,5.4-8.1
		C1569.3,917.3,1571.2,920.2,1571.2,925.1z M1562.8,925.4c0,4,1.2,6.3,3.2,6.3c2.1,0,3.2-2.5,3.2-6.5c0-3.8-1-6.3-3.2-6.3
		C1564.1,918.9,1562.8,921.1,1562.8,925.4z"/>
	<path class="st1" d="M1583.4,925.1c0,5.3-2,8.2-5.4,8.2c-3,0-5.1-2.8-5.1-8c0-5.2,2.2-8.1,5.4-8.1
		C1581.6,917.3,1583.4,920.2,1583.4,925.1z M1575,925.4c0,4,1.2,6.3,3.1,6.3c2.1,0,3.2-2.5,3.2-6.5c0-3.8-1-6.3-3.2-6.3
		C1576.4,918.9,1575,921.1,1575,925.4z"/>
	<path class="st1" d="M1595.7,925.1c0,5.3-2,8.2-5.4,8.2c-3,0-5.1-2.8-5.1-8c0-5.2,2.2-8.1,5.4-8.1
		C1593.8,917.3,1595.7,920.2,1595.7,925.1z M1587.3,925.4c0,4,1.2,6.3,3.2,6.3c2.1,0,3.2-2.5,3.2-6.5c0-3.8-1-6.3-3.2-6.3
		C1588.6,918.9,1587.3,921.1,1587.3,925.4z"/>
	<path class="st1" d="M1602.2,919.5L1602.2,919.5l-2.7,1.5l-0.4-1.6l3.4-1.8h1.8v15.5h-2V919.5z"/>
	<path class="st1" d="M1614.4,919.5L1614.4,919.5l-2.7,1.5l-0.4-1.6l3.4-1.8h1.8v15.5h-2V919.5z"/>
	<path class="st1" d="M1632.4,925.1c0,5.3-2,8.2-5.4,8.2c-3,0-5.1-2.8-5.1-8c0-5.2,2.2-8.1,5.4-8.1
		C1630.5,917.3,1632.4,920.2,1632.4,925.1z M1624,925.4c0,4,1.2,6.3,3.2,6.3c2.1,0,3.2-2.5,3.2-6.5c0-3.8-1-6.3-3.2-6.3
		C1625.3,918.9,1624,921.1,1624,925.4z"/>
	<path class="st1" d="M1644.6,925.1c0,5.3-2,8.2-5.4,8.2c-3,0-5.1-2.8-5.1-8c0-5.2,2.2-8.1,5.4-8.1
		C1642.8,917.3,1644.6,920.2,1644.6,925.1z M1636.2,925.4c0,4,1.2,6.3,3.2,6.3c2.1,0,3.2-2.5,3.2-6.5c0-3.8-1-6.3-3.2-6.3
		C1637.5,918.9,1636.2,921.1,1636.2,925.4z"/>
	<path class="st1" d="M1651.1,919.5L1651.1,919.5l-2.7,1.5l-0.4-1.6l3.4-1.8h1.8v15.5h-2V919.5z"/>
	<path class="st1" d="M1669.1,925.1c0,5.3-2,8.2-5.4,8.2c-3,0-5.1-2.8-5.1-8c0-5.2,2.2-8.1,5.4-8.1
		C1667.3,917.3,1669.1,920.2,1669.1,925.1z M1660.7,925.4c0,4,1.2,6.3,3.2,6.3c2.1,0,3.2-2.5,3.2-6.5c0-3.8-1-6.3-3.2-6.3
		C1662,918.9,1660.7,921.1,1660.7,925.4z"/>
	<path class="st1" d="M1675.6,919.5L1675.6,919.5l-2.7,1.5l-0.4-1.6l3.4-1.8h1.8v15.5h-2V919.5z"/>
	<path class="st1" d="M1693.6,925.1c0,5.3-2,8.2-5.4,8.2c-3,0-5.1-2.8-5.1-8c0-5.2,2.2-8.1,5.4-8.1
		C1691.7,917.3,1693.6,920.2,1693.6,925.1z M1685.2,925.4c0,4,1.2,6.3,3.1,6.3c2.1,0,3.2-2.5,3.2-6.5c0-3.8-1-6.3-3.2-6.3
		C1686.5,918.9,1685.2,921.1,1685.2,925.4z"/>
	<path class="st1" d="M1700.1,919.5L1700.1,919.5l-2.7,1.5l-0.4-1.6l3.4-1.8h1.8v15.5h-2V919.5z"/>
	<path class="st1" d="M1485.5,953.8c0,5.3-2,8.2-5.4,8.2c-3,0-5.1-2.8-5.1-8c0-5.2,2.2-8.1,5.4-8.1
		C1483.7,945.9,1485.5,948.8,1485.5,953.8z M1477.1,954c0,4,1.2,6.3,3.2,6.3c2.1,0,3.2-2.5,3.2-6.5c0-3.8-1-6.3-3.2-6.3
		C1478.4,947.5,1477.1,949.8,1477.1,954z"/>
	<path class="st1" d="M1497.8,953.8c0,5.3-2,8.2-5.4,8.2c-3,0-5.1-2.8-5.1-8c0-5.2,2.2-8.1,5.4-8.1
		C1495.9,945.9,1497.8,948.8,1497.8,953.8z M1489.3,954c0,4,1.2,6.3,3.2,6.3c2.1,0,3.2-2.5,3.2-6.5c0-3.8-1-6.3-3.1-6.3
		C1490.7,947.5,1489.3,949.8,1489.3,954z"/>
	<path class="st1" d="M1510,953.8c0,5.3-2,8.2-5.4,8.2c-3,0-5.1-2.8-5.1-8c0-5.2,2.2-8.1,5.4-8.1
		C1508.1,945.9,1510,948.8,1510,953.8z M1501.6,954c0,4,1.2,6.3,3.1,6.3c2.1,0,3.2-2.5,3.2-6.5c0-3.8-1-6.3-3.2-6.3
		C1502.9,947.5,1501.6,949.8,1501.6,954z"/>
	<path class="st1" d="M1516.5,948.1L1516.5,948.1l-2.7,1.5l-0.4-1.6l3.4-1.8h1.8v15.5h-2V948.1z"/>
	<path class="st1" d="M1534.5,953.8c0,5.3-2,8.2-5.4,8.2c-3,0-5.1-2.8-5.1-8c0-5.2,2.2-8.1,5.4-8.1
		C1532.6,945.9,1534.5,948.8,1534.5,953.8z M1526.1,954c0,4,1.2,6.3,3.2,6.3c2.1,0,3.2-2.5,3.2-6.5c0-3.8-1-6.3-3.2-6.3
		C1527.4,947.5,1526.1,949.8,1526.1,954z"/>
	<path class="st1" d="M1541,948.1L1541,948.1l-2.7,1.5l-0.4-1.6l3.4-1.8h1.8v15.5h-2V948.1z"/>
	<path class="st1" d="M1559,953.8c0,5.3-2,8.2-5.4,8.2c-3,0-5.1-2.8-5.1-8c0-5.2,2.2-8.1,5.4-8.1
		C1557.1,945.9,1559,948.8,1559,953.8z M1550.5,954c0,4,1.2,6.3,3.2,6.3c2.1,0,3.2-2.5,3.2-6.5c0-3.8-1-6.3-3.2-6.3
		C1551.9,947.5,1550.5,949.8,1550.5,954z"/>
	<path class="st1" d="M1571.2,953.8c0,5.3-2,8.2-5.4,8.2c-3,0-5.1-2.8-5.1-8c0-5.2,2.2-8.1,5.4-8.1
		C1569.3,945.9,1571.2,948.8,1571.2,953.8z M1562.8,954c0,4,1.2,6.3,3.2,6.3c2.1,0,3.2-2.5,3.2-6.5c0-3.8-1-6.3-3.2-6.3
		C1564.1,947.5,1562.8,949.8,1562.8,954z"/>
	<path class="st1" d="M1583.4,953.8c0,5.3-2,8.2-5.4,8.2c-3,0-5.1-2.8-5.1-8c0-5.2,2.2-8.1,5.4-8.1
		C1581.6,945.9,1583.4,948.8,1583.4,953.8z M1575,954c0,4,1.2,6.3,3.1,6.3c2.1,0,3.2-2.5,3.2-6.5c0-3.8-1-6.3-3.2-6.3
		C1576.4,947.5,1575,949.8,1575,954z"/>
	<path class="st1" d="M1589.9,948.1L1589.9,948.1l-2.7,1.5l-0.4-1.6l3.4-1.8h1.8v15.5h-2V948.1z"/>
	<path class="st1" d="M1607.9,953.8c0,5.3-2,8.2-5.4,8.2c-3,0-5.1-2.8-5.1-8c0-5.2,2.2-8.1,5.4-8.1
		C1606.1,945.9,1607.9,948.8,1607.9,953.8z M1599.5,954c0,4,1.2,6.3,3.2,6.3c2.1,0,3.2-2.5,3.2-6.5c0-3.8-1-6.3-3.2-6.3
		C1600.8,947.5,1599.5,949.8,1599.5,954z"/>
	<path class="st1" d="M1620.2,953.8c0,5.3-2,8.2-5.4,8.2c-3,0-5.1-2.8-5.1-8c0-5.2,2.2-8.1,5.4-8.1
		C1618.3,945.9,1620.2,948.8,1620.2,953.8z M1611.7,954c0,4,1.2,6.3,3.1,6.3c2.1,0,3.2-2.5,3.2-6.5c0-3.8-1-6.3-3.2-6.3
		C1613.1,947.5,1611.7,949.8,1611.7,954z"/>
	<path class="st1" d="M1632.4,953.8c0,5.3-2,8.2-5.4,8.2c-3,0-5.1-2.8-5.1-8c0-5.2,2.2-8.1,5.4-8.1
		C1630.5,945.9,1632.4,948.8,1632.4,953.8z M1624,954c0,4,1.2,6.3,3.2,6.3c2.1,0,3.2-2.5,3.2-6.5c0-3.8-1-6.3-3.2-6.3
		C1625.3,947.5,1624,949.8,1624,954z"/>
	<path class="st1" d="M1638.9,948.1L1638.9,948.1l-2.7,1.5l-0.4-1.6l3.4-1.8h1.8v15.5h-2V948.1z"/>
	<path class="st1" d="M1656.9,953.8c0,5.3-2,8.2-5.4,8.2c-3,0-5.1-2.8-5.1-8c0-5.2,2.2-8.1,5.4-8.1
		C1655,945.9,1656.9,948.8,1656.9,953.8z M1648.4,954c0,4,1.2,6.3,3.1,6.3c2.1,0,3.2-2.5,3.2-6.5c0-3.8-1-6.3-3.2-6.3
		C1649.8,947.5,1648.4,949.8,1648.4,954z"/>
	<path class="st1" d="M1669.1,953.8c0,5.3-2,8.2-5.4,8.2c-3,0-5.1-2.8-5.1-8c0-5.2,2.2-8.1,5.4-8.1
		C1667.3,945.9,1669.1,948.8,1669.1,953.8z M1660.7,954c0,4,1.2,6.3,3.2,6.3c2.1,0,3.2-2.5,3.2-6.5c0-3.8-1-6.3-3.2-6.3
		C1662,947.5,1660.7,949.8,1660.7,954z"/>
	<path class="st1" d="M1681.4,953.8c0,5.3-2,8.2-5.4,8.2c-3,0-5.1-2.8-5.1-8c0-5.2,2.2-8.1,5.4-8.1
		C1679.5,945.9,1681.4,948.8,1681.4,953.8z M1672.9,954c0,4,1.2,6.3,3.2,6.3c2.1,0,3.2-2.5,3.2-6.5c0-3.8-1-6.3-3.2-6.3
		C1674.3,947.5,1672.9,949.8,1672.9,954z"/>
	<path class="st1" d="M1693.6,953.8c0,5.3-2,8.2-5.4,8.2c-3,0-5.1-2.8-5.1-8c0-5.2,2.2-8.1,5.4-8.1
		C1691.7,945.9,1693.6,948.8,1693.6,953.8z M1685.2,954c0,4,1.2,6.3,3.1,6.3c2.1,0,3.2-2.5,3.2-6.5c0-3.8-1-6.3-3.2-6.3
		C1686.5,947.5,1685.2,949.8,1685.2,954z"/>
	<path class="st1" d="M1705.8,953.8c0,5.3-2,8.2-5.4,8.2c-3,0-5.1-2.8-5.1-8c0-5.2,2.2-8.1,5.4-8.1
		C1704,945.9,1705.8,948.8,1705.8,953.8z M1697.4,954c0,4,1.2,6.3,3.2,6.3c2.1,0,3.2-2.5,3.2-6.5c0-3.8-1-6.3-3.2-6.3
		C1698.7,947.5,1697.4,949.8,1697.4,954z"/>
	<path class="st1" d="M1485.5,982.4c0,5.3-2,8.2-5.4,8.2c-3,0-5.1-2.8-5.1-8c0-5.2,2.2-8.1,5.4-8.1
		C1483.7,974.5,1485.5,977.5,1485.5,982.4z M1477.1,982.6c0,4,1.2,6.3,3.2,6.3c2.1,0,3.2-2.5,3.2-6.5c0-3.8-1-6.3-3.2-6.3
		C1478.4,976.2,1477.1,978.4,1477.1,982.6z"/>
	<path class="st1" d="M1497.8,982.4c0,5.3-2,8.2-5.4,8.2c-3,0-5.1-2.8-5.1-8c0-5.2,2.2-8.1,5.4-8.1
		C1495.9,974.5,1497.8,977.5,1497.8,982.4z M1489.3,982.6c0,4,1.2,6.3,3.2,6.3c2.1,0,3.2-2.5,3.2-6.5c0-3.8-1-6.3-3.1-6.3
		C1490.7,976.2,1489.3,978.4,1489.3,982.6z"/>
	<path class="st1" d="M1510,982.4c0,5.3-2,8.2-5.4,8.2c-3,0-5.1-2.8-5.1-8c0-5.2,2.2-8.1,5.4-8.1
		C1508.1,974.5,1510,977.5,1510,982.4z M1501.6,982.6c0,4,1.2,6.3,3.1,6.3c2.1,0,3.2-2.5,3.2-6.5c0-3.8-1-6.3-3.2-6.3
		C1502.9,976.2,1501.6,978.4,1501.6,982.6z"/>
	<path class="st1" d="M1522.2,982.4c0,5.3-2,8.2-5.4,8.2c-3,0-5.1-2.8-5.1-8c0-5.2,2.2-8.1,5.4-8.1
		C1520.4,974.5,1522.2,977.5,1522.2,982.4z M1513.8,982.6c0,4,1.2,6.3,3.2,6.3c2.1,0,3.2-2.5,3.2-6.5c0-3.8-1-6.3-3.2-6.3
		C1515.2,976.2,1513.8,978.4,1513.8,982.6z"/>
	<path class="st1" d="M1534.5,982.4c0,5.3-2,8.2-5.4,8.2c-3,0-5.1-2.8-5.1-8c0-5.2,2.2-8.1,5.4-8.1
		C1532.6,974.5,1534.5,977.5,1534.5,982.4z M1526.1,982.6c0,4,1.2,6.3,3.2,6.3c2.1,0,3.2-2.5,3.2-6.5c0-3.8-1-6.3-3.2-6.3
		C1527.4,976.2,1526.1,978.4,1526.1,982.6z"/>
	<path class="st1" d="M1546.7,982.4c0,5.3-2,8.2-5.4,8.2c-3,0-5.1-2.8-5.1-8c0-5.2,2.2-8.1,5.4-8.1
		C1544.9,974.5,1546.7,977.5,1546.7,982.4z M1538.3,982.6c0,4,1.2,6.3,3.1,6.3c2.1,0,3.2-2.5,3.2-6.5c0-3.8-1-6.3-3.2-6.3
		C1539.6,976.2,1538.3,978.4,1538.3,982.6z"/>
	<path class="st1" d="M1553.2,976.8L1553.2,976.8l-2.7,1.5l-0.4-1.6l3.4-1.8h1.8v15.5h-2V976.8z"/>
	<path class="st1" d="M1565.4,976.8L1565.4,976.8l-2.7,1.5l-0.4-1.6l3.4-1.8h1.8v15.5h-2V976.8z"/>
	<path class="st1" d="M1577.7,976.8L1577.7,976.8l-2.7,1.5l-0.4-1.6l3.4-1.8h1.8v15.5h-2V976.8z"/>
	<path class="st1" d="M1589.9,976.8L1589.9,976.8l-2.7,1.5l-0.4-1.6l3.4-1.8h1.8v15.5h-2V976.8z"/>
	<path class="st1" d="M1602.2,976.8L1602.2,976.8l-2.7,1.5l-0.4-1.6l3.4-1.8h1.8v15.5h-2V976.8z"/>
	<path class="st1" d="M1614.4,976.8L1614.4,976.8l-2.7,1.5l-0.4-1.6l3.4-1.8h1.8v15.5h-2V976.8z"/>
	<path class="st1" d="M1626.6,976.8L1626.6,976.8l-2.7,1.5l-0.4-1.6l3.4-1.8h1.8v15.5h-2V976.8z"/>
	<path class="st1" d="M1638.9,976.8L1638.9,976.8l-2.7,1.5l-0.4-1.6l3.4-1.8h1.8v15.5h-2V976.8z"/>
	<path class="st1" d="M1651.1,976.8L1651.1,976.8l-2.7,1.5l-0.4-1.6l3.4-1.8h1.8v15.5h-2V976.8z"/>
	<path class="st1" d="M1669.1,982.4c0,5.3-2,8.2-5.4,8.2c-3,0-5.1-2.8-5.1-8c0-5.2,2.2-8.1,5.4-8.1
		C1667.3,974.5,1669.1,977.5,1669.1,982.4z M1660.7,982.6c0,4,1.2,6.3,3.2,6.3c2.1,0,3.2-2.5,3.2-6.5c0-3.8-1-6.3-3.2-6.3
		C1662,976.2,1660.7,978.4,1660.7,982.6z"/>
	<path class="st1" d="M1681.4,982.4c0,5.3-2,8.2-5.4,8.2c-3,0-5.1-2.8-5.1-8c0-5.2,2.2-8.1,5.4-8.1
		C1679.5,974.5,1681.4,977.5,1681.4,982.4z M1672.9,982.6c0,4,1.2,6.3,3.2,6.3c2.1,0,3.2-2.5,3.2-6.5c0-3.8-1-6.3-3.2-6.3
		C1674.3,976.2,1672.9,978.4,1672.9,982.6z"/>
	<path class="st1" d="M1693.6,982.4c0,5.3-2,8.2-5.4,8.2c-3,0-5.1-2.8-5.1-8c0-5.2,2.2-8.1,5.4-8.1
		C1691.7,974.5,1693.6,977.5,1693.6,982.4z M1685.2,982.6c0,4,1.2,6.3,3.1,6.3c2.1,0,3.2-2.5,3.2-6.5c0-3.8-1-6.3-3.2-6.3
		C1686.5,976.2,1685.2,978.4,1685.2,982.6z"/>
	<path class="st1" d="M1705.8,982.4c0,5.3-2,8.2-5.4,8.2c-3,0-5.1-2.8-5.1-8c0-5.2,2.2-8.1,5.4-8.1
		C1704,974.5,1705.8,977.5,1705.8,982.4z M1697.4,982.6c0,4,1.2,6.3,3.2,6.3c2.1,0,3.2-2.5,3.2-6.5c0-3.8-1-6.3-3.2-6.3
		C1698.7,976.2,1697.4,978.4,1697.4,982.6z"/>
</g>
</svg>
