<?xml version="1.0" encoding="UTF-8" standalone="no"?>
<!-- Generator: Adobe Illustrator 22.0.1, SVG Export Plug-In . SVG Version: 6.00 Build 0)  -->

<svg
   xmlns:dc="http://purl.org/dc/elements/1.1/"
   xmlns:cc="http://creativecommons.org/ns#"
   xmlns:rdf="http://www.w3.org/1999/02/22-rdf-syntax-ns#"
   xmlns:svg="http://www.w3.org/2000/svg"
   xmlns="http://www.w3.org/2000/svg"
   xmlns:sodipodi="http://sodipodi.sourceforge.net/DTD/sodipodi-0.dtd"
   xmlns:inkscape="http://www.inkscape.org/namespaces/inkscape"
   version="1.1"
   id="Слой_1"
   x="0px"
   y="0px"
   viewBox="0 0 268.7 320.3"
   style="enable-background:new 0 0 268.7 320.3;"
   xml:space="preserve"
   sodipodi:docname="courses_active.svg"
   inkscape:version="0.92.4 (5da689c313, 2019-01-14)"><metadata
   id="metadata4170"><rdf:RDF><cc:Work
       rdf:about=""><dc:format>image/svg+xml</dc:format><dc:type
         rdf:resource="http://purl.org/dc/dcmitype/StillImage" /><dc:title></dc:title></cc:Work></rdf:RDF></metadata><defs
   id="defs4168" /><sodipodi:namedview
   pagecolor="#ffffff"
   bordercolor="#666666"
   borderopacity="1"
   objecttolerance="10"
   gridtolerance="10"
   guidetolerance="10"
   inkscape:pageopacity="0"
   inkscape:pageshadow="2"
   inkscape:window-width="1105"
   inkscape:window-height="674"
   id="namedview4166"
   showgrid="false"
   inkscape:zoom="1.4736185"
   inkscape:cx="104.55944"
   inkscape:cy="360.7915"
   inkscape:window-x="497"
   inkscape:window-y="142"
   inkscape:window-maximized="0"
   inkscape:current-layer="Слой_1" />
<style
   type="text/css"
   id="style4129">
	.st0{fill:#FFFFFF;}
	.st1{fill:#2589C2;}
</style>
<g
   id="g4163">
	<g
   id="g4161">
		<path
   class="st0"
   d="M62.4,206.7c-19.1-19.1-29.7-44.6-29.7-71.6s10.5-52.5,29.7-71.6C81.5,44.3,107,33.7,134,33.7    c27.1,0,52.5,10.5,71.6,29.7c19.1,19.1,29.7,44.6,29.7,71.6s-10.5,52.5-29.7,71.6c-19.1,19.1-44.6,29.7-71.6,29.7    C107,236.4,81.5,225.9,62.4,206.7z"
   id="path4131" />
		<g
   id="g4135">
			<path
   class="st1"
   d="M134.1,228.6c-2.7,0-5.5-0.1-8.2-0.4l0.3-3.1c2.6,0.2,5.3,0.3,7.9,0.3V228.6z M147.8,227.6l-0.5-3.1     c2.6-0.4,5.2-0.9,7.8-1.5l0.7,3.1C153.2,226.6,150.5,227.2,147.8,227.6z M108.8,225.1c-2.6-0.7-5.3-1.6-7.8-2.6l1.1-2.9     c2.5,0.9,5,1.8,7.6,2.5L108.8,225.1z M172.3,220.4l-1.3-2.9c2.4-1.1,4.8-2.3,7.1-3.6l1.5,2.7C177.3,218,174.8,219.2,172.3,220.4z      M85.4,214.8c-2.3-1.4-4.6-3-6.8-4.6l1.9-2.5c2.1,1.6,4.3,3.1,6.6,4.5L85.4,214.8z M193.9,206.8l-2-2.4c2-1.7,4-3.5,5.9-5.4     l2.2,2.2C198.1,203.1,196,205,193.9,206.8z M65.6,198.6c-1.9-2-3.6-4.1-5.3-6.3l2.5-1.9c1.6,2.1,3.3,4.1,5.1,6.1L65.6,198.6z      M211.1,187.8l-2.6-1.8c1.5-2.2,2.9-4.5,4.2-6.8l2.7,1.5C214.1,183.2,212.6,185.6,211.1,187.8z M51,177.7c-1.2-2.4-2.4-5-3.4-7.5     l2.9-1.2c1,2.4,2.1,4.9,3.3,7.2L51,177.7z M222.5,165l-3-1c0.8-2.5,1.6-5.1,2.2-7.6l3.1,0.7C224.1,159.7,223.3,162.4,222.5,165z      M42.6,153.6c-0.5-2.7-1-5.4-1.2-8.1l3.1-0.3c0.3,2.6,0.7,5.3,1.2,7.9L42.6,153.6z M227.2,139.9l-3.1-0.2     c0.1-1.4,0.1-2.9,0.1-4.4c0-1.2,0-2.4-0.1-3.6l3.1-0.1c0,1.2,0.1,2.5,0.1,3.7C227.3,136.9,227.2,138.4,227.2,139.9z M44.3,128.3     l-3.1-0.2c0.2-2.7,0.5-5.5,1-8.2l3.1,0.5C44.8,123,44.5,125.7,44.3,128.3z M221.8,115.1c-0.6-2.6-1.3-5.2-2.1-7.7l3-1     c0.8,2.6,1.6,5.3,2.2,7.9L221.8,115.1z M49.5,104.2l-3-1.1c0.9-2.6,2-5.1,3.2-7.6l2.8,1.4C51.5,99.3,50.4,101.7,49.5,104.2z      M213,92.1c-1.3-2.3-2.7-4.6-4.1-6.8l2.6-1.8c1.5,2.3,3,4.6,4.3,7L213,92.1z M61.2,82.5l-2.5-1.9c1.6-2.2,3.3-4.4,5.1-6.4     l2.4,2.1C64.4,78.2,62.7,80.3,61.2,82.5z M198.3,72.3c-1.9-1.9-3.8-3.7-5.8-5.4l2-2.4c2.1,1.8,4.1,3.7,6,5.6L198.3,72.3z      M78.3,64.7l-2-2.5c2.1-1.7,4.4-3.3,6.7-4.8l1.7,2.6C82.5,61.5,80.4,63,78.3,64.7z M178.8,57.2c-2.3-1.3-4.7-2.5-7.1-3.7l1.3-2.9     c2.5,1.1,4.9,2.4,7.3,3.8L178.8,57.2z M99.6,52.2l-1.2-2.9c2.5-1.1,5.1-2,7.7-2.8l0.9,3C104.5,50.2,102,51.1,99.6,52.2z      M155.9,48c-2.6-0.6-5.2-1.2-7.8-1.6l0.5-3.1c2.7,0.4,5.4,1,8.1,1.6L155.9,48z M123.4,45.9l-0.4-3.1c2.7-0.3,5.5-0.5,8.2-0.6     l0.1,3.1C128.7,45.4,126,45.6,123.4,45.9z"
   id="path4133" />
		</g>
		<g
   id="g4147">
			<path
   class="st1"
   d="M71.1,294.3h5v9l7.1-9h6l-9.1,11.7l10,14.5h-5.9l-8.1-11.6v11.6h-5V294.3z"
   id="path4137" />
			<path
   class="st1"
   d="M101,314.4l-9.3-20.2h5.6l6.2,14.6l5.1-14.6h5.1l-7,18.7c-1.2,3.2-2.5,5.4-3.9,6.4c-1.4,1.1-2.9,1.6-4.5,1.6     c-2.6,0-5-1.3-7.2-3.8l3.3-3.3c1.3,1.5,2.6,2.3,3.9,2.3c0.6,0,1-0.1,1.4-0.4C100.1,315.5,100.5,315.1,101,314.4z"
   id="path4139" />
			<path
   class="st1"
   d="M117.1,294.3h5.3c2.9,0,4.9,0.3,6.2,0.8c1.3,0.5,2.3,1.4,3,2.6c0.7,1.2,1.1,2.6,1.1,4.2     c0,1.8-0.5,3.3-1.4,4.6c-1,1.2-2.3,2.1-3.9,2.5c-1,0.3-2.7,0.4-5.3,0.4v11.1h-5V294.3z M122.1,304.5h1.6c1.2,0,2.1-0.1,2.6-0.3     c0.5-0.2,0.9-0.5,1.1-0.9c0.3-0.4,0.4-0.9,0.4-1.5c0-1-0.4-1.8-1.2-2.2c-0.6-0.3-1.6-0.5-3.2-0.5h-1.4V304.5z"
   id="path4141" />
			<path
   class="st1"
   d="M161.6,298.9l-3.5,3.3c-2.4-2.5-5-3.8-8-3.8c-2.5,0-4.6,0.9-6.3,2.6c-1.7,1.7-2.6,3.8-2.6,6.3     c0,1.7,0.4,3.3,1.1,4.7c0.8,1.4,1.8,2.4,3.2,3.2c1.4,0.8,2.9,1.2,4.6,1.2c1.4,0,2.8-0.3,4-0.8c1.2-0.5,2.5-1.5,3.9-2.9l3.4,3.5     c-1.9,1.9-3.8,3.2-5.5,3.9c-1.7,0.7-3.7,1.1-5.9,1.1c-4.1,0-7.4-1.3-10-3.9c-2.6-2.6-3.9-5.9-3.9-9.9c0-2.6,0.6-4.9,1.8-7     c1.2-2,2.9-3.7,5.1-4.9c2.2-1.2,4.6-1.9,7.1-1.9c2.2,0,4.2,0.5,6.2,1.4C158.4,295.9,160.1,297.2,161.6,298.9z"
   id="path4143" />
			<path
   class="st1"
   d="M165.9,320.5v-26.2h5v9.9h1.1c2.1,0,3.8,0.2,5.2,0.7c1.4,0.5,2.6,1.4,3.6,2.7c1,1.3,1.5,3,1.5,4.9     c0,1.8-0.4,3.3-1.3,4.6s-1.9,2.1-3,2.6c-1.1,0.5-2.7,0.8-4.7,0.8H165.9z M170.9,308.6v7.1h1.2c2.1,0,3.4-0.3,4.1-0.8     c0.7-0.5,1-1.4,1-2.6c0-2.5-1.8-3.7-5.4-3.7H170.9z M185.9,294.3h5v26.2h-5V294.3z"
   id="path4145" />
		</g>
		<g
   id="g4151">
			<path
   class="st1"
   d="M222.7,206.9l-8.5-5.8c13.2-15.9,21.2-35.2,23.1-55.8l10.1,1.7c0.4-3.9,0.6-7.9,0.6-11.9     c0-16.2-3.4-32-9.8-46.4l-9.4,4.1c-5.1-11.4-12.3-22-21.5-31.1c-19.6-19.6-45.7-30.4-73.4-30.4c-27.7,0-53.8,10.8-73.4,30.4     c-2,2-3.9,4-5.7,6.2l-8.1-6.3C29.4,82.1,20,107.9,20,135.1c0,0.5,0,1,0,1.4l10.2-0.4c0.3,27.3,11,53,30.4,72.4     c19.6,19.6,45.7,30.4,73.4,30.4c6.2,0,12.3-0.5,18.3-1.6l0.9,10.2c23.2-3.9,44.5-14.9,61.5-31.8     C217.5,212.9,220.2,209.9,222.7,206.9z M62.4,206.7c-19.1-19.1-29.7-44.6-29.7-71.6s10.5-52.5,29.7-71.6     C81.5,44.3,107,33.7,134,33.7c27.1,0,52.5,10.5,71.6,29.7c19.1,19.1,29.7,44.6,29.7,71.6s-10.5,52.5-29.7,71.6     c-19.1,19.1-44.6,29.7-71.6,29.7C107,236.4,81.5,225.9,62.4,206.7z"
   id="path4149" />
		</g>
		<g
   id="g4155">
			<path
   class="st1"
   d="M128.6,269.2c-2.7-0.1-5.5-0.3-8.2-0.6l0.3-3.1c2.7,0.3,5.4,0.5,8.1,0.6L128.6,269.2z M141.9,269.1l-0.2-3.1     c2.7-0.2,5.4-0.4,8-0.7l0.4,3.1C147.4,268.7,144.7,268.9,141.9,269.1z M107.2,266.7c-2.7-0.5-5.4-1.2-8-1.9l0.8-3     c2.6,0.7,5.2,1.3,7.9,1.8L107.2,266.7z M163.3,266.1l-0.7-3.1c2.6-0.6,5.2-1.3,7.8-2l0.9,3C168.7,264.8,166,265.5,163.3,266.1z      M86.5,260.7c-2.6-1-5.1-2-7.6-3.2l1.3-2.9c2.4,1.1,5,2.1,7.5,3.1L86.5,260.7z M183.9,259.7l-1.2-2.9c2.5-1,5-2.1,7.4-3.2     l1.4,2.8C189,257.6,186.4,258.7,183.9,259.7z M67,251.4c-2.4-1.4-4.7-2.8-7-4.4l1.7-2.6c2.2,1.5,4.5,2.9,6.9,4.3L67,251.4z      M203.2,250.1l-1.6-2.7c2.3-1.4,4.6-2.9,6.8-4.4l1.8,2.6C207.9,247.2,205.5,248.7,203.2,250.1z M49.2,239.2     c-2.1-1.7-4.2-3.6-6.2-5.4l2.1-2.3c2,1.8,4,3.6,6.1,5.3L49.2,239.2z M220.7,237.5l-2-2.4c2-1.7,4.1-3.6,6-5.4l2.2,2.3     C224.8,233.9,222.8,235.7,220.7,237.5z M33.6,224.2c-1.8-2.1-3.6-4.2-5.3-6.3l2.5-1.9c1.7,2.1,3.4,4.2,5.2,6.2L33.6,224.2z      M236,222.3l-2.4-2c1.7-2,3.4-4.2,5.1-6.3l2.5,1.9C239.5,218,237.7,220.2,236,222.3z M20.7,207c-1.5-2.3-2.9-4.7-4.2-7.1l2.8-1.5     c1.3,2.3,2.7,4.7,4.1,6.9L20.7,207z M248.6,204.8l-2.7-1.6c1.4-2.3,2.7-4.7,4-7l2.8,1.5C251.4,200,250,202.4,248.6,204.8z      M10.6,187.9c-1.1-2.5-2.1-5.1-3-7.7l3-1.1c0.9,2.5,1.9,5,2.9,7.5L10.6,187.9z M258.3,185.5l-2.9-1.2c1-2.5,1.9-5,2.8-7.6l3,1     C260.3,180.3,259.3,182.9,258.3,185.5z M3.8,167.5c-0.7-2.7-1.2-5.4-1.7-8.1l3.1-0.6c0.5,2.6,1,5.3,1.7,7.9L3.8,167.5z      M264.7,164.9l-3.1-0.7c0.6-2.6,1.1-5.3,1.5-7.9l3.1,0.5C265.8,159.5,265.3,162.2,264.7,164.9z M0.3,146.2     c-0.2-2.7-0.4-5.5-0.4-8.3l3.1-0.1c0.1,2.7,0.2,5.4,0.4,8.1L0.3,146.2z M267.7,143.5l-3.1-0.2c0.2-2.7,0.2-5.4,0.2-8.1l0-0.3     l3.1,0l0,0.3C268,138,267.9,140.8,267.7,143.5z M3.4,124.9l-3.1-0.2c0.2-2.7,0.5-5.5,0.9-8.2l3.1,0.4     C3.9,119.5,3.6,122.2,3.4,124.9z M264.2,122c-0.3-2.7-0.6-5.4-1.1-8l3.1-0.5c0.4,2.7,0.8,5.5,1.1,8.2L264.2,122z M6.8,104.1     l-3.1-0.7c0.7-2.7,1.4-5.3,2.2-8l3,0.9C8.1,98.9,7.4,101.5,6.8,104.1z M260.4,101.3c-0.7-2.6-1.5-5.2-2.3-7.7l3-1     c0.9,2.6,1.7,5.3,2.4,7.9L260.4,101.3z M13.4,84.1l-2.9-1.2c1.1-2.5,2.2-5.1,3.5-7.5l2.8,1.4C15.6,79.2,14.4,81.6,13.4,84.1z      M253.3,81.4c-1.1-2.4-2.3-4.9-3.5-7.2l2.8-1.5c1.3,2.4,2.5,4.9,3.6,7.4L253.3,81.4z M23.2,65.4l-2.7-1.7c1.5-2.3,3-4.6,4.6-6.9     l2.6,1.8C26.1,60.9,24.6,63.2,23.2,65.4z M243.1,63c-1.5-2.2-3.1-4.4-4.7-6.6l2.5-1.9c1.7,2.2,3.3,4.5,4.8,6.7L243.1,63z      M35.8,48.6l-2.4-2.1c1.8-2.1,3.7-4.1,5.7-6l2.2,2.2C39.5,44.6,37.6,46.6,35.8,48.6z M230.1,46.4c-1.8-2-3.7-3.9-5.7-5.8l2.2-2.3     c2,1.9,3.9,3.9,5.8,5.9L230.1,46.4z M51,34l-2-2.4c2.1-1.7,4.3-3.4,6.6-5l1.8,2.6C55.2,30.6,53.1,32.3,51,34z M214.6,32.2     c-2.1-1.7-4.3-3.3-6.5-4.8l1.8-2.6c2.3,1.6,4.5,3.2,6.7,4.9L214.6,32.2z M68.3,22l-1.6-2.7c2.4-1.4,4.8-2.7,7.3-3.9l1.4,2.8     C73,19.3,70.6,20.6,68.3,22z M197,20.5c-2.3-1.3-4.8-2.5-7.2-3.7l1.3-2.8c2.5,1.2,5,2.4,7.4,3.8L197,20.5z M87.3,12.9L86.2,10     c2.6-1,5.2-1.9,7.8-2.7l0.9,3C92.4,11.1,89.8,11.9,87.3,12.9z M177.8,11.9c-2.5-0.9-5.1-1.7-7.7-2.5l0.9-3     c2.6,0.8,5.3,1.6,7.9,2.5L177.8,11.9z M107.5,7l-0.6-3.1c2.7-0.6,5.4-1,8.1-1.4l0.4,3.1C112.8,6,110.2,6.5,107.5,7z M157.5,6.5     c-2.6-0.5-5.3-0.9-8-1.2l0.4-3.1c2.7,0.3,5.5,0.7,8.2,1.2L157.5,6.5z M128.4,4.5l-0.1-3.1c2.7-0.1,5.5-0.1,8.3-0.1l-0.1,3.1     C133.8,4.3,131.1,4.4,128.4,4.5z"
   id="path4153" />
		</g>
		<g
   id="g4159">
			<path
   class="st1"
   d="M134.2,54.5c-44.5,0-80.5,36.1-80.5,80.5s36.1,80.5,80.5,80.5s80.5-36.1,80.5-80.5S178.6,54.5,134.2,54.5z      M148.1,179.4h-30.4v-11.2h30.4V179.4z M161.9,126.3c-4.3,11.7-14.2,24.2-14.2,36.6h-29.5c0-12.4-9.9-24.8-14.2-36.6     c-1-2.9-1.6-5.9-1.6-9.1c0.1-15.5,13.8-28.1,30.5-28c16.7-0.1,30.4,12.5,30.5,28C163.5,120.3,162.9,123.4,161.9,126.3z"
   id="path4157" />
		</g>
	</g>
</g>
<path
   style="opacity:0.97600002;fill:#4b477e;fill-opacity:1;stroke:none;stroke-width:1.35934055;stroke-miterlimit:4;stroke-dasharray:none;stroke-opacity:1"
   d="M 116.7749,212.92269 C 100.55641,209.39951 82.554168,198.13802 71.89143,184.84538 61.996004,172.50931 54.0507,150.26899 54.0507,134.90601 c 0,-3.35908 0.875662,-10.23973 1.945915,-15.29034 6.745846,-31.834155 30.853776,-56.027035 62.513045,-62.733325 12.12489,-2.568379 18.68219,-2.553252 31.3939,0.07242 48.33316,9.983487 76.17834,60.428445 58.87868,106.665925 -1.56663,4.18719 -5.90637,11.96745 -9.64388,17.28947 -18.45061,26.27271 -50.83804,38.86087 -82.36346,32.01253 z m 32.2329,-39.33638 v -6.10742 h -15.60784 -15.60783 v 6.10742 6.10741 h 15.60783 15.60784 z m -0.24596,-14.92924 c 0.23796,-2.23939 3.47583,-10.47609 7.19526,-18.3038 3.71944,-7.8277 7.10907,-16.75982 7.53251,-19.84914 2.82633,-20.620346 -18.57583,-36.418229 -40.94727,-30.225001 -7.54487,2.088694 -17.55873,12.321451 -19.64692,20.076401 -2.18207,8.10359 -0.96891,13.36701 6.75349,29.30069 3.61779,7.46462 7.00161,15.88165 7.51961,18.70451 l 0.94181,5.13248 15.10944,-0.38227 15.10943,-0.38226 z"
   id="path4715"
   inkscape:connector-curvature="0" /><path
   style="opacity:0.97600002;fill:#52c1e9;fill-opacity:0.87450981;stroke:none;stroke-width:1.35934055;stroke-miterlimit:4;stroke-dasharray:none;stroke-opacity:1"
   d="M 112.32493,211.07639 C 94.742789,205.44898 77.42756,192.93165 68.949723,179.72009 62.883908,170.26733 56.980276,154.4798 55.437448,143.58547 52.399871,122.1363 61.637521,96.147357 78.175276,79.615505 103.02278,54.776871 137.47476,48.93123 168.68725,64.257881 c 18.82491,9.243829 32.37111,24.199561 40.01854,44.182669 4.29886,11.23309 5.33094,34.30009 2.09502,46.82351 -6.91255,26.75248 -32.44988,51.45298 -58.8061,56.87906 -10.99927,2.26448 -30.9369,1.72835 -39.66978,-1.06673 z m 36.68287,-37.49008 v -6.10742 h -15.60784 -15.60783 v 6.10742 6.10741 h 15.60783 15.60784 z m 0,-13.02369 c 0,-1.56456 3.14467,-10.26763 6.98814,-19.34014 7.66323,-18.08903 9.09845,-25.16275 6.62563,-32.65548 -5.22215,-15.823264 -26.82866,-24.54482 -42.79364,-17.273819 -6.76636,3.081635 -14.74539,11.778969 -16.95872,18.485409 -2.40137,7.27623 -1.12666,13.57316 5.81769,28.73863 3.36313,7.34461 6.81118,15.94948 7.66232,19.12195 l 1.54753,5.76811 h 15.55553 c 14.88814,0 15.55552,-0.12204 15.55552,-2.84466 z"
   id="path4719"
   inkscape:connector-curvature="0" /><path
   style="opacity:0.97600002;fill:#52c1e9;fill-opacity:0.8745098;stroke:none;stroke-width:1.35934055;stroke-miterlimit:4;stroke-dasharray:none;stroke-opacity:1"
   d="M 121.51383,212.25027 C 102.2516,209.90096 76.168995,192.41715 67.117942,175.78738 56.924559,157.05877 53.319898,136.29485 57.311296,119.29817 67.295774,76.781006 108.20324,49.402806 148.82471,58.050864 c 33.42102,7.115128 59.03948,34.326732 62.56134,66.451846 3.09134,28.19815 -4.89321,50.10002 -24.94572,68.42688 -17.79725,16.26567 -38.7799,22.50965 -64.9265,19.32068 z m 27.49397,-38.66396 v -6.10742 h -15.60784 -15.60783 v 6.10742 6.10741 h 15.60783 15.60784 z m 3.19416,-20.70393 c 11.29854,-30.66736 12.04419,-33.28276 11.40009,-39.98607 -0.81961,-8.52982 -6.21063,-15.437341 -15.92357,-20.402903 -16.71413,-8.544782 -35.37063,-2.24105 -43.98505,14.861843 -3.56874,7.08531 -2.6257,13.14791 5.09916,32.78142 4.00779,10.18622 7.65308,19.5892 8.10062,20.89551 0.7106,2.07411 2.75408,2.37427 16.12486,2.36852 l 15.31113,-0.007 z"
   id="path4721"
   inkscape:connector-curvature="0" /><path
   style="opacity:0.97600002;fill:#52c1e9;fill-opacity:0.8745098;stroke:none;stroke-width:1.35934055;stroke-miterlimit:4;stroke-dasharray:none;stroke-opacity:1"
   d="m 31.136831,142.70993 -0.205719,-6.44671 h -5.496208 -5.496207 l 0.841714,-8.48253 c 2.151597,-21.68308 7.753793,-38.34941 18.343478,-54.571181 3.674911,-5.629401 7.055713,-10.235274 7.512891,-10.235274 0.457178,0 2.400946,1.234737 4.319486,2.74386 l 3.488252,2.743861 3.172534,-2.98044 c 5.320807,-4.998638 3.54039,-1.329776 -2.958036,6.095554 -7.093597,8.105394 -15.875545,25.119075 -19.027813,36.86348 -1.202129,4.47877 -2.658856,15.47211 -3.237171,24.42966 -0.578315,8.95754 -1.144056,13.38541 -1.257201,9.83972 z"
   id="path4723"
   inkscape:connector-curvature="0" /><path
   style="opacity:0.97600002;fill:#52c1e9;fill-opacity:0.8745098;stroke:none;stroke-width:1.35934055;stroke-miterlimit:4;stroke-dasharray:none;stroke-opacity:1"
   d="m 235.48269,132.19161 c -0.72445,-13.6179 -2.46596,-22.463 -7.22239,-36.68241 -0.47601,-1.423054 0.74551,-2.59413 3.89309,-3.732309 6.15364,-2.225184 5.77553,-2.413708 8.24213,4.109525 4.90122,12.961864 6.83292,26.445044 6.44208,44.965294 -0.11036,5.22891 -0.14501,5.26159 -4.78106,4.50927 -2.97992,-0.48358 -4.86416,-0.17947 -5.20671,0.84032 -0.29525,0.87898 -0.91046,-5.42538 -1.36714,-14.00969 z"
   id="path4725"
   inkscape:connector-curvature="0" /><path
   style="opacity:0.97600002;fill:#52c1e9;fill-opacity:0.8745098;stroke:none;stroke-width:1.35934055;stroke-miterlimit:4;stroke-dasharray:none;stroke-opacity:1"
   d="m 236.56501,142.37063 c -0.29832,-1.49292 -0.91551,-7.29497 -1.37153,-12.89343 -0.45601,-5.59847 -2.01747,-15.26587 -3.4699,-21.48311 -3.39365,-14.526789 -3.38399,-14.63676 1.43223,-16.315704 3.75244,-1.308109 4.23369,-1.109146 6.11449,2.527916 3.66108,7.079748 6.35377,22.089058 6.56778,36.609428 l 0.20976,14.23197 -4.47021,0.0187 c -3.39297,0.0142 -4.60092,-0.63546 -5.01262,-2.69574 z"
   id="path4727"
   inkscape:connector-curvature="0" /><path
   style="opacity:0.97600002;fill:#52c1e9;fill-opacity:0.8745098;stroke:none;stroke-width:1.35934055;stroke-miterlimit:4;stroke-dasharray:none;stroke-opacity:1"
   d="m 122.54234,212.28848 c -23.067536,-2.86345 -47.735901,-20.57819 -57.684881,-41.42441 -5.058007,-10.5981 -9.504956,-27.42046 -9.473121,-35.83586 0.109408,-28.92177 19.901668,-59.235511 46.680152,-71.495105 41.9082,-19.18621 92.79192,3.759468 106.67439,48.104115 3.87138,12.36634 3.80169,36.36768 -0.13963,48.08057 -3.74218,11.12103 -13.14051,25.06242 -22.54756,33.44679 -8.28163,7.3813 -22.38549,15.35614 -30.93647,17.49264 -8.05725,2.01314 -23.33351,2.77818 -32.57288,1.63126 z m 26.46546,-38.70217 v -6.10742 h -15.60784 -15.60783 v 6.10742 6.10741 h 15.60783 15.60784 z m 5.89497,-28.17874 c 10.431,-28.50892 10.98804,-33.68825 4.63682,-43.11283 -7.05135,-10.4635 -24.63401,-16.256676 -36.97678,-12.183196 -6.55761,2.164209 -15.04479,9.828732 -18.59963,16.796786 -3.82881,7.5051 -2.79513,14.14374 5.42352,34.83146 3.69642,9.3045 7.08064,17.98608 7.5205,19.29239 0.69895,2.07578 2.72932,2.37299 16.11087,2.35834 l 15.31113,-0.0168 z"
   id="path4729"
   inkscape:connector-curvature="0" /><path
   style="opacity:0.97600002;fill:#52c1e9;fill-opacity:0.8745098;stroke:none;stroke-width:1.35934055;stroke-miterlimit:4;stroke-dasharray:none;stroke-opacity:1"
   d="m 153.07941,241.44647 c 0,-3.98096 -0.49451,-4.77228 -3.05371,-4.88648 -1.67953,-0.075 0.78611,-0.97729 5.47922,-2.00518 18.63887,-4.08233 36.94669,-14.18669 50.8345,-28.05632 4.29778,-4.29216 7.81414,-6.99101 7.81414,-5.99746 0,0.99356 1.52686,2.62362 3.39301,3.62235 1.86616,0.99874 3.39301,2.44154 3.39301,3.20624 0,2.19801 -13.5974,14.78982 -22.46202,20.80084 -10.87857,7.37667 -19.80869,11.76142 -30.95117,15.19726 -13.16416,4.05924 -14.44698,3.8922 -14.44698,-1.88125 z"
   id="path4731"
   inkscape:connector-curvature="0" /><path
   style="opacity:0.97600002;fill:#52c1e9;fill-opacity:0.8745098;stroke:none;stroke-width:1.35934055;stroke-miterlimit:4;stroke-dasharray:none;stroke-opacity:1"
   d="m 71.647212,307.27084 c 0,-9.95283 0.377001,-12.21483 2.035805,-12.21483 1.380689,0 2.053554,1.41941 2.090963,4.41091 l 0.05516,4.41091 3.775992,-4.41091 c 2.076795,-2.426 4.829091,-4.41091 6.116212,-4.41091 1.876794,0 1.472685,1.07953 -2.040665,5.45142 l -4.380887,5.45143 4.316932,6.12448 c 4.882024,6.92618 5.040626,7.40233 2.465707,7.40233 -1.018174,0 -3.613825,-2.55291 -5.768114,-5.67313 l -3.91689,-5.67313 -0.417337,5.67313 c -0.282824,3.8446 -1.048354,5.67313 -2.375106,5.67313 -1.560537,0 -1.957769,-2.4784 -1.957769,-12.21483 z"
   id="path4733"
   inkscape:connector-curvature="0" /><path
   style="opacity:0.97600002;fill:#52c1e9;fill-opacity:0.8745098;stroke:none;stroke-width:0.67967027;stroke-miterlimit:4;stroke-dasharray:none;stroke-opacity:1"
   d="m 95.262337,319.88198 c -3.233927,-1.45142 -3.981486,-2.72149 -2.428897,-4.12656 1.017612,-0.92093 1.594384,-1.01657 2.667398,-0.44231 1.952636,1.04502 4.827602,0.90538 5.273322,-0.25613 0.20869,-0.54385 -1.207046,-4.43733 -3.146085,-8.65217 -1.939041,-4.21484 -3.963702,-8.67496 -4.499248,-9.91137 l -0.973719,-2.24803 2.509972,0.21222 c 2.48903,0.21045 2.534105,0.26884 5.40221,6.99824 1.59073,3.7323 3.14534,6.71889 3.45468,6.63685 0.30935,-0.082 1.63125,-3.21037 2.93756,-6.95182 2.37176,-6.79308 2.37831,-6.80266 4.65316,-6.8065 1.89649,-0.003 2.19953,0.19506 1.80923,1.1837 -0.25786,0.65316 -2.14717,5.65803 -4.19847,11.12194 -3.95507,10.53489 -5.74819,13.16434 -9.41379,13.80451 -1.10619,0.19319 -2.927485,-0.06 -4.047323,-0.56257 z"
   id="path4735"
   inkscape:connector-curvature="0" /><path
   style="opacity:0.97600002;fill:#52c1e9;fill-opacity:0.8745098;stroke:none;stroke-width:0.67967027;stroke-miterlimit:4;stroke-dasharray:none;stroke-opacity:1"
   d="m 117.31715,307.22398 v -12.89343 l 3.22336,0.0162 c 7.80828,0.0392 11.70588,2.51451 11.70588,7.4342 0,3.94573 -2.5553,6.64237 -6.83178,7.20967 l -3.34724,0.44402 v 5.34139 5.34139 h -2.37511 -2.37511 z m 10.44575,-4.24126 c 1.20968,-1.93024 -0.29982,-3.52971 -3.55919,-3.77133 l -2.81495,-0.20867 v 2.79245 2.79244 l 2.81495,-0.20867 c 1.77351,-0.13147 3.09029,-0.64802 3.55919,-1.39622 z"
   id="path4737"
   inkscape:connector-curvature="0" /><path
   style="opacity:0.97600002;fill:#52c1e9;fill-opacity:0.8745098;stroke:none;stroke-width:0.67967027;stroke-miterlimit:4;stroke-dasharray:none;stroke-opacity:1"
   d=""
   id="path4739"
   inkscape:connector-curvature="0" /><path
   style="opacity:0.97600002;fill:#52c1e9;fill-opacity:0.8745098;stroke:none;stroke-width:0.67967027;stroke-miterlimit:4;stroke-dasharray:none;stroke-opacity:1"
   d="m 144.12192,319.51343 c -11.29352,-5.2123 -9.84221,-21.41974 2.23238,-24.92992 4.51549,-1.31269 9.03691,-0.41885 12.43888,2.45905 l 2.29378,1.94042 -1.40215,1.4322 -1.40216,1.43219 -1.91296,-1.50473 c -2.58018,-2.02957 -8.49487,-2.5547 -10.91485,-0.96907 -4.21868,2.76418 -5.61842,8.87542 -3.01203,13.15041 2.63714,4.32542 9.3605,5.37278 13.73383,2.13944 l 2.00665,-1.48359 1.39599,1.39599 c 1.72674,1.72674 1.0229,2.79813 -3.17239,4.82904 -3.59482,1.74022 -8.65281,1.78492 -12.28497,0.10857 z"
   id="path4741"
   inkscape:connector-curvature="0" /><path
   style="opacity:0.97600002;fill:#52c1e9;fill-opacity:0.8745098;stroke:none;stroke-width:0.67967027;stroke-miterlimit:4;stroke-dasharray:none;stroke-opacity:1"
   d="m 166.17647,307.22398 v -12.89343 h 2.37511 2.37511 v 5.08951 5.08951 h 2.0576 c 2.85337,0 6.37443,1.58918 7.69343,3.47232 1.3009,1.85729 1.44307,5.90436 0.29588,8.42217 -1.22716,2.69333 -3.8845,3.71335 -9.67391,3.71335 h -5.12322 z m 10.17903,7.46462 c 1.63334,-1.63334 1.69696,-2.60596 0.30082,-4.59922 -0.74385,-1.06199 -1.74768,-1.5082 -3.39301,-1.5082 h -2.33662 v 3.73231 c 0,3.69461 0.0206,3.73231 2.0358,3.73231 1.131,0 2.63901,-0.6032 3.39301,-1.3572 z"
   id="path4743"
   inkscape:connector-curvature="0" /><path
   style="opacity:0.97600002;fill:#52c1e9;fill-opacity:0.8745098;stroke:none;stroke-width:0.67967027;stroke-miterlimit:4;stroke-dasharray:none;stroke-opacity:1"
   d="m 185.85592,307.22398 v -12.89343 h 2.37511 2.3751 v 12.89343 12.89343 h -2.3751 -2.37511 z"
   id="path4745"
   inkscape:connector-curvature="0" /><path
   style="opacity:0.97600002;fill:#52c1e9;fill-opacity:0.8745098;stroke:none;stroke-width:0.67967027;stroke-miterlimit:4;stroke-dasharray:none;stroke-opacity:1"
   d="M 225.06427,90.037306 C 221.71712,83.081511 215.50132,73.906675 210.0533,67.88035 194.73623,50.937384 176.68523,40.375334 154.62727,35.449339 147.87981,33.942492 128.33252,33.328164 120.4616,34.375588 99.713342,37.136667 79.117578,46.970165 64.649284,61.023318 c -2.661138,2.584781 -3.562192,3.127501 -3.868254,2.329916 -0.545711,-1.422099 7.607927,-8.88575 15.403976,-14.100442 11.299985,-7.558436 23.390836,-12.629105 37.299564,-15.642714 9.33548,-2.022722 30.17753,-2.190174 39.43455,-0.316831 31.41494,6.357438 57.22664,25.436932 72.77299,53.792332 2.6375,4.810591 3.2213,6.399019 2.64176,7.187809 -0.60101,0.818009 -1.22921,0.0041 -3.2696,-4.236082 z"
   id="path4747"
   inkscape:connector-curvature="0" /><path
   style="opacity:0.97600002;fill:#52c1e9;fill-opacity:0.8745098;stroke:none;stroke-width:0.67967027;stroke-miterlimit:4;stroke-dasharray:none;stroke-opacity:1"
   d=""
   id="path4749"
   inkscape:connector-curvature="0" /><path
   style="opacity:0.97600002;fill:#52c1e9;fill-opacity:0.8745098;stroke:none;stroke-width:0.67967027;stroke-miterlimit:4;stroke-dasharray:none;stroke-opacity:1"
   d="M 124.44247,238.26394 C 106.56935,236.34421 87.995795,229.37391 73.689392,219.2173 66.582301,214.17173 54.985019,202.58093 49.958162,195.49933 38.296526,179.07098 29.754117,154.27479 31.63892,142.32377 l 0.588625,-3.7323 0.511547,5.08951 c 3.661656,36.43081 24.907847,67.23254 57.094695,82.7732 8.102395,3.91206 17.751713,7.07167 26.313753,8.61628 6.79076,1.22506 24.68003,1.62977 30.9178,0.69944 2.47548,-0.3692 3.48315,-0.31549 3.18331,0.16966 -0.24129,0.39041 -0.0389,0.7411 0.44959,0.77931 0.48856,0.0382 -0.1805,0.34011 -1.48681,0.67089 -2.69626,0.68276 -20.65135,1.31645 -24.76896,0.87418 z"
   id="path4751"
   inkscape:connector-curvature="0" /><path
   style="opacity:0.97600002;fill:#52c1e9;fill-opacity:0.8745098;stroke:none;stroke-width:0.67967027;stroke-miterlimit:4;stroke-dasharray:none;stroke-opacity:1"
   d=""
   id="path4753"
   inkscape:connector-curvature="0" /><path
   style="opacity:0.97600002;fill:#52c1e9;fill-opacity:0.8745098;stroke:none;stroke-width:0.67967027;stroke-miterlimit:4;stroke-dasharray:none;stroke-opacity:1"
   d=""
   id="path4755"
   inkscape:connector-curvature="0" /><path
   style="opacity:0.97600002;fill:#52c1e9;fill-opacity:0.8745098;stroke:none;stroke-width:0.67967027;stroke-miterlimit:4;stroke-dasharray:none;stroke-opacity:1"
   d=""
   id="path4757"
   inkscape:connector-curvature="0" /><path
   style="opacity:0.97600002;fill:#52c1e9;fill-opacity:0.8745098;stroke:none;stroke-width:0.67967027;stroke-miterlimit:4;stroke-dasharray:none;stroke-opacity:1"
   d=""
   id="path4759"
   inkscape:connector-curvature="0" /><path
   style="opacity:0.97600002;fill:#52c1e9;fill-opacity:0.8745098;stroke:none;stroke-width:0.67967027;stroke-miterlimit:4;stroke-dasharray:none;stroke-opacity:1"
   d="m 213.4518,198.13876 c 7.2198,-8.85379 13.24173,-19.97581 16.95755,-31.31919 2.32879,-7.10916 4.90364,-20.00823 5.07253,-25.41148 0.0619,-1.98099 0.26437,-1.30667 0.68239,2.27289 1.44799,12.39936 -6.31333,35.29914 -17.05847,50.33104 -3.20479,4.48333 -6.96054,8.0287 -8.50513,8.0287 -0.18189,0 1.10112,-1.75588 2.85113,-3.90196 z"
   id="path4761"
   inkscape:connector-curvature="0" /></svg>