<?xml version="1.0" encoding="UTF-8" standalone="no"?>
<!-- Generator: Adobe Illustrator 22.0.1, SVG Export Plug-In . SVG Version: 6.00 Build 0)  -->

<svg
   xmlns:dc="http://purl.org/dc/elements/1.1/"
   xmlns:cc="http://creativecommons.org/ns#"
   xmlns:rdf="http://www.w3.org/1999/02/22-rdf-syntax-ns#"
   xmlns:svg="http://www.w3.org/2000/svg"
   xmlns="http://www.w3.org/2000/svg"
   xmlns:sodipodi="http://sodipodi.sourceforge.net/DTD/sodipodi-0.dtd"
   xmlns:inkscape="http://www.inkscape.org/namespaces/inkscape"
   version="1.1"
   id="Слой_1"
   x="0px"
   y="0px"
   viewBox="0 0 268.7 320.3"
   style="enable-background:new 0 0 268.7 320.3;"
   xml:space="preserve"
   sodipodi:docname="courses.svg"
   inkscape:version="0.92.4 (5da689c313, 2019-01-14)"><metadata
   id="metadata4170"><rdf:RDF><cc:Work
       rdf:about=""><dc:format>image/svg+xml</dc:format><dc:type
         rdf:resource="http://purl.org/dc/dcmitype/StillImage" /><dc:title></dc:title></cc:Work></rdf:RDF></metadata><defs
   id="defs4168" /><sodipodi:namedview
   pagecolor="#ffffff"
   bordercolor="#666666"
   borderopacity="1"
   objecttolerance="10"
   gridtolerance="10"
   guidetolerance="10"
   inkscape:pageopacity="0"
   inkscape:pageshadow="2"
   inkscape:window-width="1105"
   inkscape:window-height="674"
   id="namedview4166"
   showgrid="false"
   inkscape:zoom="1.4736185"
   inkscape:cx="104.55944"
   inkscape:cy="174.45355"
   inkscape:window-x="497"
   inkscape:window-y="142"
   inkscape:window-maximized="0"
   inkscape:current-layer="Слой_1" />
<style
   type="text/css"
   id="style4129">
	.st0{fill:#FFFFFF;}
	.st1{fill:#2589C2;}
</style>
<g
   id="g4163">
	<g
   id="g4161">
		<path
   class="st0"
   d="M62.4,206.7c-19.1-19.1-29.7-44.6-29.7-71.6s10.5-52.5,29.7-71.6C81.5,44.3,107,33.7,134,33.7    c27.1,0,52.5,10.5,71.6,29.7c19.1,19.1,29.7,44.6,29.7,71.6s-10.5,52.5-29.7,71.6c-19.1,19.1-44.6,29.7-71.6,29.7    C107,236.4,81.5,225.9,62.4,206.7z"
   id="path4131" />
		<g
   id="g4135">
			<path
   class="st1"
   d="M134.1,228.6c-2.7,0-5.5-0.1-8.2-0.4l0.3-3.1c2.6,0.2,5.3,0.3,7.9,0.3V228.6z M147.8,227.6l-0.5-3.1     c2.6-0.4,5.2-0.9,7.8-1.5l0.7,3.1C153.2,226.6,150.5,227.2,147.8,227.6z M108.8,225.1c-2.6-0.7-5.3-1.6-7.8-2.6l1.1-2.9     c2.5,0.9,5,1.8,7.6,2.5L108.8,225.1z M172.3,220.4l-1.3-2.9c2.4-1.1,4.8-2.3,7.1-3.6l1.5,2.7C177.3,218,174.8,219.2,172.3,220.4z      M85.4,214.8c-2.3-1.4-4.6-3-6.8-4.6l1.9-2.5c2.1,1.6,4.3,3.1,6.6,4.5L85.4,214.8z M193.9,206.8l-2-2.4c2-1.7,4-3.5,5.9-5.4     l2.2,2.2C198.1,203.1,196,205,193.9,206.8z M65.6,198.6c-1.9-2-3.6-4.1-5.3-6.3l2.5-1.9c1.6,2.1,3.3,4.1,5.1,6.1L65.6,198.6z      M211.1,187.8l-2.6-1.8c1.5-2.2,2.9-4.5,4.2-6.8l2.7,1.5C214.1,183.2,212.6,185.6,211.1,187.8z M51,177.7c-1.2-2.4-2.4-5-3.4-7.5     l2.9-1.2c1,2.4,2.1,4.9,3.3,7.2L51,177.7z M222.5,165l-3-1c0.8-2.5,1.6-5.1,2.2-7.6l3.1,0.7C224.1,159.7,223.3,162.4,222.5,165z      M42.6,153.6c-0.5-2.7-1-5.4-1.2-8.1l3.1-0.3c0.3,2.6,0.7,5.3,1.2,7.9L42.6,153.6z M227.2,139.9l-3.1-0.2     c0.1-1.4,0.1-2.9,0.1-4.4c0-1.2,0-2.4-0.1-3.6l3.1-0.1c0,1.2,0.1,2.5,0.1,3.7C227.3,136.9,227.2,138.4,227.2,139.9z M44.3,128.3     l-3.1-0.2c0.2-2.7,0.5-5.5,1-8.2l3.1,0.5C44.8,123,44.5,125.7,44.3,128.3z M221.8,115.1c-0.6-2.6-1.3-5.2-2.1-7.7l3-1     c0.8,2.6,1.6,5.3,2.2,7.9L221.8,115.1z M49.5,104.2l-3-1.1c0.9-2.6,2-5.1,3.2-7.6l2.8,1.4C51.5,99.3,50.4,101.7,49.5,104.2z      M213,92.1c-1.3-2.3-2.7-4.6-4.1-6.8l2.6-1.8c1.5,2.3,3,4.6,4.3,7L213,92.1z M61.2,82.5l-2.5-1.9c1.6-2.2,3.3-4.4,5.1-6.4     l2.4,2.1C64.4,78.2,62.7,80.3,61.2,82.5z M198.3,72.3c-1.9-1.9-3.8-3.7-5.8-5.4l2-2.4c2.1,1.8,4.1,3.7,6,5.6L198.3,72.3z      M78.3,64.7l-2-2.5c2.1-1.7,4.4-3.3,6.7-4.8l1.7,2.6C82.5,61.5,80.4,63,78.3,64.7z M178.8,57.2c-2.3-1.3-4.7-2.5-7.1-3.7l1.3-2.9     c2.5,1.1,4.9,2.4,7.3,3.8L178.8,57.2z M99.6,52.2l-1.2-2.9c2.5-1.1,5.1-2,7.7-2.8l0.9,3C104.5,50.2,102,51.1,99.6,52.2z      M155.9,48c-2.6-0.6-5.2-1.2-7.8-1.6l0.5-3.1c2.7,0.4,5.4,1,8.1,1.6L155.9,48z M123.4,45.9l-0.4-3.1c2.7-0.3,5.5-0.5,8.2-0.6     l0.1,3.1C128.7,45.4,126,45.6,123.4,45.9z"
   id="path4133" />
		</g>
		<g
   id="g4147">
			<path
   class="st1"
   d="M71.1,294.3h5v9l7.1-9h6l-9.1,11.7l10,14.5h-5.9l-8.1-11.6v11.6h-5V294.3z"
   id="path4137" />
			<path
   class="st1"
   d="M101,314.4l-9.3-20.2h5.6l6.2,14.6l5.1-14.6h5.1l-7,18.7c-1.2,3.2-2.5,5.4-3.9,6.4c-1.4,1.1-2.9,1.6-4.5,1.6     c-2.6,0-5-1.3-7.2-3.8l3.3-3.3c1.3,1.5,2.6,2.3,3.9,2.3c0.6,0,1-0.1,1.4-0.4C100.1,315.5,100.5,315.1,101,314.4z"
   id="path4139" />
			<path
   class="st1"
   d="M117.1,294.3h5.3c2.9,0,4.9,0.3,6.2,0.8c1.3,0.5,2.3,1.4,3,2.6c0.7,1.2,1.1,2.6,1.1,4.2     c0,1.8-0.5,3.3-1.4,4.6c-1,1.2-2.3,2.1-3.9,2.5c-1,0.3-2.7,0.4-5.3,0.4v11.1h-5V294.3z M122.1,304.5h1.6c1.2,0,2.1-0.1,2.6-0.3     c0.5-0.2,0.9-0.5,1.1-0.9c0.3-0.4,0.4-0.9,0.4-1.5c0-1-0.4-1.8-1.2-2.2c-0.6-0.3-1.6-0.5-3.2-0.5h-1.4V304.5z"
   id="path4141" />
			<path
   class="st1"
   d="M161.6,298.9l-3.5,3.3c-2.4-2.5-5-3.8-8-3.8c-2.5,0-4.6,0.9-6.3,2.6c-1.7,1.7-2.6,3.8-2.6,6.3     c0,1.7,0.4,3.3,1.1,4.7c0.8,1.4,1.8,2.4,3.2,3.2c1.4,0.8,2.9,1.2,4.6,1.2c1.4,0,2.8-0.3,4-0.8c1.2-0.5,2.5-1.5,3.9-2.9l3.4,3.5     c-1.9,1.9-3.8,3.2-5.5,3.9c-1.7,0.7-3.7,1.1-5.9,1.1c-4.1,0-7.4-1.3-10-3.9c-2.6-2.6-3.9-5.9-3.9-9.9c0-2.6,0.6-4.9,1.8-7     c1.2-2,2.9-3.7,5.1-4.9c2.2-1.2,4.6-1.9,7.1-1.9c2.2,0,4.2,0.5,6.2,1.4C158.4,295.9,160.1,297.2,161.6,298.9z"
   id="path4143" />
			<path
   class="st1"
   d="M165.9,320.5v-26.2h5v9.9h1.1c2.1,0,3.8,0.2,5.2,0.7c1.4,0.5,2.6,1.4,3.6,2.7c1,1.3,1.5,3,1.5,4.9     c0,1.8-0.4,3.3-1.3,4.6s-1.9,2.1-3,2.6c-1.1,0.5-2.7,0.8-4.7,0.8H165.9z M170.9,308.6v7.1h1.2c2.1,0,3.4-0.3,4.1-0.8     c0.7-0.5,1-1.4,1-2.6c0-2.5-1.8-3.7-5.4-3.7H170.9z M185.9,294.3h5v26.2h-5V294.3z"
   id="path4145" />
		</g>
		<g
   id="g4151">
			<path
   class="st1"
   d="M222.7,206.9l-8.5-5.8c13.2-15.9,21.2-35.2,23.1-55.8l10.1,1.7c0.4-3.9,0.6-7.9,0.6-11.9     c0-16.2-3.4-32-9.8-46.4l-9.4,4.1c-5.1-11.4-12.3-22-21.5-31.1c-19.6-19.6-45.7-30.4-73.4-30.4c-27.7,0-53.8,10.8-73.4,30.4     c-2,2-3.9,4-5.7,6.2l-8.1-6.3C29.4,82.1,20,107.9,20,135.1c0,0.5,0,1,0,1.4l10.2-0.4c0.3,27.3,11,53,30.4,72.4     c19.6,19.6,45.7,30.4,73.4,30.4c6.2,0,12.3-0.5,18.3-1.6l0.9,10.2c23.2-3.9,44.5-14.9,61.5-31.8     C217.5,212.9,220.2,209.9,222.7,206.9z M62.4,206.7c-19.1-19.1-29.7-44.6-29.7-71.6s10.5-52.5,29.7-71.6     C81.5,44.3,107,33.7,134,33.7c27.1,0,52.5,10.5,71.6,29.7c19.1,19.1,29.7,44.6,29.7,71.6s-10.5,52.5-29.7,71.6     c-19.1,19.1-44.6,29.7-71.6,29.7C107,236.4,81.5,225.9,62.4,206.7z"
   id="path4149" />
		</g>
		<g
   id="g4155">
			<path
   class="st1"
   d="M128.6,269.2c-2.7-0.1-5.5-0.3-8.2-0.6l0.3-3.1c2.7,0.3,5.4,0.5,8.1,0.6L128.6,269.2z M141.9,269.1l-0.2-3.1     c2.7-0.2,5.4-0.4,8-0.7l0.4,3.1C147.4,268.7,144.7,268.9,141.9,269.1z M107.2,266.7c-2.7-0.5-5.4-1.2-8-1.9l0.8-3     c2.6,0.7,5.2,1.3,7.9,1.8L107.2,266.7z M163.3,266.1l-0.7-3.1c2.6-0.6,5.2-1.3,7.8-2l0.9,3C168.7,264.8,166,265.5,163.3,266.1z      M86.5,260.7c-2.6-1-5.1-2-7.6-3.2l1.3-2.9c2.4,1.1,5,2.1,7.5,3.1L86.5,260.7z M183.9,259.7l-1.2-2.9c2.5-1,5-2.1,7.4-3.2     l1.4,2.8C189,257.6,186.4,258.7,183.9,259.7z M67,251.4c-2.4-1.4-4.7-2.8-7-4.4l1.7-2.6c2.2,1.5,4.5,2.9,6.9,4.3L67,251.4z      M203.2,250.1l-1.6-2.7c2.3-1.4,4.6-2.9,6.8-4.4l1.8,2.6C207.9,247.2,205.5,248.7,203.2,250.1z M49.2,239.2     c-2.1-1.7-4.2-3.6-6.2-5.4l2.1-2.3c2,1.8,4,3.6,6.1,5.3L49.2,239.2z M220.7,237.5l-2-2.4c2-1.7,4.1-3.6,6-5.4l2.2,2.3     C224.8,233.9,222.8,235.7,220.7,237.5z M33.6,224.2c-1.8-2.1-3.6-4.2-5.3-6.3l2.5-1.9c1.7,2.1,3.4,4.2,5.2,6.2L33.6,224.2z      M236,222.3l-2.4-2c1.7-2,3.4-4.2,5.1-6.3l2.5,1.9C239.5,218,237.7,220.2,236,222.3z M20.7,207c-1.5-2.3-2.9-4.7-4.2-7.1l2.8-1.5     c1.3,2.3,2.7,4.7,4.1,6.9L20.7,207z M248.6,204.8l-2.7-1.6c1.4-2.3,2.7-4.7,4-7l2.8,1.5C251.4,200,250,202.4,248.6,204.8z      M10.6,187.9c-1.1-2.5-2.1-5.1-3-7.7l3-1.1c0.9,2.5,1.9,5,2.9,7.5L10.6,187.9z M258.3,185.5l-2.9-1.2c1-2.5,1.9-5,2.8-7.6l3,1     C260.3,180.3,259.3,182.9,258.3,185.5z M3.8,167.5c-0.7-2.7-1.2-5.4-1.7-8.1l3.1-0.6c0.5,2.6,1,5.3,1.7,7.9L3.8,167.5z      M264.7,164.9l-3.1-0.7c0.6-2.6,1.1-5.3,1.5-7.9l3.1,0.5C265.8,159.5,265.3,162.2,264.7,164.9z M0.3,146.2     c-0.2-2.7-0.4-5.5-0.4-8.3l3.1-0.1c0.1,2.7,0.2,5.4,0.4,8.1L0.3,146.2z M267.7,143.5l-3.1-0.2c0.2-2.7,0.2-5.4,0.2-8.1l0-0.3     l3.1,0l0,0.3C268,138,267.9,140.8,267.7,143.5z M3.4,124.9l-3.1-0.2c0.2-2.7,0.5-5.5,0.9-8.2l3.1,0.4     C3.9,119.5,3.6,122.2,3.4,124.9z M264.2,122c-0.3-2.7-0.6-5.4-1.1-8l3.1-0.5c0.4,2.7,0.8,5.5,1.1,8.2L264.2,122z M6.8,104.1     l-3.1-0.7c0.7-2.7,1.4-5.3,2.2-8l3,0.9C8.1,98.9,7.4,101.5,6.8,104.1z M260.4,101.3c-0.7-2.6-1.5-5.2-2.3-7.7l3-1     c0.9,2.6,1.7,5.3,2.4,7.9L260.4,101.3z M13.4,84.1l-2.9-1.2c1.1-2.5,2.2-5.1,3.5-7.5l2.8,1.4C15.6,79.2,14.4,81.6,13.4,84.1z      M253.3,81.4c-1.1-2.4-2.3-4.9-3.5-7.2l2.8-1.5c1.3,2.4,2.5,4.9,3.6,7.4L253.3,81.4z M23.2,65.4l-2.7-1.7c1.5-2.3,3-4.6,4.6-6.9     l2.6,1.8C26.1,60.9,24.6,63.2,23.2,65.4z M243.1,63c-1.5-2.2-3.1-4.4-4.7-6.6l2.5-1.9c1.7,2.2,3.3,4.5,4.8,6.7L243.1,63z      M35.8,48.6l-2.4-2.1c1.8-2.1,3.7-4.1,5.7-6l2.2,2.2C39.5,44.6,37.6,46.6,35.8,48.6z M230.1,46.4c-1.8-2-3.7-3.9-5.7-5.8l2.2-2.3     c2,1.9,3.9,3.9,5.8,5.9L230.1,46.4z M51,34l-2-2.4c2.1-1.7,4.3-3.4,6.6-5l1.8,2.6C55.2,30.6,53.1,32.3,51,34z M214.6,32.2     c-2.1-1.7-4.3-3.3-6.5-4.8l1.8-2.6c2.3,1.6,4.5,3.2,6.7,4.9L214.6,32.2z M68.3,22l-1.6-2.7c2.4-1.4,4.8-2.7,7.3-3.9l1.4,2.8     C73,19.3,70.6,20.6,68.3,22z M197,20.5c-2.3-1.3-4.8-2.5-7.2-3.7l1.3-2.8c2.5,1.2,5,2.4,7.4,3.8L197,20.5z M87.3,12.9L86.2,10     c2.6-1,5.2-1.9,7.8-2.7l0.9,3C92.4,11.1,89.8,11.9,87.3,12.9z M177.8,11.9c-2.5-0.9-5.1-1.7-7.7-2.5l0.9-3     c2.6,0.8,5.3,1.6,7.9,2.5L177.8,11.9z M107.5,7l-0.6-3.1c2.7-0.6,5.4-1,8.1-1.4l0.4,3.1C112.8,6,110.2,6.5,107.5,7z M157.5,6.5     c-2.6-0.5-5.3-0.9-8-1.2l0.4-3.1c2.7,0.3,5.5,0.7,8.2,1.2L157.5,6.5z M128.4,4.5l-0.1-3.1c2.7-0.1,5.5-0.1,8.3-0.1l-0.1,3.1     C133.8,4.3,131.1,4.4,128.4,4.5z"
   id="path4153" />
		</g>
		<g
   id="g4159">
			<path
   class="st1"
   d="M134.2,54.5c-44.5,0-80.5,36.1-80.5,80.5s36.1,80.5,80.5,80.5s80.5-36.1,80.5-80.5S178.6,54.5,134.2,54.5z      M148.1,179.4h-30.4v-11.2h30.4V179.4z M161.9,126.3c-4.3,11.7-14.2,24.2-14.2,36.6h-29.5c0-12.4-9.9-24.8-14.2-36.6     c-1-2.9-1.6-5.9-1.6-9.1c0.1-15.5,13.8-28.1,30.5-28c16.7-0.1,30.4,12.5,30.5,28C163.5,120.3,162.9,123.4,161.9,126.3z"
   id="path4157" />
		</g>
	</g>
</g>
</svg>