<?xml version="1.0" encoding="utf-8"?>
<!-- Generator: Adobe Illustrator 22.0.1, SVG Export Plug-In . SVG Version: 6.00 Build 0)  -->
<svg version="1.1" id="Слой_1" xmlns="http://www.w3.org/2000/svg" xmlns:xlink="http://www.w3.org/1999/xlink" x="0px" y="0px"
	 viewBox="0 0 272.7 324.3" style="enable-background:new 0 0 272.7 324.3;" xml:space="preserve">
<style type="text/css">
	.st0{fill:#FFFFFF;}
	.st1{fill:#2589C2;}
</style>
<g>
	<path class="st0" d="M64,207.6c-19.1-19.1-29.7-44.6-29.7-71.6S44.9,83.4,64,64.3c19.1-19.1,44.6-29.7,71.6-29.7
		c27.1,0,52.5,10.5,71.6,29.7c19.1,19.1,29.7,44.6,29.7,71.6s-10.5,52.5-29.7,71.6c-19.1,19.1-44.6,29.7-71.6,29.7
		C108.6,237.2,83.1,226.7,64,207.6z"/>
	<g>
		<path class="st1" d="M135.7,229.4c-2.7,0-5.5-0.1-8.2-0.4l0.3-3.1c2.6,0.2,5.3,0.3,7.9,0.3V229.4z M149.4,228.4l-0.5-3.1
			c2.6-0.4,5.2-0.9,7.8-1.5l0.7,3.1C154.8,227.5,152.1,228,149.4,228.4z M110.4,225.9c-2.6-0.7-5.3-1.6-7.8-2.6l1.1-2.9
			c2.5,0.9,5,1.8,7.6,2.5L110.4,225.9z M173.9,221.2l-1.3-2.9c2.4-1.1,4.8-2.3,7.1-3.6l1.5,2.7C178.9,218.8,176.4,220.1,173.9,221.2
			z M87,215.7c-2.3-1.4-4.6-3-6.8-4.6l1.9-2.5c2.1,1.6,4.3,3.1,6.6,4.5L87,215.7z M195.5,207.6l-2-2.4c2-1.7,4-3.5,5.9-5.4l2.2,2.2
			C199.7,204,197.6,205.9,195.5,207.6z M67.2,199.5c-1.9-2-3.6-4.1-5.3-6.3l2.5-1.9c1.6,2.1,3.3,4.1,5.1,6.1L67.2,199.5z
			 M212.7,188.7l-2.6-1.8c1.5-2.2,2.9-4.5,4.2-6.8l2.7,1.5C215.7,184.1,214.2,186.4,212.7,188.7z M52.6,178.5
			c-1.2-2.4-2.4-5-3.4-7.5l2.9-1.2c1,2.4,2.1,4.9,3.3,7.2L52.6,178.5z M224.1,165.8l-3-1c0.8-2.5,1.6-5.1,2.2-7.6l3.1,0.7
			C225.7,160.6,224.9,163.2,224.1,165.8z M44.2,154.4c-0.5-2.7-1-5.4-1.2-8.1l3.1-0.3c0.3,2.6,0.7,5.3,1.2,7.9L44.2,154.4z
			 M228.8,140.7l-3.1-0.2c0.1-1.4,0.1-2.9,0.1-4.4c0-1.2,0-2.4-0.1-3.6l3.1-0.1c0,1.2,0.1,2.5,0.1,3.7
			C228.9,137.7,228.9,139.2,228.8,140.7z M45.9,129.2l-3.1-0.2c0.2-2.7,0.5-5.5,1-8.2l3.1,0.5C46.4,123.9,46.1,126.5,45.9,129.2z
			 M223.5,116c-0.6-2.6-1.3-5.2-2.1-7.7l3-1c0.8,2.6,1.6,5.3,2.2,7.9L223.5,116z M51.1,105.1l-3-1.1c0.9-2.6,2-5.1,3.2-7.6l2.8,1.4
			C53.1,100.1,52.1,102.6,51.1,105.1z M214.7,92.9c-1.3-2.3-2.7-4.6-4.1-6.8l2.6-1.8c1.5,2.3,3,4.6,4.3,7L214.7,92.9z M62.8,83.3
			l-2.5-1.9c1.6-2.2,3.3-4.4,5.1-6.4l2.4,2.1C66,79.1,64.4,81.2,62.8,83.3z M199.9,73.1c-1.9-1.9-3.8-3.7-5.8-5.4l2-2.4
			c2.1,1.8,4.1,3.7,6,5.6L199.9,73.1z M79.9,65.5L78,63c2.1-1.7,4.4-3.3,6.7-4.8l1.7,2.6C84.2,62.3,82,63.9,79.9,65.5z M180.4,58
			c-2.3-1.3-4.7-2.5-7.1-3.7l1.3-2.9c2.5,1.1,4.9,2.4,7.3,3.8L180.4,58z M101.2,53l-1.2-2.9c2.5-1.1,5.1-2,7.7-2.8l0.9,3
			C106.1,51.1,103.6,52,101.2,53z M157.5,48.8c-2.6-0.6-5.2-1.2-7.8-1.6l0.5-3.1c2.7,0.4,5.4,1,8.1,1.6L157.5,48.8z M125,46.8
			l-0.4-3.1c2.7-0.3,5.5-0.5,8.2-0.6l0.1,3.1C130.3,46.3,127.7,46.5,125,46.8z"/>
	</g>
	<g>
		<path class="st1" d="M3.4,321.3v-26.2h4.1c2.4,0,4.1,0.2,5.2,0.5c1.6,0.4,2.8,1.2,3.7,2.3c0.9,1.1,1.4,2.5,1.4,4
			c0,1-0.2,1.9-0.6,2.7c-0.4,0.8-1.1,1.6-2.1,2.3c1.6,0.7,2.8,1.7,3.5,2.8c0.7,1.1,1.1,2.4,1.1,4c0,1.5-0.4,2.8-1.1,4
			c-0.8,1.2-1.7,2.1-2.9,2.7c-1.2,0.6-2.9,0.9-5,0.9H3.4z M8.4,299.9v5.5h1.1c1.2,0,2.1-0.3,2.7-0.8c0.6-0.5,0.9-1.2,0.9-2.1
			c0-0.8-0.3-1.5-0.8-1.9c-0.6-0.5-1.4-0.7-2.6-0.7H8.4z M8.4,309.8v6.7h1.2c2.1,0,3.5-0.3,4.2-0.8c0.7-0.5,1.1-1.3,1.1-2.3
			c0-1.1-0.4-2-1.3-2.7c-0.8-0.7-2.2-1-4.2-1H8.4z"/>
		<path class="st1" d="M36.9,294.4c3.7,0,6.9,1.3,9.6,4c2.7,2.7,4,6,4,9.8c0,3.8-1.3,7.1-3.9,9.7c-2.6,2.6-5.8,4-9.6,4
			c-3.9,0-7.2-1.4-9.8-4.1c-2.6-2.7-3.9-5.9-3.9-9.7c0-2.5,0.6-4.8,1.8-6.9c1.2-2.1,2.9-3.8,5-5C32.2,295.1,34.5,294.4,36.9,294.4z
			 M36.9,299.3c-2.4,0-4.5,0.8-6.1,2.5c-1.7,1.7-2.5,3.8-2.5,6.4c0,2.9,1,5.2,3.1,6.9c1.6,1.3,3.5,2,5.6,2c2.4,0,4.4-0.9,6-2.6
			c1.7-1.7,2.5-3.8,2.5-6.3c0-2.5-0.8-4.6-2.5-6.3C41.3,300.2,39.3,299.3,36.9,299.3z"/>
		<path class="st1" d="M55.2,295.1H74v26.2h-5v-21.5h-8.7v21.5h-5.1V295.1z"/>
		<path class="st1" d="M80,295.1h5.3c2.9,0,4.9,0.3,6.2,0.8c1.3,0.5,2.3,1.4,3,2.6c0.7,1.2,1.1,2.6,1.1,4.2c0,1.8-0.5,3.3-1.4,4.6
			c-1,1.2-2.3,2.1-3.9,2.5c-1,0.3-2.7,0.4-5.3,0.4v11.1h-5V295.1z M85,305.3h1.6c1.2,0,2.1-0.1,2.6-0.3c0.5-0.2,0.9-0.5,1.1-0.9
			c0.3-0.4,0.4-0.9,0.4-1.5c0-1-0.4-1.8-1.2-2.2c-0.6-0.3-1.6-0.5-3.2-0.5H85V305.3z"/>
		<path class="st1" d="M112.8,294.4c3.7,0,6.9,1.3,9.6,4c2.7,2.7,4,6,4,9.8c0,3.8-1.3,7.1-3.9,9.7c-2.6,2.6-5.8,4-9.6,4
			c-3.9,0-7.2-1.4-9.8-4.1c-2.6-2.7-3.9-5.9-3.9-9.7c0-2.5,0.6-4.8,1.8-6.9c1.2-2.1,2.9-3.8,5-5
			C108.1,295.1,110.4,294.4,112.8,294.4z M112.7,299.3c-2.4,0-4.5,0.8-6.1,2.5c-1.7,1.7-2.5,3.8-2.5,6.4c0,2.9,1,5.2,3.1,6.9
			c1.6,1.3,3.5,2,5.6,2c2.4,0,4.4-0.9,6-2.6c1.7-1.7,2.5-3.8,2.5-6.3c0-2.5-0.8-4.6-2.5-6.3S115.1,299.3,112.7,299.3z"/>
		<path class="st1" d="M155.1,299.7l-3.5,3.3c-2.4-2.5-5-3.8-8-3.8c-2.5,0-4.6,0.9-6.3,2.6c-1.7,1.7-2.6,3.8-2.6,6.3
			c0,1.7,0.4,3.3,1.1,4.7c0.8,1.4,1.8,2.4,3.2,3.2c1.4,0.8,2.9,1.2,4.6,1.2c1.4,0,2.8-0.3,4-0.8c1.2-0.5,2.5-1.5,3.9-2.9l3.4,3.5
			c-1.9,1.9-3.8,3.2-5.5,3.9c-1.7,0.7-3.7,1.1-5.9,1.1c-4.1,0-7.4-1.3-10-3.9c-2.6-2.6-3.9-5.9-3.9-9.9c0-2.6,0.6-4.9,1.8-7
			c1.2-2,2.9-3.7,5.1-4.9c2.2-1.2,4.6-1.9,7.1-1.9c2.2,0,4.2,0.5,6.2,1.4C152,296.7,153.7,298,155.1,299.7z"/>
		<path class="st1" d="M159.6,309.4h9v4.5h-9V309.4z"/>
		<path class="st1" d="M187.2,294.4c3.7,0,6.9,1.3,9.6,4c2.7,2.7,4,6,4,9.8c0,3.8-1.3,7.1-3.9,9.7c-2.6,2.6-5.8,4-9.6,4
			c-3.9,0-7.2-1.4-9.8-4.1c-2.6-2.7-3.9-5.9-3.9-9.7c0-2.5,0.6-4.8,1.8-6.9c1.2-2.1,2.9-3.8,5-5
			C182.4,295.1,184.7,294.4,187.2,294.4z M187.1,299.3c-2.4,0-4.5,0.8-6.1,2.5c-1.7,1.7-2.5,3.8-2.5,6.4c0,2.9,1,5.2,3.1,6.9
			c1.6,1.3,3.5,2,5.6,2c2.4,0,4.4-0.9,6-2.6c1.7-1.7,2.5-3.8,2.5-6.3c0-2.5-0.8-4.6-2.5-6.3S189.5,299.3,187.1,299.3z"/>
		<path class="st1" d="M202.9,295.1h14.5v4.9h-4.8v21.3h-5.1V300h-4.6V295.1z"/>
		<path class="st1" d="M220.7,321.3v-26.2h4.1c2.4,0,4.1,0.2,5.2,0.5c1.6,0.4,2.8,1.2,3.7,2.3s1.4,2.5,1.4,4c0,1-0.2,1.9-0.6,2.7
			c-0.4,0.8-1.1,1.6-2.1,2.3c1.6,0.7,2.8,1.7,3.5,2.8c0.7,1.1,1.1,2.4,1.1,4c0,1.5-0.4,2.8-1.1,4c-0.8,1.2-1.7,2.1-2.9,2.7
			c-1.2,0.6-2.9,0.9-5,0.9H220.7z M225.7,299.9v5.5h1.1c1.2,0,2.1-0.3,2.7-0.8c0.6-0.5,0.9-1.2,0.9-2.1c0-0.8-0.3-1.5-0.8-1.9
			c-0.6-0.5-1.4-0.7-2.6-0.7H225.7z M225.7,309.8v6.7h1.2c2.1,0,3.5-0.3,4.2-0.8c0.7-0.5,1.1-1.3,1.1-2.3c0-1.1-0.4-2-1.3-2.7
			c-0.8-0.7-2.2-1-4.2-1H225.7z"/>
		<path class="st1" d="M241.9,295.1h14.3v4.9h-9.3v4.7h9.3v4.8h-9.3v6.9h9.3v4.9h-14.3V295.1z"/>
		<path class="st1" d="M258.3,295.1h14.5v4.9H268v21.3h-5.1V300h-4.6V295.1z"/>
	</g>
	<g>
		<path class="st1" d="M224.3,207.7l-8.5-5.8c13.2-15.9,21.2-35.2,23.1-55.8l10.1,1.7c0.4-3.9,0.6-7.9,0.6-11.9
			c0-16.2-3.4-32-9.8-46.4l-9.4,4.1c-5.1-11.4-12.3-22-21.5-31.1c-19.6-19.6-45.7-30.4-73.4-30.4c-27.7,0-53.8,10.8-73.4,30.4
			c-2,2-3.9,4-5.7,6.2l-8.1-6.3C31,82.9,21.6,108.7,21.6,135.9c0,0.5,0,1,0,1.4l10.2-0.4c0.3,27.3,11,53,30.4,72.4
			c19.6,19.6,45.7,30.4,73.4,30.4c6.2,0,12.3-0.5,18.3-1.6l0.9,10.2c23.2-3.9,44.5-14.9,61.5-31.8
			C219.1,213.7,221.8,210.8,224.3,207.7z M64,207.6c-19.1-19.1-29.7-44.6-29.7-71.6S44.9,83.4,64,64.3
			c19.1-19.1,44.6-29.7,71.6-29.7c27.1,0,52.5,10.5,71.6,29.7c19.1,19.1,29.7,44.6,29.7,71.6s-10.5,52.5-29.7,71.6
			c-19.1,19.1-44.6,29.7-71.6,29.7C108.6,237.2,83.1,226.7,64,207.6z"/>
	</g>
	<g>
		<path class="st1" d="M130.2,270.1c-2.7-0.1-5.5-0.3-8.2-0.6l0.3-3.1c2.7,0.3,5.4,0.5,8.1,0.6L130.2,270.1z M143.5,269.9l-0.2-3.1
			c2.7-0.2,5.4-0.4,8-0.7l0.4,3.1C149.1,269.5,146.3,269.8,143.5,269.9z M108.8,267.5c-2.7-0.5-5.4-1.2-8-1.9l0.8-3
			c2.6,0.7,5.2,1.3,7.9,1.8L108.8,267.5z M164.9,267l-0.7-3.1c2.6-0.6,5.2-1.3,7.8-2l0.9,3C170.3,265.7,167.6,266.4,164.9,267z
			 M88.1,261.5c-2.6-1-5.1-2-7.6-3.2l1.3-2.9c2.4,1.1,5,2.1,7.5,3.1L88.1,261.5z M185.5,260.6l-1.2-2.9c2.5-1,5-2.1,7.4-3.2l1.4,2.8
			C190.6,258.4,188,259.5,185.5,260.6z M68.6,252.3c-2.4-1.4-4.7-2.8-7-4.4l1.7-2.6c2.2,1.5,4.5,2.9,6.9,4.3L68.6,252.3z
			 M204.8,250.9l-1.6-2.7c2.3-1.4,4.6-2.9,6.8-4.4l1.8,2.6C209.5,248,207.1,249.5,204.8,250.9z M50.8,240c-2.1-1.7-4.2-3.6-6.2-5.4
			l2.1-2.3c2,1.8,4,3.6,6.1,5.3L50.8,240z M222.3,238.3l-2-2.4c2-1.7,4.1-3.6,6-5.4l2.2,2.3C226.4,234.7,224.4,236.6,222.3,238.3z
			 M35.3,225.1c-1.8-2.1-3.6-4.2-5.3-6.3l2.5-1.9c1.7,2.1,3.4,4.2,5.2,6.2L35.3,225.1z M237.6,223.1l-2.4-2c1.7-2,3.4-4.2,5.1-6.3
			l2.5,1.9C241.1,218.8,239.3,221,237.6,223.1z M22.3,207.9c-1.5-2.3-2.9-4.7-4.2-7.1l2.8-1.5c1.3,2.3,2.7,4.7,4.1,6.9L22.3,207.9z
			 M250.2,205.6l-2.7-1.6c1.4-2.3,2.7-4.7,4-7l2.8,1.5C253,200.8,251.6,203.3,250.2,205.6z M12.2,188.8c-1.1-2.5-2.1-5.1-3-7.7
			l3-1.1c0.9,2.5,1.9,5,2.9,7.5L12.2,188.8z M259.9,186.3l-2.9-1.2c1-2.5,1.9-5,2.8-7.6l3,1C261.9,181.2,260.9,183.8,259.9,186.3z
			 M5.4,168.3c-0.7-2.7-1.2-5.4-1.7-8.1l3.1-0.6c0.5,2.6,1,5.3,1.7,7.9L5.4,168.3z M266.3,165.7l-3.1-0.7c0.6-2.6,1.1-5.3,1.5-7.9
			l3.1,0.5C267.5,160.3,266.9,163.1,266.3,165.7z M1.9,147.1c-0.2-2.7-0.4-5.5-0.4-8.3l3.1-0.1c0.1,2.7,0.2,5.4,0.4,8.1L1.9,147.1z
			 M269.4,144.4l-3.1-0.2c0.2-2.7,0.2-5.4,0.2-8.1l0-0.3l3.1,0l0,0.3C269.6,138.9,269.5,141.6,269.4,144.4z M5,125.7l-3.1-0.2
			c0.2-2.7,0.5-5.5,0.9-8.2l3.1,0.4C5.5,120.4,5.2,123.1,5,125.7z M265.8,122.8c-0.3-2.7-0.6-5.4-1.1-8l3.1-0.5
			c0.4,2.7,0.8,5.5,1.1,8.2L265.8,122.8z M8.4,104.9l-3.1-0.7c0.7-2.7,1.4-5.3,2.2-8l3,0.9C9.7,99.7,9,102.3,8.4,104.9z M262,102.1
			c-0.7-2.6-1.5-5.2-2.3-7.7l3-1c0.9,2.6,1.7,5.3,2.4,7.9L262,102.1z M15,84.9l-2.9-1.2c1.1-2.5,2.2-5.1,3.5-7.5l2.8,1.4
			C17.2,80,16.1,82.5,15,84.9z M254.9,82.3c-1.1-2.4-2.3-4.9-3.5-7.2l2.8-1.5c1.3,2.4,2.5,4.9,3.6,7.4L254.9,82.3z M24.8,66.3
			l-2.7-1.7c1.5-2.3,3-4.6,4.6-6.9l2.6,1.8C27.7,61.8,26.2,64,24.8,66.3z M244.7,63.8c-1.5-2.2-3-4.4-4.7-6.6l2.5-1.9
			c1.7,2.2,3.3,4.5,4.8,6.7L244.7,63.8z M37.4,49.4l-2.4-2.1c1.8-2.1,3.7-4.1,5.7-6l2.2,2.2C41.1,45.4,39.2,47.4,37.4,49.4z
			 M231.7,47.3c-1.8-2-3.7-3.9-5.7-5.8l2.2-2.3c2,1.9,3.9,3.9,5.8,5.9L231.7,47.3z M52.6,34.8l-2-2.4c2.1-1.7,4.3-3.4,6.6-5l1.8,2.6
			C56.8,31.5,54.7,33.1,52.6,34.8z M216.2,33c-2.1-1.7-4.3-3.3-6.5-4.8l1.8-2.6c2.3,1.6,4.5,3.2,6.7,4.9L216.2,33z M69.9,22.8
			l-1.6-2.7c2.4-1.4,4.8-2.7,7.3-3.9L77,19C74.6,20.2,72.2,21.5,69.9,22.8z M198.7,21.4c-2.4-1.3-4.8-2.5-7.2-3.7l1.3-2.8
			c2.5,1.2,5,2.4,7.4,3.8L198.7,21.4z M88.9,13.7l-1.1-2.9c2.6-1,5.2-1.9,7.8-2.7l0.9,3C94,11.9,91.4,12.8,88.9,13.7z M179.4,12.7
			c-2.5-0.9-5.1-1.7-7.7-2.5l0.9-3c2.6,0.8,5.3,1.6,7.9,2.5L179.4,12.7z M109.1,7.9l-0.6-3.1c2.7-0.6,5.4-1,8.1-1.4l0.4,3.1
			C114.4,6.9,111.8,7.3,109.1,7.9z M159.1,7.3c-2.6-0.5-5.3-0.9-8-1.2l0.4-3.1c2.7,0.3,5.5,0.7,8.2,1.2L159.1,7.3z M130.1,5.3
			l-0.1-3.1c2.7-0.1,5.5-0.1,8.3-0.1l-0.1,3.1C135.5,5.2,132.7,5.2,130.1,5.3z"/>
	</g>
	<g>
		<path class="st1" d="M135.8,55.4c-44.5,0-80.5,36.1-80.5,80.5s36.1,80.5,80.5,80.5s80.5-36.1,80.5-80.5S180.2,55.4,135.8,55.4z
			 M144.7,185.6h-18.3v-71.1h18.3V185.6z M135.5,107.9c-6,0-10.9-4.9-10.9-10.9c0-6,4.9-10.9,10.9-10.9c6,0,10.9,4.9,10.9,10.9
			C146.4,103.1,141.5,107.9,135.5,107.9z"/>
	</g>
</g>
</svg>
