<?xml version="1.0" encoding="utf-8"?>
<!-- Generator: Adobe Illustrator 22.0.1, SVG Export Plug-In . SVG Version: 6.00 Build 0)  -->
<svg version="1.1" id="Слой_1" xmlns="http://www.w3.org/2000/svg" xmlns:xlink="http://www.w3.org/1999/xlink" x="0px" y="0px"
	 viewBox="0 0 270.2 324.3" style="enable-background:new 0 0 270.2 324.3;" xml:space="preserve">
<style type="text/css">
	.st0{fill:#FFFFFF;}
	.st1{fill:#2589C2;}
</style>
<g>
	<path class="st0" d="M64.6,208.1c-19.1-19.1-29.7-44.6-29.7-71.6s10.5-52.5,29.7-71.6c19.1-19.1,44.6-29.7,71.6-29.7
		c27.1,0,52.5,10.5,71.6,29.7c19.1,19.1,29.7,44.6,29.7,71.6s-10.5,52.5-29.7,71.6c-19.1,19.1-44.6,29.7-71.6,29.7
		C109.1,237.7,83.7,227.2,64.6,208.1z"/>
	<g>
		<path class="st1" d="M136.2,229.9c-2.7,0-5.5-0.1-8.2-0.4l0.3-3.1c2.6,0.2,5.3,0.3,7.9,0.3V229.9z M150,228.9l-0.5-3.1
			c2.6-0.4,5.2-0.9,7.8-1.5l0.7,3.1C155.4,228,152.7,228.5,150,228.9z M110.9,226.4c-2.6-0.7-5.3-1.6-7.8-2.6l1.1-2.9
			c2.5,0.9,5,1.8,7.6,2.5L110.9,226.4z M174.5,221.7l-1.3-2.9c2.4-1.1,4.8-2.3,7.1-3.6l1.5,2.7C179.4,219.3,177,220.6,174.5,221.7z
			 M87.5,216.2c-2.3-1.4-4.6-3-6.8-4.6l1.9-2.5c2.1,1.6,4.3,3.1,6.6,4.5L87.5,216.2z M196.1,208.1l-2-2.4c2-1.7,4-3.5,5.9-5.4
			l2.2,2.2C200.2,204.5,198.2,206.3,196.1,208.1z M67.8,200c-1.9-2-3.6-4.1-5.3-6.3l2.5-1.9c1.6,2.1,3.3,4.1,5.1,6.1L67.8,200z
			 M213.2,189.2l-2.6-1.8c1.5-2.2,2.9-4.5,4.2-6.8l2.7,1.5C216.2,184.6,214.8,186.9,213.2,189.2z M53.2,179c-1.2-2.4-2.4-5-3.4-7.5
			l2.9-1.2c1,2.4,2.1,4.9,3.3,7.2L53.2,179z M224.6,166.3l-3-1c0.8-2.5,1.6-5.1,2.2-7.6l3.1,0.7
			C226.3,161.1,225.5,163.7,224.6,166.3z M44.8,154.9c-0.5-2.7-1-5.4-1.2-8.1l3.1-0.3c0.3,2.6,0.7,5.3,1.2,7.9L44.8,154.9z
			 M229.3,141.2l-3.1-0.2c0.1-1.4,0.1-2.9,0.1-4.4c0-1.2,0-2.4-0.1-3.6l3.1-0.1c0,1.2,0.1,2.5,0.1,3.7
			C229.4,138.2,229.4,139.7,229.3,141.2z M46.4,129.7l-3.1-0.2c0.2-2.7,0.5-5.5,1-8.2l3.1,0.5C46.9,124.4,46.6,127,46.4,129.7z
			 M224,116.5c-0.6-2.6-1.3-5.2-2.1-7.7l3-1c0.8,2.6,1.6,5.3,2.2,7.9L224,116.5z M51.7,105.6l-3-1.1c0.9-2.6,2-5.1,3.2-7.6l2.8,1.4
			C53.6,100.6,52.6,103.1,51.7,105.6z M215.2,93.4c-1.3-2.3-2.7-4.6-4.1-6.8l2.6-1.8c1.5,2.3,3,4.6,4.3,7L215.2,93.4z M63.4,83.8
			L60.8,82c1.6-2.2,3.3-4.4,5.1-6.4l2.4,2.1C66.6,79.6,64.9,81.7,63.4,83.8z M200.5,73.6c-1.9-1.9-3.8-3.7-5.8-5.4l2-2.4
			c2.1,1.8,4.1,3.7,6,5.6L200.5,73.6z M80.5,66l-2-2.5c2.1-1.7,4.4-3.3,6.7-4.8l1.7,2.6C84.7,62.8,82.5,64.4,80.5,66z M180.9,58.5
			c-2.3-1.3-4.7-2.5-7.1-3.7l1.3-2.9c2.5,1.1,4.9,2.4,7.3,3.8L180.9,58.5z M101.7,53.5l-1.2-2.9c2.5-1.1,5.1-2,7.7-2.8l0.9,3
			C106.7,51.6,104.2,52.5,101.7,53.5z M158.1,49.3c-2.6-0.6-5.2-1.2-7.8-1.6l0.5-3.1c2.7,0.4,5.4,1,8.1,1.6L158.1,49.3z M125.6,47.3
			l-0.4-3.1c2.7-0.3,5.5-0.5,8.2-0.6l0.1,3.1C130.9,46.7,128.2,46.9,125.6,47.3z"/>
	</g>
	<g>
		<path class="st1" d="M86.4,295.6v3.4h1.1c6.3,0,9.4,2.6,9.4,7.8c0,1.5-0.2,2.7-0.7,3.7c-0.5,1-1.2,1.9-2.2,2.5
			c-1,0.7-1.9,1.1-3,1.3c-1,0.2-2.6,0.3-4.7,0.3v7.1h-5v-7.1c-2.2,0-4-0.2-5.4-0.7c-1.4-0.4-2.6-1.3-3.5-2.5
			c-0.9-1.2-1.4-2.8-1.4-4.6c0-1.7,0.4-3.2,1.1-4.4c0.7-1.2,1.7-2.1,3.1-2.7c1.3-0.6,3.3-0.9,6.1-0.9v-3.4H86.4z M81.3,303.6h-1.2
			c-1.7,0-2.9,0.3-3.5,0.8c-0.6,0.6-0.9,1.4-0.9,2.5c0,1.3,0.4,2.1,1.1,2.6c0.7,0.5,1.7,0.7,3.1,0.7h1.4V303.6z M86.4,303.6v6.7H88
			c1.7,0,2.8-0.3,3.3-0.9c0.5-0.6,0.8-1.4,0.8-2.5c0-1-0.3-1.8-0.9-2.4c-0.6-0.6-1.7-0.9-3.5-0.9H86.4z"/>
		<path class="st1" d="M113.1,294.9c3.7,0,6.9,1.3,9.6,4c2.7,2.7,4,6,4,9.8c0,3.8-1.3,7.1-3.9,9.7c-2.6,2.6-5.8,4-9.6,4
			c-3.9,0-7.2-1.4-9.8-4.1c-2.6-2.7-3.9-5.9-3.9-9.7c0-2.5,0.6-4.8,1.8-6.9c1.2-2.1,2.9-3.8,5-5
			C108.4,295.5,110.7,294.9,113.1,294.9z M113.1,299.8c-2.4,0-4.5,0.8-6.1,2.5c-1.7,1.7-2.5,3.8-2.5,6.4c0,2.9,1,5.2,3.1,6.9
			c1.6,1.3,3.5,2,5.6,2c2.4,0,4.4-0.9,6-2.6c1.7-1.7,2.5-3.8,2.5-6.3c0-2.5-0.8-4.6-2.5-6.3C117.5,300.7,115.5,299.8,113.1,299.8z"
			/>
		<path class="st1" d="M131.4,295.6h5.3c2.9,0,4.9,0.3,6.2,0.8c1.3,0.5,2.3,1.4,3,2.6c0.7,1.2,1.1,2.6,1.1,4.2
			c0,1.8-0.5,3.3-1.4,4.6c-1,1.2-2.3,2.1-3.9,2.5c-1,0.3-2.7,0.4-5.3,0.4v11.1h-5V295.6z M136.3,305.8h1.6c1.2,0,2.1-0.1,2.6-0.3
			c0.5-0.2,0.9-0.5,1.1-0.9c0.3-0.4,0.4-0.9,0.4-1.5c0-1-0.4-1.8-1.2-2.2c-0.6-0.3-1.6-0.5-3.2-0.5h-1.4V305.8z"/>
		<path class="st1" d="M159.1,315.8l-9.3-20.2h5.6l6.2,14.6l5.1-14.6h5.1l-7,18.7c-1.2,3.2-2.5,5.4-3.9,6.4
			c-1.4,1.1-2.9,1.6-4.5,1.6c-2.6,0-5-1.3-7.2-3.8l3.3-3.3c1.3,1.5,2.6,2.3,3.9,2.3c0.6,0,1-0.1,1.4-0.4
			C158.2,316.9,158.6,316.4,159.1,315.8z"/>
		<path class="st1" d="M177.7,295.6h4.9l6.1,18.3l6.1-18.3h4.9l4.4,26.2h-4.8l-2.8-16.5l-5.6,16.5h-4.4l-5.5-16.5l-2.9,16.5h-4.9
			L177.7,295.6z"/>
	</g>
	<g>
		<path class="st1" d="M224.9,208.2l-8.5-5.8c13.2-15.9,21.2-35.2,23.1-55.8l10.1,1.7c0.4-3.9,0.6-7.9,0.6-11.9
			c0-16.2-3.4-32-9.8-46.4l-9.4,4.1c-5.1-11.4-12.3-22-21.5-31.1c-19.6-19.6-45.7-30.4-73.4-30.4c-27.7,0-53.8,10.8-73.4,30.4
			c-2,2-3.9,4-5.7,6.2L49,62.9c-17.4,20.5-26.8,46.3-26.8,73.5c0,0.5,0,1,0,1.4l10.2-0.4c0.3,27.3,11,53,30.4,72.4
			c19.6,19.6,45.7,30.4,73.4,30.4c6.2,0,12.3-0.5,18.3-1.6l0.9,10.2c23.2-3.9,44.5-14.9,61.5-31.8
			C219.7,214.2,222.4,211.3,224.9,208.2z M64.6,208.1c-19.1-19.1-29.7-44.6-29.7-71.6s10.5-52.5,29.7-71.6
			c19.1-19.1,44.6-29.7,71.6-29.7c27.1,0,52.5,10.5,71.6,29.7c19.1,19.1,29.7,44.6,29.7,71.6s-10.5,52.5-29.7,71.6
			c-19.1,19.1-44.6,29.7-71.6,29.7C109.1,237.7,83.7,227.2,64.6,208.1z"/>
	</g>
	<g>
		<path class="st1" d="M130.8,270.6c-2.7-0.1-5.5-0.3-8.2-0.6l0.3-3.1c2.7,0.3,5.4,0.5,8.1,0.6L130.8,270.6z M144.1,270.4l-0.2-3.1
			c2.7-0.2,5.4-0.4,8-0.7l0.4,3.1C149.6,270,146.8,270.3,144.1,270.4z M109.4,268c-2.7-0.5-5.4-1.2-8-1.9l0.8-3
			c2.6,0.7,5.2,1.3,7.9,1.8L109.4,268z M165.4,267.4l-0.7-3.1c2.6-0.6,5.2-1.3,7.8-2l0.9,3C170.8,266.2,168.1,266.8,165.4,267.4z
			 M88.6,262c-2.6-1-5.1-2-7.6-3.2l1.3-2.9c2.4,1.1,5,2.1,7.5,3.1L88.6,262z M186.1,261.1l-1.2-2.9c2.5-1,5-2.1,7.4-3.2l1.4,2.8
			C191.1,258.9,188.6,260,186.1,261.1z M69.1,252.8c-2.4-1.4-4.7-2.8-7-4.4l1.7-2.6c2.2,1.5,4.5,2.9,6.9,4.3L69.1,252.8z
			 M205.3,251.4l-1.6-2.7c2.3-1.4,4.6-2.9,6.8-4.4l1.8,2.6C210,248.5,207.7,250,205.3,251.4z M51.4,240.5c-2.1-1.7-4.2-3.6-6.2-5.4
			l2.1-2.3c2,1.8,4,3.6,6.1,5.3L51.4,240.5z M222.8,238.8l-2-2.4c2-1.7,4.1-3.6,6-5.4l2.2,2.3C227,235.2,224.9,237.1,222.8,238.8z
			 M35.8,225.6c-1.8-2.1-3.6-4.2-5.3-6.3l2.5-1.9c1.7,2.1,3.4,4.2,5.2,6.2L35.8,225.6z M238.1,223.6l-2.4-2c1.7-2,3.4-4.2,5.1-6.3
			l2.5,1.9C241.6,219.3,239.9,221.5,238.1,223.6z M22.8,208.4c-1.5-2.3-2.9-4.7-4.2-7.1l2.8-1.5c1.3,2.3,2.7,4.7,4.1,6.9L22.8,208.4
			z M250.8,206.1l-2.7-1.6c1.4-2.3,2.7-4.7,4-7l2.8,1.5C253.6,201.3,252.2,203.8,250.8,206.1z M12.8,189.3c-1.1-2.5-2.1-5.1-3-7.7
			l3-1.1c0.9,2.5,1.9,5,2.9,7.5L12.8,189.3z M260.4,186.8l-2.9-1.2c1-2.5,1.9-5,2.8-7.6l3,1C262.4,181.7,261.5,184.3,260.4,186.8z
			 M5.9,168.8c-0.7-2.7-1.2-5.4-1.7-8.1l3.1-0.6c0.5,2.6,1,5.3,1.7,7.9L5.9,168.8z M266.9,166.2l-3.1-0.7c0.6-2.6,1.1-5.3,1.5-7.9
			l3.1,0.5C268,160.8,267.5,163.5,266.9,166.2z M2.5,147.5c-0.2-2.7-0.4-5.5-0.4-8.3l3.1-0.1c0.1,2.7,0.2,5.4,0.4,8.1L2.5,147.5z
			 M269.9,144.9l-3.1-0.2c0.2-2.7,0.2-5.4,0.2-8.1l0-0.3l3.1,0l0,0.3C270.2,139.4,270.1,142.1,269.9,144.9z M5.6,126.2L2.4,126
			c0.2-2.7,0.5-5.5,0.9-8.2l3.1,0.4C6.1,120.8,5.8,123.5,5.6,126.2z M266.3,123.3c-0.3-2.7-0.6-5.4-1.1-8l3.1-0.5
			c0.4,2.7,0.8,5.5,1.1,8.2L266.3,123.3z M8.9,105.4l-3.1-0.7c0.7-2.7,1.4-5.3,2.2-8l3,0.9C10.3,100.2,9.6,102.8,8.9,105.4z
			 M262.6,102.6c-0.7-2.6-1.5-5.2-2.3-7.7l3-1c0.9,2.6,1.7,5.3,2.4,7.9L262.6,102.6z M15.6,85.4l-2.9-1.2c1.1-2.5,2.2-5.1,3.5-7.5
			l2.8,1.4C17.7,80.5,16.6,83,15.6,85.4z M255.5,82.8c-1.1-2.4-2.3-4.9-3.5-7.2l2.8-1.5c1.3,2.4,2.5,4.9,3.6,7.4L255.5,82.8z
			 M25.3,66.8l-2.7-1.7c1.5-2.3,3-4.6,4.6-6.9l2.6,1.8C28.3,62.3,26.8,64.5,25.3,66.8z M245.3,64.3c-1.5-2.2-3-4.4-4.7-6.6l2.5-1.9
			c1.7,2.2,3.3,4.5,4.8,6.7L245.3,64.3z M38,49.9l-2.4-2.1c1.8-2.1,3.7-4.1,5.7-6l2.2,2.2C41.6,45.9,39.8,47.9,38,49.9z M232.3,47.8
			c-1.8-2-3.7-3.9-5.7-5.8l2.2-2.3c2,1.9,3.9,3.9,5.8,5.9L232.3,47.8z M53.2,35.3l-2-2.4c2.1-1.7,4.3-3.4,6.6-5l1.8,2.6
			C57.4,32,55.2,33.6,53.2,35.3z M216.8,33.5c-2.1-1.7-4.3-3.3-6.5-4.8l1.8-2.6c2.3,1.6,4.5,3.2,6.7,4.9L216.8,33.5z M70.5,23.3
			l-1.6-2.7c2.4-1.4,4.8-2.7,7.3-3.9l1.4,2.8C75.2,20.7,72.8,22,70.5,23.3z M199.2,21.9c-2.4-1.3-4.8-2.5-7.2-3.7l1.3-2.8
			c2.5,1.2,5,2.4,7.4,3.8L199.2,21.9z M89.5,14.2l-1.1-2.9c2.6-1,5.2-1.9,7.8-2.7l0.9,3C94.5,12.4,92,13.3,89.5,14.2z M180,13.2
			c-2.5-0.9-5.1-1.7-7.7-2.5l0.9-3c2.6,0.8,5.3,1.6,7.9,2.5L180,13.2z M109.7,8.4l-0.6-3.1c2.7-0.6,5.4-1,8.1-1.4l0.4,3.1
			C115,7.4,112.3,7.8,109.7,8.4z M159.6,7.8c-2.6-0.5-5.3-0.9-8-1.2l0.4-3.1c2.7,0.3,5.5,0.7,8.2,1.2L159.6,7.8z M130.6,5.8
			l-0.1-3.1c2.7-0.1,5.5-0.1,8.3-0.1l-0.1,3.1C136,5.7,133.3,5.7,130.6,5.8z"/>
	</g>
	<g>
		<path class="st1" d="M136.3,55.9c-44.5,0-80.5,36.1-80.5,80.5s36.1,80.5,80.5,80.5s80.5-36.1,80.5-80.5S180.8,55.9,136.3,55.9z
			 M79,134.9l4.7-14.3V90.7h59.9v37.6H91.4L79,134.9z M181.5,178.5h-52.2v-37.6h59.9v29.9L194,185L181.5,178.5z"/>
	</g>
</g>
</svg>
