<?xml version="1.0" encoding="utf-8"?>
<!-- Generator: Adobe Illustrator 22.0.1, SVG Export Plug-In . SVG Version: 6.00 Build 0)  -->
<svg version="1.1" id="Слой_1" xmlns="http://www.w3.org/2000/svg" xmlns:xlink="http://www.w3.org/1999/xlink" x="0px" y="0px"
	 viewBox="0 0 270.2 324.3" style="enable-background:new 0 0 270.2 324.3;" xml:space="preserve">
<style type="text/css">
	.st0{fill:#FFFFFF;}
	.st1{fill:#2589C2;}
</style>
<g>
	<path class="st0" d="M63.6,207.6c-19.1-19.1-29.7-44.6-29.7-71.6s10.5-52.5,29.7-71.6c19.1-19.1,44.6-29.7,71.6-29.7
		c27.1,0,52.5,10.5,71.6,29.7c19.1,19.1,29.7,44.6,29.7,71.6s-10.5,52.5-29.7,71.6c-19.1,19.1-44.6,29.7-71.6,29.7
		C108.1,237.2,82.7,226.7,63.6,207.6z"/>
	<g>
		<path class="st1" d="M135.2,229.4c-2.7,0-5.5-0.1-8.2-0.4l0.3-3.1c2.6,0.2,5.3,0.3,7.9,0.3V229.4z M149,228.4l-0.5-3.1
			c2.6-0.4,5.2-0.9,7.8-1.5l0.7,3.1C154.4,227.5,151.7,228,149,228.4z M109.9,225.9c-2.6-0.7-5.3-1.6-7.8-2.6l1.1-2.9
			c2.5,0.9,5,1.8,7.6,2.5L109.9,225.9z M173.5,221.2l-1.3-2.9c2.4-1.1,4.8-2.3,7.1-3.6l1.5,2.7C178.4,218.8,176,220.1,173.5,221.2z
			 M86.5,215.7c-2.3-1.4-4.6-3-6.8-4.6l1.9-2.5c2.1,1.6,4.3,3.1,6.6,4.5L86.5,215.7z M195.1,207.6l-2-2.4c2-1.7,4-3.5,5.9-5.4
			l2.2,2.2C199.2,204,197.2,205.9,195.1,207.6z M66.8,199.5c-1.9-2-3.6-4.1-5.3-6.3l2.5-1.9c1.6,2.1,3.3,4.1,5.1,6.1L66.8,199.5z
			 M212.2,188.7l-2.6-1.8c1.5-2.2,2.9-4.5,4.2-6.8l2.7,1.5C215.2,184.1,213.8,186.4,212.2,188.7z M52.2,178.5
			c-1.2-2.4-2.4-5-3.4-7.5l2.9-1.2c1,2.4,2.1,4.9,3.3,7.2L52.2,178.5z M223.6,165.8l-3-1c0.8-2.5,1.6-5.1,2.2-7.6l3.1,0.7
			C225.3,160.6,224.5,163.2,223.6,165.8z M43.8,154.4c-0.5-2.7-1-5.4-1.2-8.1l3.1-0.3c0.3,2.6,0.7,5.3,1.2,7.9L43.8,154.4z
			 M228.3,140.7l-3.1-0.2c0.1-1.4,0.1-2.9,0.1-4.4c0-1.2,0-2.4-0.1-3.6l3.1-0.1c0,1.2,0.1,2.5,0.1,3.7
			C228.4,137.7,228.4,139.2,228.3,140.7z M45.4,129.2l-3.1-0.2c0.2-2.7,0.5-5.5,1-8.2l3.1,0.5C45.9,123.9,45.6,126.5,45.4,129.2z
			 M223,116c-0.6-2.6-1.3-5.2-2.1-7.7l3-1c0.8,2.6,1.6,5.3,2.2,7.9L223,116z M50.7,105.1l-3-1.1c0.9-2.6,2-5.1,3.2-7.6l2.8,1.4
			C52.6,100.1,51.6,102.6,50.7,105.1z M214.2,92.9c-1.3-2.3-2.7-4.6-4.1-6.8l2.6-1.8c1.5,2.3,3,4.6,4.3,7L214.2,92.9z M62.4,83.3
			l-2.5-1.9c1.6-2.2,3.3-4.4,5.1-6.4l2.4,2.1C65.6,79.1,63.9,81.2,62.4,83.3z M199.5,73.1c-1.9-1.9-3.8-3.7-5.8-5.4l2-2.4
			c2.1,1.8,4.1,3.7,6,5.6L199.5,73.1z M79.5,65.5l-2-2.5c2.1-1.7,4.4-3.3,6.7-4.8l1.7,2.6C83.7,62.3,81.5,63.9,79.5,65.5z M179.9,58
			c-2.3-1.3-4.7-2.5-7.1-3.7l1.3-2.9c2.5,1.1,4.9,2.4,7.3,3.8L179.9,58z M100.7,53l-1.2-2.9c2.5-1.1,5.1-2,7.7-2.8l0.9,3
			C105.7,51.1,103.2,52,100.7,53z M157.1,48.8c-2.6-0.6-5.2-1.2-7.8-1.6l0.5-3.1c2.7,0.4,5.4,1,8.1,1.6L157.1,48.8z M124.6,46.8
			l-0.4-3.1c2.7-0.3,5.5-0.5,8.2-0.6l0.1,3.1C129.9,46.3,127.2,46.5,124.6,46.8z"/>
	</g>
	<g>
		<path class="st1" d="M24.1,321.3v-26.2h13.7v4.9h-8.7v5h1.1c2.2,0,4,0.2,5.4,0.7c1.4,0.5,2.6,1.4,3.5,2.8s1.4,2.9,1.4,4.8
			c0,1.8-0.4,3.3-1.1,4.4c-0.7,1.1-1.7,2-2.9,2.7c-1.2,0.7-2.9,1-5.1,1H24.1z M29.1,309.4v7.1h1.2c2.3,0,3.7-0.3,4.3-0.9
			c0.6-0.6,0.9-1.4,0.9-2.4c0-2.5-1.8-3.8-5.4-3.8H29.1z"/>
		<path class="st1" d="M63.9,295.1v26.2h-5v-16.4l-9.8,16.4h-4.3v-26.2h5V312l9.9-16.9H63.9z"/>
		<path class="st1" d="M69.9,321.3v-26.2h13.7v4.9h-8.7v5H76c2.2,0,4,0.2,5.4,0.7c1.4,0.5,2.6,1.4,3.5,2.8s1.4,2.9,1.4,4.8
			c0,1.8-0.4,3.3-1.1,4.4c-0.7,1.1-1.7,2-2.9,2.7c-1.2,0.7-2.9,1-5.1,1H69.9z M74.9,309.4v7.1h1.2c2.3,0,3.7-0.3,4.3-0.9
			c0.6-0.6,0.9-1.4,0.9-2.4c0-2.5-1.8-3.8-5.4-3.8H74.9z"/>
		<path class="st1" d="M107.6,321.3l-7.3-19.3L93,321.3h-5.3l10.1-26.2h5.1l10.1,26.2H107.6z"/>
		<path class="st1" d="M135,295.1v26.2h-5v-16.4l-9.8,16.4h-4.3v-26.2h5V312l9.9-16.9H135z"/>
		<path class="st1" d="M153.4,294.4c3.7,0,6.9,1.3,9.6,4c2.7,2.7,4,6,4,9.8c0,3.8-1.3,7.1-3.9,9.7c-2.6,2.6-5.8,4-9.6,4
			c-3.9,0-7.2-1.4-9.8-4.1c-2.6-2.7-3.9-5.9-3.9-9.7c0-2.5,0.6-4.8,1.8-6.9c1.2-2.1,2.9-3.8,5-5
			C148.6,295.1,150.9,294.4,153.4,294.4z M153.3,299.3c-2.4,0-4.5,0.8-6.1,2.5c-1.7,1.7-2.5,3.8-2.5,6.4c0,2.9,1,5.2,3.1,6.9
			c1.6,1.3,3.5,2,5.6,2c2.4,0,4.4-0.9,6-2.6c1.7-1.7,2.5-3.8,2.5-6.3c0-2.5-0.8-4.6-2.5-6.3S155.7,299.3,153.3,299.3z"/>
		<path class="st1" d="M169.1,295.1h14.5v4.9h-4.8v21.3h-5.1V300h-4.6V295.1z"/>
		<path class="st1" d="M187,295.1h14.3v4.9h-9.3v4.7h9.3v4.8h-9.3v6.9h9.3v4.9H187V295.1z"/>
		<path class="st1" d="M206,295.1h5v9l7.1-9h6l-9.1,11.7l10,14.5h-5.9l-8.1-11.6v11.6h-5V295.1z"/>
		<path class="st1" d="M236.5,295.1h5.1l10.1,26.2h-5.2l-2-5.4h-10.7l-2.1,5.4h-5.2L236.5,295.1z M239.1,302l-3.5,9h7L239.1,302z"/>
	</g>
	<g>
		<path class="st1" d="M223.9,207.7l-8.5-5.8c13.2-15.9,21.2-35.2,23.1-55.8l10.1,1.7c0.4-3.9,0.6-7.9,0.6-11.9
			c0-16.2-3.4-32-9.8-46.4l-9.4,4.1c-5.1-11.4-12.3-22-21.5-31.1c-19.6-19.6-45.7-30.4-73.4-30.4c-27.7,0-53.8,10.8-73.4,30.4
			c-2,2-3.9,4-5.7,6.2L48,62.4c-17.4,20.5-26.8,46.3-26.8,73.5c0,0.5,0,1,0,1.4l10.2-0.4c0.3,27.3,11,53,30.4,72.4
			c19.6,19.6,45.7,30.4,73.4,30.4c6.2,0,12.3-0.5,18.3-1.6l0.9,10.2c23.2-3.9,44.5-14.9,61.5-31.8
			C218.7,213.7,221.4,210.8,223.9,207.7z M63.6,207.6c-19.1-19.1-29.7-44.6-29.7-71.6s10.5-52.5,29.7-71.6
			c19.1-19.1,44.6-29.7,71.6-29.7c27.1,0,52.5,10.5,71.6,29.7c19.1,19.1,29.7,44.6,29.7,71.6s-10.5,52.5-29.7,71.6
			c-19.1,19.1-44.6,29.7-71.6,29.7C108.1,237.2,82.7,226.7,63.6,207.6z"/>
	</g>
	<g>
		<path class="st1" d="M129.8,270.1c-2.7-0.1-5.5-0.3-8.2-0.6l0.3-3.1c2.7,0.3,5.4,0.5,8.1,0.6L129.8,270.1z M143.1,269.9l-0.2-3.1
			c2.7-0.2,5.4-0.4,8-0.7l0.4,3.1C148.6,269.5,145.8,269.8,143.1,269.9z M108.4,267.5c-2.7-0.5-5.4-1.2-8-1.9l0.8-3
			c2.6,0.7,5.2,1.3,7.9,1.8L108.4,267.5z M164.4,267l-0.7-3.1c2.6-0.6,5.2-1.3,7.8-2l0.9,3C169.8,265.7,167.1,266.4,164.4,267z
			 M87.6,261.5c-2.6-1-5.1-2-7.6-3.2l1.3-2.9c2.4,1.1,5,2.1,7.5,3.1L87.6,261.5z M185.1,260.6l-1.2-2.9c2.5-1,5-2.1,7.4-3.2l1.4,2.8
			C190.1,258.4,187.6,259.5,185.1,260.6z M68.1,252.3c-2.4-1.4-4.7-2.8-7-4.4l1.7-2.6c2.2,1.5,4.5,2.9,6.9,4.3L68.1,252.3z
			 M204.3,250.9l-1.6-2.7c2.3-1.4,4.6-2.9,6.8-4.4l1.8,2.6C209,248,206.7,249.5,204.3,250.9z M50.4,240c-2.1-1.7-4.2-3.6-6.2-5.4
			l2.1-2.3c2,1.8,4,3.6,6.1,5.3L50.4,240z M221.8,238.3l-2-2.4c2-1.7,4.1-3.6,6-5.4l2.2,2.3C226,234.7,223.9,236.6,221.8,238.3z
			 M34.8,225.1c-1.8-2.1-3.6-4.2-5.3-6.3l2.5-1.9c1.7,2.1,3.4,4.2,5.2,6.2L34.8,225.1z M237.1,223.1l-2.4-2c1.7-2,3.4-4.2,5.1-6.3
			l2.5,1.9C240.6,218.8,238.9,221,237.1,223.1z M21.8,207.9c-1.5-2.3-2.9-4.7-4.2-7.1l2.8-1.5c1.3,2.3,2.7,4.7,4.1,6.9L21.8,207.9z
			 M249.8,205.6l-2.7-1.6c1.4-2.3,2.7-4.7,4-7l2.8,1.5C252.6,200.8,251.2,203.3,249.8,205.6z M11.8,188.8c-1.1-2.5-2.1-5.1-3-7.7
			l3-1.1c0.9,2.5,1.9,5,2.9,7.5L11.8,188.8z M259.4,186.3l-2.9-1.2c1-2.5,1.9-5,2.8-7.6l3,1C261.4,181.2,260.5,183.8,259.4,186.3z
			 M4.9,168.3c-0.7-2.7-1.2-5.4-1.7-8.1l3.1-0.6c0.5,2.6,1,5.3,1.7,7.9L4.9,168.3z M265.9,165.7l-3.1-0.7c0.6-2.6,1.1-5.3,1.5-7.9
			l3.1,0.5C267,160.3,266.5,163.1,265.9,165.7z M1.5,147.1c-0.2-2.7-0.4-5.5-0.4-8.3l3.1-0.1c0.1,2.7,0.2,5.4,0.4,8.1L1.5,147.1z
			 M268.9,144.4l-3.1-0.2c0.2-2.7,0.2-5.4,0.2-8.1l0-0.3l3.1,0l0,0.3C269.2,138.9,269.1,141.6,268.9,144.4z M4.6,125.7l-3.1-0.2
			c0.2-2.7,0.5-5.5,0.9-8.2l3.1,0.4C5.1,120.4,4.8,123.1,4.6,125.7z M265.3,122.8c-0.3-2.7-0.6-5.4-1.1-8l3.1-0.5
			c0.4,2.7,0.8,5.5,1.1,8.2L265.3,122.8z M7.9,104.9l-3.1-0.7c0.7-2.7,1.4-5.3,2.2-8l3,0.9C9.3,99.7,8.6,102.3,7.9,104.9z
			 M261.6,102.1c-0.7-2.6-1.5-5.2-2.3-7.7l3-1c0.9,2.6,1.7,5.3,2.4,7.9L261.6,102.1z M14.6,84.9l-2.9-1.2c1.1-2.5,2.2-5.1,3.5-7.5
			l2.8,1.4C16.7,80,15.6,82.5,14.6,84.9z M254.5,82.3c-1.1-2.4-2.3-4.9-3.5-7.2l2.8-1.5c1.3,2.4,2.5,4.9,3.6,7.4L254.5,82.3z
			 M24.3,66.3l-2.7-1.7c1.5-2.3,3-4.6,4.6-6.9l2.6,1.8C27.3,61.8,25.8,64,24.3,66.3z M244.3,63.8c-1.5-2.2-3.1-4.4-4.7-6.6l2.5-1.9
			c1.7,2.2,3.3,4.5,4.8,6.7L244.3,63.8z M37,49.4l-2.4-2.1c1.8-2.1,3.7-4.1,5.7-6l2.2,2.2C40.6,45.4,38.8,47.4,37,49.4z M231.3,47.3
			c-1.8-2-3.7-3.9-5.7-5.8l2.2-2.3c2,1.9,3.9,3.9,5.8,5.9L231.3,47.3z M52.2,34.8l-2-2.4c2.1-1.7,4.3-3.4,6.6-5l1.8,2.6
			C56.4,31.5,54.2,33.1,52.2,34.8z M215.8,33c-2.1-1.7-4.3-3.3-6.5-4.8l1.8-2.6c2.3,1.6,4.5,3.2,6.7,4.9L215.8,33z M69.5,22.8
			l-1.6-2.7c2.4-1.4,4.8-2.7,7.3-3.9l1.4,2.8C74.2,20.2,71.8,21.5,69.5,22.8z M198.2,21.4c-2.3-1.3-4.8-2.5-7.2-3.7l1.3-2.8
			c2.5,1.2,5,2.4,7.4,3.8L198.2,21.4z M88.5,13.7l-1.1-2.9c2.6-1,5.2-1.9,7.8-2.7l0.9,3C93.5,11.9,91,12.8,88.5,13.7z M179,12.7
			c-2.5-0.9-5.1-1.7-7.7-2.5l0.9-3c2.6,0.8,5.3,1.6,7.9,2.5L179,12.7z M108.7,7.9l-0.6-3.1c2.7-0.6,5.4-1,8.1-1.4l0.4,3.1
			C114,6.9,111.3,7.3,108.7,7.9z M158.6,7.3c-2.6-0.5-5.3-0.9-8-1.2L151,3c2.7,0.3,5.5,0.7,8.2,1.2L158.6,7.3z M129.6,5.3l-0.1-3.1
			c2.7-0.1,5.5-0.1,8.3-0.1l-0.1,3.1C135,5.2,132.3,5.2,129.6,5.3z"/>
	</g>
	<g>
		<path class="st1" d="M135.3,55.4c-44.5,0-80.5,36.1-80.5,80.5s36.1,80.5,80.5,80.5s80.5-36.1,80.5-80.5S179.8,55.4,135.3,55.4z
			 M117.7,178.2H95.8V88.4h21.9V178.2z M146.3,178.2h-21.9v-72.8h21.9V178.2z M163.2,178.2l-13.8-53.1l19.5-5.2l13.8,53.1
			L163.2,178.2z"/>
	</g>
</g>
</svg>
