<?xml version="1.0" encoding="utf-8"?>
<!-- Generator: Adobe Illustrator 22.0.1, SVG Export Plug-In . SVG Version: 6.00 Build 0)  -->
<svg version="1.1" id="Слой_1" xmlns="http://www.w3.org/2000/svg" xmlns:xlink="http://www.w3.org/1999/xlink" x="0px" y="0px"
	 viewBox="0 0 270.2 324.3" style="enable-background:new 0 0 270.2 324.3;" xml:space="preserve">
<style type="text/css">
	.st0{fill:#FFFFFF;}
	.st1{fill:#2589C2;}
</style>
<g>
	<path class="st0" d="M63.3,206.2c-19.1-19.1-29.7-44.6-29.7-71.6S44.2,82,63.3,62.9c19.1-19.1,44.6-29.7,71.6-29.7
		c27.1,0,52.5,10.5,71.6,29.7c19.1,19.1,29.7,44.6,29.7,71.6s-10.5,52.5-29.7,71.6c-19.1,19.1-44.6,29.7-71.6,29.7
		C107.9,235.9,82.4,225.3,63.3,206.2z"/>
	<g>
		<path class="st1" d="M135,228c-2.7,0-5.5-0.1-8.2-0.4l0.3-3.1c2.6,0.2,5.3,0.3,7.9,0.3V228z M148.7,227l-0.5-3.1
			c2.6-0.4,5.2-0.9,7.8-1.5l0.7,3.1C154.2,226.1,151.4,226.6,148.7,227z M109.7,224.6c-2.6-0.7-5.3-1.6-7.8-2.6l1.1-2.9
			c2.5,0.9,5,1.8,7.6,2.5L109.7,224.6z M173.2,219.8l-1.3-2.9c2.4-1.1,4.8-2.3,7.1-3.6l1.5,2.7C178.2,217.5,175.7,218.7,173.2,219.8
			z M86.3,214.3c-2.3-1.4-4.6-3-6.8-4.6l1.9-2.5c2.1,1.6,4.3,3.1,6.6,4.5L86.3,214.3z M194.8,206.2l-2-2.4c2-1.7,4-3.5,5.9-5.4
			l2.2,2.2C199,202.6,196.9,204.5,194.8,206.2z M66.6,198.1c-1.9-2-3.6-4.1-5.3-6.3l2.5-1.9c1.6,2.1,3.3,4.1,5.1,6.1L66.6,198.1z
			 M212,187.3l-2.6-1.8c1.5-2.2,2.9-4.5,4.2-6.8l2.7,1.5C215,182.7,213.5,185,212,187.3z M51.9,177.1c-1.2-2.4-2.4-5-3.4-7.5
			l2.9-1.2c1,2.4,2.1,4.9,3.3,7.2L51.9,177.1z M223.4,164.4l-3-1c0.8-2.5,1.6-5.1,2.2-7.6l3.1,0.7
			C225,159.2,224.2,161.8,223.4,164.4z M43.5,153c-0.5-2.7-1-5.4-1.2-8.1l3.1-0.3c0.3,2.6,0.7,5.3,1.2,7.9L43.5,153z M228.1,139.3
			l-3.1-0.2c0.1-1.4,0.1-2.9,0.1-4.4c0-1.2,0-2.4-0.1-3.6l3.1-0.1c0,1.2,0.1,2.5,0.1,3.7C228.2,136.3,228.2,137.8,228.1,139.3z
			 M45.2,127.8l-3.1-0.2c0.2-2.7,0.5-5.5,1-8.2l3.1,0.5C45.7,122.5,45.4,125.1,45.2,127.8z M222.8,114.6c-0.6-2.6-1.3-5.2-2.1-7.7
			l3-1c0.8,2.6,1.6,5.3,2.2,7.9L222.8,114.6z M50.4,103.7l-3-1.1c0.9-2.6,2-5.1,3.2-7.6l2.8,1.4C52.4,98.7,51.4,101.2,50.4,103.7z
			 M214,91.6c-1.3-2.3-2.7-4.6-4.1-6.8l2.6-1.8c1.5,2.3,3,4.6,4.3,7L214,91.6z M62.1,81.9l-2.5-1.9c1.6-2.2,3.3-4.4,5.1-6.4l2.4,2.1
			C65.3,77.7,63.7,79.8,62.1,81.9z M199.2,71.8c-1.9-1.9-3.8-3.7-5.8-5.4l2-2.4c2.1,1.8,4.1,3.7,6,5.6L199.2,71.8z M79.2,64.1
			l-2-2.5c2.1-1.7,4.4-3.3,6.7-4.8l1.7,2.6C83.5,60.9,81.3,62.5,79.2,64.1z M179.7,56.7c-2.3-1.3-4.7-2.5-7.1-3.7l1.3-2.9
			c2.5,1.1,4.9,2.4,7.3,3.8L179.7,56.7z M100.5,51.6l-1.2-2.9c2.5-1.1,5.1-2,7.7-2.8l0.9,3C105.4,49.7,102.9,50.6,100.5,51.6z
			 M156.8,47.4c-2.6-0.6-5.2-1.2-7.8-1.6l0.5-3.1c2.7,0.4,5.4,1,8.1,1.6L156.8,47.4z M124.3,45.4l-0.4-3.1c2.7-0.3,5.5-0.5,8.2-0.6
			l0.1,3.1C129.6,44.9,127,45.1,124.3,45.4z"/>
	</g>
	<g>
		<path class="st1" d="M72.9,319.9v-26.2H77c2.4,0,4.1,0.2,5.2,0.5c1.6,0.4,2.8,1.2,3.7,2.3c0.9,1.1,1.4,2.5,1.4,4
			c0,1-0.2,1.9-0.6,2.7c-0.4,0.8-1.1,1.6-2.1,2.3c1.6,0.7,2.8,1.7,3.5,2.8c0.7,1.1,1.1,2.4,1.1,4c0,1.5-0.4,2.8-1.1,4
			c-0.8,1.2-1.7,2.1-2.9,2.7c-1.2,0.6-2.9,0.9-5,0.9H72.9z M77.9,298.5v5.5H79c1.2,0,2.1-0.3,2.7-0.8c0.6-0.5,0.9-1.2,0.9-2.1
			c0-0.8-0.3-1.5-0.8-1.9c-0.6-0.5-1.4-0.7-2.6-0.7H77.9z M77.9,308.4v6.7h1.2c2.1,0,3.5-0.3,4.2-0.8c0.7-0.5,1.1-1.3,1.1-2.3
			c0-1.1-0.4-2-1.3-2.7c-0.8-0.7-2.2-1-4.2-1H77.9z"/>
		<path class="st1" d="M113.1,293.7v26.2h-5v-16.4l-9.8,16.4H94v-26.2h5v16.9l9.9-16.9H113.1z"/>
		<path class="st1" d="M127.6,293.7h5l8.4,21.5h2.9v8.6h-4.8v-3.9h-18v3.9h-4.8v-8.6h2.9L127.6,293.7z M130.2,300.7l-5.7,14.6h11.5
			L130.2,300.7z"/>
		<path class="st1" d="M147.2,293.7h14.3v4.9h-9.3v4.7h9.3v4.8h-9.3v6.9h9.3v4.9h-14.3V293.7z"/>
		<path class="st1" d="M178.6,293.1c3.7,0,6.9,1.3,9.6,4c2.7,2.7,4,6,4,9.8c0,3.8-1.3,7.1-3.9,9.7c-2.6,2.6-5.8,4-9.6,4
			c-3.9,0-7.2-1.4-9.8-4.1c-2.6-2.7-3.9-5.9-3.9-9.7c0-2.5,0.6-4.8,1.8-6.9c1.2-2.1,2.9-3.8,5-5
			C173.8,293.7,176.1,293.1,178.6,293.1z M178.5,297.9c-2.4,0-4.5,0.8-6.1,2.5c-1.7,1.7-2.5,3.8-2.5,6.4c0,2.9,1,5.2,3.1,6.9
			c1.6,1.3,3.5,2,5.6,2c2.4,0,4.4-0.9,6-2.6c1.7-1.7,2.5-3.8,2.5-6.3c0-2.5-0.8-4.6-2.5-6.3S180.9,297.9,178.5,297.9z"/>
	</g>
	<g>
		<path class="st1" d="M223.6,206.3l-8.5-5.8c13.2-15.9,21.2-35.2,23.1-55.8l10.1,1.7c0.4-3.9,0.6-7.9,0.6-11.9
			c0-16.2-3.4-32-9.8-46.4l-9.4,4.1c-5.1-11.4-12.3-22-21.5-31.1c-19.6-19.6-45.7-30.4-73.4-30.4c-27.7,0-53.8,10.8-73.4,30.4
			c-2,2-3.9,4-5.7,6.2L47.7,61c-17.4,20.5-26.8,46.3-26.8,73.5c0,0.5,0,1,0,1.4l10.2-0.4c0.3,27.3,11,53,30.4,72.4
			c19.6,19.6,45.7,30.4,73.4,30.4c6.2,0,12.3-0.5,18.3-1.6l0.9,10.2c23.2-3.9,44.5-14.9,61.5-31.8
			C218.4,212.4,221.1,209.4,223.6,206.3z M63.3,206.2c-19.1-19.1-29.7-44.6-29.7-71.6S44.2,82,63.3,62.9
			c19.1-19.1,44.6-29.7,71.6-29.7c27.1,0,52.5,10.5,71.6,29.7c19.1,19.1,29.7,44.6,29.7,71.6s-10.5,52.5-29.7,71.6
			c-19.1,19.1-44.6,29.7-71.6,29.7C107.9,235.9,82.4,225.3,63.3,206.2z"/>
	</g>
	<g>
		<path class="st1" d="M129.5,268.7c-2.7-0.1-5.5-0.3-8.2-0.6l0.3-3.1c2.7,0.3,5.4,0.5,8.1,0.6L129.5,268.7z M142.8,268.6l-0.2-3.1
			c2.7-0.2,5.4-0.4,8-0.7l0.4,3.1C148.4,268.1,145.6,268.4,142.8,268.6z M108.1,266.1c-2.7-0.5-5.4-1.2-8-1.9l0.8-3
			c2.6,0.7,5.2,1.3,7.9,1.8L108.1,266.1z M164.2,265.6l-0.7-3.1c2.6-0.6,5.2-1.3,7.8-2l0.9,3C169.6,264.3,166.9,265,164.2,265.6z
			 M87.4,260.1c-2.6-1-5.1-2-7.6-3.2l1.3-2.9c2.4,1.1,5,2.1,7.5,3.1L87.4,260.1z M184.8,259.2l-1.2-2.9c2.5-1,5-2.1,7.4-3.2l1.4,2.8
			C189.9,257,187.3,258.2,184.8,259.2z M67.9,250.9c-2.4-1.4-4.7-2.8-7-4.4l1.7-2.6c2.2,1.5,4.5,2.9,6.9,4.3L67.9,250.9z
			 M204.1,249.5l-1.6-2.7c2.3-1.4,4.6-2.9,6.8-4.4l1.8,2.6C208.8,246.6,206.4,248.1,204.1,249.5z M50.1,238.6
			c-2.1-1.7-4.2-3.6-6.2-5.4l2.1-2.3c2,1.8,4,3.6,6.1,5.3L50.1,238.6z M221.6,236.9l-2-2.4c2-1.7,4.1-3.6,6-5.4l2.2,2.3
			C225.7,233.3,223.7,235.2,221.6,236.9z M34.6,223.7c-1.8-2.1-3.6-4.2-5.3-6.3l2.5-1.9c1.7,2.1,3.4,4.2,5.2,6.2L34.6,223.7z
			 M236.9,221.7l-2.4-2c1.7-2,3.4-4.2,5.1-6.3l2.5,1.9C240.4,217.5,238.6,219.6,236.9,221.7z M21.6,206.5c-1.5-2.3-2.9-4.7-4.2-7.1
			l2.8-1.5c1.3,2.3,2.7,4.7,4.1,6.9L21.6,206.5z M249.5,204.2l-2.7-1.6c1.4-2.3,2.7-4.7,4-7l2.8,1.5
			C252.3,199.5,250.9,201.9,249.5,204.2z M11.5,187.4c-1.1-2.5-2.1-5.1-3-7.7l3-1.1c0.9,2.5,1.9,5,2.9,7.5L11.5,187.4z M259.2,184.9
			l-2.9-1.2c1-2.5,1.9-5,2.8-7.6l3,1C261.2,179.8,260.2,182.4,259.2,184.9z M4.7,167c-0.7-2.7-1.2-5.4-1.7-8.1l3.1-0.6
			c0.5,2.6,1,5.3,1.7,7.9L4.7,167z M265.6,164.3l-3.1-0.7c0.6-2.6,1.1-5.3,1.5-7.9l3.1,0.5C266.8,158.9,266.2,161.7,265.6,164.3z
			 M1.2,145.7c-0.2-2.7-0.4-5.5-0.4-8.3l3.1-0.1c0.1,2.7,0.2,5.4,0.4,8.1L1.2,145.7z M268.7,143l-3.1-0.2c0.2-2.7,0.2-5.4,0.2-8.1
			l0-0.3l3.1,0l0,0.3C268.9,137.5,268.8,140.3,268.7,143z M4.3,124.3l-3.1-0.2c0.2-2.7,0.5-5.5,0.9-8.2l3.1,0.4
			C4.8,119,4.5,121.7,4.3,124.3z M265.1,121.4c-0.3-2.7-0.6-5.4-1.1-8l3.1-0.5c0.4,2.7,0.8,5.5,1.1,8.2L265.1,121.4z M7.7,103.6
			l-3.1-0.7c0.7-2.7,1.4-5.3,2.2-8l3,0.9C9,98.3,8.3,100.9,7.7,103.6z M261.3,100.7c-0.7-2.6-1.5-5.2-2.3-7.7l3-1
			c0.9,2.6,1.7,5.3,2.4,7.9L261.3,100.7z M14.3,83.6l-2.9-1.2c1.1-2.5,2.2-5.1,3.5-7.5l2.8,1.4C16.5,78.6,15.4,81.1,14.3,83.6z
			 M254.2,80.9c-1.1-2.4-2.3-4.9-3.5-7.2l2.8-1.5c1.3,2.4,2.5,4.9,3.6,7.4L254.2,80.9z M24.1,64.9l-2.7-1.7c1.5-2.3,3-4.6,4.6-6.9
			l2.6,1.8C27,60.4,25.5,62.6,24.1,64.9z M244,62.5c-1.5-2.2-3-4.4-4.7-6.6l2.5-1.9c1.7,2.2,3.3,4.5,4.8,6.7L244,62.5z M36.7,48
			L34.4,46c1.8-2.1,3.7-4.1,5.7-6l2.2,2.2C40.4,44.1,38.5,46,36.7,48z M231,45.9c-1.8-2-3.7-3.9-5.7-5.8l2.2-2.3
			c2,1.9,3.9,3.9,5.8,5.9L231,45.9z M51.9,33.4l-2-2.4c2.1-1.7,4.3-3.4,6.6-5l1.8,2.6C56.1,30.1,54,31.7,51.9,33.4z M215.5,31.6
			c-2.1-1.7-4.3-3.3-6.5-4.8l1.8-2.6c2.3,1.6,4.5,3.2,6.7,4.9L215.5,31.6z M69.2,21.4l-1.6-2.7c2.4-1.4,4.8-2.7,7.3-3.9l1.4,2.8
			C73.9,18.8,71.5,20.1,69.2,21.4z M198,20c-2.4-1.3-4.8-2.5-7.2-3.7l1.3-2.8c2.5,1.2,5,2.4,7.4,3.8L198,20z M88.2,12.4l-1.1-2.9
			c2.6-1,5.2-1.9,7.8-2.7l0.9,3C93.3,10.5,90.7,11.4,88.2,12.4z M178.7,11.4c-2.5-0.9-5.1-1.7-7.7-2.5l0.9-3
			c2.6,0.8,5.3,1.6,7.9,2.5L178.7,11.4z M108.4,6.5l-0.6-3.1c2.7-0.6,5.4-1,8.1-1.4l0.4,3.1C113.7,5.5,111.1,5.9,108.4,6.5z
			 M158.4,5.9c-2.6-0.5-5.3-0.9-8-1.2l0.4-3.1c2.7,0.3,5.5,0.7,8.2,1.2L158.4,5.9z M129.4,3.9l-0.1-3.1c2.7-0.1,5.5-0.1,8.3-0.1
			l-0.1,3.1C134.8,3.8,132,3.8,129.4,3.9z"/>
	</g>
	<g>
		<path class="st1" d="M135.1,54C90.6,54,54.5,90,54.5,134.5S90.6,215,135.1,215s80.5-36.1,80.5-80.5S179.5,54,135.1,54z M80,164
			v-58.6l42.3,29.3L80,164z M162.4,166.2h-14.9v-63.4h14.9V166.2z M189.7,166.2h-14.9v-63.4h14.9V166.2z"/>
	</g>
</g>
</svg>
